<svg width="14" height="14" viewBox="0 0 14 14" fill="none" xmlns="http://www.w3.org/2000/svg">
<path fill-rule="evenodd" clip-rule="evenodd" d="M3.5 3.49995C3.17783 3.49995 2.91667 3.76112 2.91667 4.08329V11.0833C2.91667 11.4055 3.17783 11.6666 3.5 11.6666H10.5C10.8222 11.6666 11.0833 11.4055 11.0833 11.0833V4.08329C11.0833 3.76112 10.8222 3.49995 10.5 3.49995H3.5ZM1.75 4.08329C1.75 3.11679 2.5335 2.33329 3.5 2.33329H10.5C11.4665 2.33329 12.25 3.11679 12.25 4.08329V11.0833C12.25 12.0498 11.4665 12.8333 10.5 12.8333H3.5C2.5335 12.8333 1.75 12.0498 1.75 11.0833V4.08329Z" fill="white" fill-opacity="0.7"/>
<path fill-rule="evenodd" clip-rule="evenodd" d="M9.33333 1.16663C9.6555 1.16663 9.91667 1.42779 9.91667 1.74996V4.08329C9.91667 4.40546 9.6555 4.66663 9.33333 4.66663C9.01117 4.66663 8.75 4.40546 8.75 4.08329V1.74996C8.75 1.42779 9.01117 1.16663 9.33333 1.16663Z" fill="white" fill-opacity="0.7"/>
<path fill-rule="evenodd" clip-rule="evenodd" d="M4.66669 1.16663C4.98885 1.16663 5.25002 1.42779 5.25002 1.74996V4.08329C5.25002 4.40546 4.98885 4.66663 4.66669 4.66663C4.34452 4.66663 4.08335 4.40546 4.08335 4.08329V1.74996C4.08335 1.42779 4.34452 1.16663 4.66669 1.16663Z" fill="white" fill-opacity="0.7"/>
<path fill-rule="evenodd" clip-rule="evenodd" d="M1.75 6.41662C1.75 6.09445 2.01117 5.83329 2.33333 5.83329H11.6667C11.9888 5.83329 12.25 6.09445 12.25 6.41662C12.25 6.73879 11.9888 6.99995 11.6667 6.99995H2.33333C2.01117 6.99995 1.75 6.73879 1.75 6.41662Z" fill="white" fill-opacity="0.7"/>
</svg>
