<svg width="24" height="24" viewBox="0 0 24 24" fill="none" xmlns="http://www.w3.org/2000/svg">
<path d="M22 4.61719C22 3.17401 20.826 2 19.3828 2C17.9396 2 16.7656 3.17401 16.7656 4.61719C16.7656 5.7883 17.5389 6.7821 18.6016 7.1152V11.2188H12.8594V7.1152C13.922 6.7821 14.6953 5.7883 14.6953 4.61719C14.6953 3.17401 13.5213 2 12.0781 2C10.6349 2 9.46094 3.17401 9.46094 4.61719C9.46094 5.7883 10.2343 6.7821 11.2969 7.1152V11.2188H5.39844V7.1152C6.46106 6.7821 7.23438 5.7883 7.23438 4.61719C7.23438 3.17401 6.06036 2 4.61719 2C3.17401 2 2 3.17401 2 4.61719C2 5.7883 2.77332 6.7821 3.83594 7.1152V16.8848C2.77332 17.2179 2 18.2117 2 19.3828C2 20.826 3.17401 22 4.61719 22C6.06036 22 7.23438 20.826 7.23438 19.3828C7.23438 18.2117 6.46106 17.2179 5.39844 16.8848V12.7812H11.2969V16.8848C10.2343 17.2179 9.46094 18.2117 9.46094 19.3828C9.46094 20.826 10.6349 22 12.0781 22C13.5213 22 14.6953 20.826 14.6953 19.3828C14.6953 18.2117 13.922 17.2179 12.8594 16.8848V12.7812H20.1641V7.1152C21.2267 6.7821 22 5.7883 22 4.61719ZM12.0781 3.5625C12.6596 3.5625 13.1328 4.03568 13.1328 4.61719C13.1328 5.1987 12.6596 5.67188 12.0781 5.67188C11.4966 5.67188 11.0234 5.1987 11.0234 4.61719C11.0234 4.03568 11.4966 3.5625 12.0781 3.5625ZM4.61719 3.5625C5.1987 3.5625 5.67188 4.03568 5.67188 4.61719C5.67188 5.1987 5.1987 5.67188 4.61719 5.67188C4.03568 5.67188 3.5625 5.1987 3.5625 4.61719C3.5625 4.03568 4.03568 3.5625 4.61719 3.5625ZM4.61719 20.4375C4.03568 20.4375 3.5625 19.9643 3.5625 19.3828C3.5625 18.8013 4.03568 18.3281 4.61719 18.3281C5.1987 18.3281 5.67188 18.8013 5.67188 19.3828C5.67188 19.9643 5.1987 20.4375 4.61719 20.4375ZM12.0781 20.4375C11.4966 20.4375 11.0234 19.9643 11.0234 19.3828C11.0234 18.8013 11.4966 18.3281 12.0781 18.3281C12.6596 18.3281 13.1328 18.8013 13.1328 19.3828C13.1328 19.9643 12.6596 20.4375 12.0781 20.4375ZM19.3828 5.67188C18.8013 5.67188 18.3281 5.1987 18.3281 4.61719C18.3281 4.03568 18.8013 3.5625 19.3828 3.5625C19.9643 3.5625 20.4375 4.03568 20.4375 4.61719C20.4375 5.1987 19.9643 5.67188 19.3828 5.67188Z" fill="white"/>
</svg>
