<svg width="16" height="16" viewBox="0 0 16 16" fill="none" xmlns="http://www.w3.org/2000/svg">
<path fill-rule="evenodd" clip-rule="evenodd" d="M5.61446 4.01499C5.24862 3.97597 4.87866 4.01311 4.52789 4.12407C4.17711 4.23502 3.85312 4.41739 3.57632 4.65967C3.29951 4.90196 3.07589 5.19891 2.91953 5.53184C2.76316 5.86476 2.67744 6.22644 2.66775 6.5941C2.65807 6.96176 2.72463 7.32745 2.86324 7.66814C3.00186 8.00883 3.20953 8.31714 3.47319 8.57365L3.4774 8.57775L8.00571 13.0618L12.5251 8.58667C12.5382 8.57026 12.5547 8.54971 12.5736 8.52568C12.6273 8.45753 12.7004 8.36279 12.778 8.25636C12.9469 8.02471 13.0892 7.80179 13.1405 7.67463C13.2775 7.33455 13.3428 6.96984 13.3324 6.60335C13.322 6.23685 13.236 5.87645 13.0799 5.5447C12.9237 5.21294 12.7007 4.91697 12.4249 4.67532C12.1491 4.43367 11.8263 4.25153 11.4768 4.14031C11.1273 4.0291 10.7587 3.99121 10.3938 4.029C10.029 4.0668 9.67595 4.17948 9.3567 4.35998C9.03746 4.54048 8.75892 4.78491 8.53852 5.07797C8.41219 5.24595 8.21404 5.34452 8.00386 5.34394C7.79368 5.34335 7.59608 5.24368 7.47069 5.075C7.25124 4.7798 6.97302 4.53321 6.65356 4.35078C6.3341 4.16834 5.9803 4.05401 5.61446 4.01499ZM13.5149 9.4788C13.5168 9.48039 13.5169 9.48031 13.5169 9.48031L13.5195 9.47711L13.5255 9.4698L13.5467 9.4438C13.5646 9.42168 13.5899 9.39016 13.6206 9.35122C13.6818 9.27362 13.7655 9.16516 13.8554 9.04182C14.0216 8.81392 14.2571 8.47099 14.3772 8.17295C14.5828 7.66263 14.6809 7.11538 14.6652 6.56542C14.6496 6.01547 14.5205 5.47467 14.2862 4.97687C14.0519 4.47908 13.7174 4.035 13.3035 3.67243C12.8897 3.30986 12.4055 3.03661 11.8812 2.86976C11.3568 2.70291 10.8037 2.64606 10.2564 2.70277C9.70913 2.75948 9.17943 2.92852 8.70047 3.19932C8.45217 3.3397 8.22029 3.50587 8.00845 3.69462C7.79641 3.50356 7.56395 3.33524 7.31476 3.19294C6.83547 2.91923 6.3047 2.74771 5.75586 2.68918C5.20703 2.63064 4.65202 2.68636 4.12577 2.85281C3.59953 3.01927 3.11345 3.29287 2.69814 3.65639C2.28284 4.0199 1.9473 4.46546 1.71268 4.96501C1.47805 5.46456 1.34942 6.00728 1.33488 6.55898C1.32035 7.11069 1.42022 7.65942 1.62822 8.17063C1.83584 8.6809 2.14668 9.14275 2.54124 9.5272L7.53608 14.4731L7.5366 14.4736C7.79641 14.7309 8.21499 14.7309 8.47479 14.4737L13.4256 9.57139C13.4583 9.54456 13.4889 9.51412 13.5169 9.48031L13.5149 9.4788Z" fill="#FD5631"/>
</svg>
