<svg width="28" height="35" viewBox="0 0 28 35" fill="none" xmlns="http://www.w3.org/2000/svg">
<path d="M23.019 18.645C22.9833 14.353 26.5068 12.267 26.6616 12.1711C24.6617 9.24583 21.5667 8.83821 20.4834 8.80224C17.8884 8.5265 15.3648 10.3728 14.0434 10.3728C12.6983 10.3728 10.6508 8.83821 8.46048 8.87418C5.63924 8.92213 2.98467 10.5646 1.54429 13.1302C-1.44359 18.3453 0.782442 26.0181 3.65129 30.2382C5.09166 32.3002 6.75821 34.6141 8.96044 34.5301C11.1031 34.4462 11.9126 33.1514 14.4958 33.1514C17.067 33.1514 17.817 34.5301 20.0549 34.4822C22.3643 34.4462 23.8046 32.4081 25.1974 30.3221C26.852 27.9603 27.5187 25.6225 27.5425 25.5026C27.483 25.4786 23.0666 23.7762 23.019 18.645Z" fill="white"/>
<path d="M18.7931 6.03298C19.9477 4.58234 20.7334 2.6042 20.5191 0.590088C18.8526 0.66202 16.7575 1.753 15.5552 3.17966C14.4957 4.43848 13.5434 6.48855 13.7815 8.41874C15.6623 8.56261 17.5908 7.45964 18.7931 6.03298Z" fill="white"/>
</svg>
