<svg width="32" height="35" viewBox="0 0 32 35" fill="none" xmlns="http://www.w3.org/2000/svg">
<path d="M17.6515 17.5217L1.72159 33.7573C1.41008 33.4086 1.1875 32.8333 1.1875 32.1205V2.72817C1.1875 2.08308 1.2765 1.58146 1.4823 1.2432L17.6515 17.4612V17.5217Z" fill="white" stroke="#454056" stroke-width="0.5"/>
<path d="M23.1278 12.2557L29.52 15.9785C30.3872 16.4835 30.766 17.1122 30.766 17.6909C30.766 18.269 30.388 18.897 29.5226 19.4018L23.1668 22.8998L18.021 17.6552V17.4606L23.1278 12.2557Z" fill="white" stroke="#454056" stroke-width="0.5"/>
<path d="M1.82358 34.1022L17.772 17.8477L22.8499 23.023L4.08577 34.026C3.5226 34.2797 3.04465 34.3955 2.64398 34.3809C2.33284 34.3696 2.06169 34.2797 1.82358 34.1022Z" fill="white" stroke="#454056" stroke-width="0.5"/>
<path d="M4.07654 1.08431C4.0769 1.08451 4.07726 1.08472 4.07761 1.08492L22.8487 11.9609L17.7713 17.1358L1.82226 1.01066C2.06763 0.818033 2.34369 0.706991 2.65303 0.684471C3.04638 0.655835 3.51874 0.768671 4.07654 1.08431Z" fill="white" stroke="#454056" stroke-width="0.5"/>
<g opacity="0.2">
<mask id="path-5-inside-1_5762_39406" fill="white">
<path d="M23.1222 22.9438L4.20079 33.8496C3.15685 34.5146 2.2434 34.3816 1.59094 33.8496L1.46045 33.9826L1.59094 34.1156C2.2434 34.6476 3.15685 34.7806 4.20079 34.1156L23.1222 22.9438Z"/>
</mask>
<path d="M23.1222 22.9438L4.20079 33.8496C3.15685 34.5146 2.2434 34.3816 1.59094 33.8496L1.46045 33.9826L1.59094 34.1156C2.2434 34.6476 3.15685 34.7806 4.20079 34.1156L23.1222 22.9438Z" fill="white"/>
<path d="M23.1222 22.9438L23.3764 23.3744L22.8725 22.5107L23.1222 22.9438ZM4.20079 33.8496L3.95111 33.4164L3.94151 33.4219L3.93217 33.4279L4.20079 33.8496ZM1.59094 33.8496L1.9069 33.4621L1.55344 33.1739L1.23404 33.4994L1.59094 33.8496ZM1.46045 33.9826L1.10355 33.6324L0.759968 33.9826L1.10355 34.3328L1.46045 33.9826ZM1.59094 34.1156L1.23405 34.4658L1.25348 34.4856L1.27498 34.5031L1.59094 34.1156ZM4.20079 34.1156L3.94658 33.685L3.9393 33.6893L3.93217 33.6939L4.20079 34.1156ZM22.8725 22.5107L3.95111 33.4164L4.45047 34.2828L23.3719 23.377L22.8725 22.5107ZM3.93217 33.4279C3.4796 33.7162 3.0891 33.8109 2.76792 33.7988C2.44773 33.7867 2.15841 33.6671 1.9069 33.4621L1.27498 34.2371C1.67594 34.564 2.16957 34.7769 2.7302 34.7981C3.28985 34.8192 3.87804 34.648 4.46942 34.2713L3.93217 33.4279ZM1.23404 33.4994L1.10355 33.6324L1.81735 34.3328L1.94784 34.1998L1.23404 33.4994ZM1.10355 34.3328L1.23405 34.4658L1.94784 33.7654L1.81734 33.6324L1.10355 34.3328ZM1.27498 34.5031C1.67594 34.83 2.16957 35.0429 2.7302 35.0641C3.28985 35.0852 3.87804 34.914 4.46942 34.5373L3.93217 33.6939C3.4796 33.9821 3.0891 34.0769 2.76792 34.0648C2.44773 34.0527 2.15841 33.9331 1.9069 33.7281L1.27498 34.5031ZM4.455 34.5461L23.3764 23.3744L22.868 22.5133L3.94658 33.685L4.455 34.5461Z" fill="#454056" mask="url(#path-5-inside-1_5762_39406)"/>
</g>
<g opacity="0.2">
<mask id="path-7-inside-2_5762_39406" fill="white">
<path d="M1.45947 33.8494C1.06799 33.4504 0.9375 32.7854 0.9375 31.9874V32.1204C0.9375 32.9184 1.19848 33.5834 1.58996 33.9824V33.8494H1.45947ZM29.6458 19.2197L23.1212 22.9436L23.2517 23.0766L29.6458 19.3527C30.5593 18.8207 30.9508 18.1557 30.9508 17.4907C30.9508 18.1557 30.4288 18.6877 29.6458 19.2197Z"/>
</mask>
<path d="M1.45947 33.8494C1.06799 33.4504 0.9375 32.7854 0.9375 31.9874V32.1204C0.9375 32.9184 1.19848 33.5834 1.58996 33.9824V33.8494H1.45947ZM29.6458 19.2197L23.1212 22.9436L23.2517 23.0766L29.6458 19.3527C30.5593 18.8207 30.9508 18.1557 30.9508 17.4907C30.9508 18.1557 30.4288 18.6877 29.6458 19.2197Z" fill="white"/>
<path d="M1.45947 33.8494L1.10257 34.1995L1.24957 34.3494H1.45947V33.8494ZM1.58996 33.9824L1.23306 34.3325L2.08996 35.2059V33.9824H1.58996ZM1.58996 33.8494H2.08996V33.3494H1.58996V33.8494ZM23.1212 22.9436L22.8734 22.5094L22.3101 22.8308L22.7643 23.2938L23.1212 22.9436ZM23.2517 23.0766L22.8948 23.4268L23.1672 23.7044L23.5033 23.5087L23.2517 23.0766ZM29.6458 19.3527L29.3942 18.9206L29.6458 19.3527ZM1.81637 33.4992C1.57335 33.2515 1.4375 32.7676 1.4375 31.9874H0.4375C0.4375 32.8031 0.562631 33.6492 1.10257 34.1995L1.81637 33.4992ZM0.4375 31.9874V32.1204H1.4375V31.9874H0.4375ZM0.4375 32.1204C0.4375 33.0183 0.730195 33.82 1.23306 34.3325L1.94686 33.6322C1.66678 33.3467 1.4375 32.8185 1.4375 32.1204H0.4375ZM2.08996 33.9824V33.8494H1.08996V33.9824H2.08996ZM1.58996 33.3494H1.45947V34.3494H1.58996V33.3494ZM29.398 18.7854L22.8734 22.5094L23.3691 23.3778L29.8937 19.6539L29.398 18.7854ZM22.7643 23.2938L22.8948 23.4268L23.6086 22.7264L23.4781 22.5934L22.7643 23.2938ZM23.5033 23.5087L29.8975 19.7847L29.3942 18.9206L23.0001 22.6445L23.5033 23.5087ZM29.8975 19.7847C30.9158 19.1917 31.4508 18.3838 31.4508 17.4907H30.4508C30.4508 17.9276 30.2028 18.4497 29.3942 18.9206L29.8975 19.7847ZM30.4508 17.4907C30.4508 17.872 30.152 18.2712 29.3648 18.8061L29.9268 19.6332C30.7056 19.1041 31.4508 18.4394 31.4508 17.4907H30.4508Z" fill="#454056" mask="url(#path-7-inside-2_5762_39406)"/>
</g>
<g opacity="0.2">
<mask id="path-9-inside-3_5762_39406" fill="white">
<path d="M4.19981 0.999439L29.6458 15.7621C30.4288 16.2941 30.9508 16.8261 30.9508 17.4911C30.9508 16.8261 30.5593 16.1611 29.6458 15.6291L4.19981 0.866443C2.37292 -0.197533 0.9375 0.600448 0.9375 2.7284V2.8614C0.9375 0.866443 2.37292 -0.0645362 4.19981 0.999439Z"/>
</mask>
<path d="M4.19981 0.999439L29.6458 15.7621C30.4288 16.2941 30.9508 16.8261 30.9508 17.4911C30.9508 16.8261 30.5593 16.1611 29.6458 15.6291L4.19981 0.866443C2.37292 -0.197533 0.9375 0.600448 0.9375 2.7284V2.8614C0.9375 0.866443 2.37292 -0.0645362 4.19981 0.999439Z" fill="white"/>
<path d="M4.19981 0.999439L3.94818 1.43151L3.9489 1.43193L4.19981 0.999439ZM29.6458 15.7621L29.9268 15.3485L29.9121 15.3385L29.8968 15.3296L29.6458 15.7621ZM29.6458 15.6291L29.8975 15.197L29.8968 15.1966L29.6458 15.6291ZM4.19981 0.866443L3.94818 1.29851L3.9489 1.29893L4.19981 0.866443ZM3.9489 1.43193L29.3949 16.1946L29.8968 15.3296L4.45072 0.566953L3.9489 1.43193ZM29.3648 16.1757C30.152 16.7105 30.4508 17.1098 30.4508 17.4911H31.4508C31.4508 16.5424 30.7056 15.8776 29.9268 15.3485L29.3648 16.1757ZM31.4508 17.4911C31.4508 16.5979 30.9158 15.7901 29.8975 15.197L29.3942 16.0612C30.2028 16.5321 30.4508 17.0542 30.4508 17.4911H31.4508ZM29.8968 15.1966L4.45072 0.433956L3.9489 1.29893L29.3949 16.0616L29.8968 15.1966ZM4.45145 0.434377C3.45621 -0.145246 2.43995 -0.289171 1.63721 0.165354C0.832148 0.621195 0.4375 1.56764 0.4375 2.7284H1.4375C1.4375 1.76121 1.76056 1.24469 2.12993 1.03554C2.50162 0.825084 3.11652 0.814156 3.94818 1.29851L4.45145 0.434377ZM0.4375 2.7284V2.8614H1.4375V2.7284H0.4375ZM1.4375 2.8614C1.4375 1.97257 1.75378 1.44218 2.13909 1.2131C2.51843 0.987569 3.13159 0.95593 3.94818 1.43151L4.45145 0.567374C3.44113 -0.0210266 2.42314 -0.119164 1.62805 0.353539C0.838928 0.822697 0.4375 1.75527 0.4375 2.8614H1.4375Z" fill="#454056" mask="url(#path-9-inside-3_5762_39406)"/>
</g>
</svg>
