<svg width="18" height="18" viewBox="0 0 18 18" fill="none" xmlns="http://www.w3.org/2000/svg">
<path fill-rule="evenodd" clip-rule="evenodd" d="M3.75008 4.5C3.33587 4.5 3.00008 4.83579 3.00008 5.25V12.75C3.00008 13.1642 3.33587 13.5 3.75008 13.5H14.2501C14.6643 13.5 15.0001 13.1642 15.0001 12.75V5.25C15.0001 4.83579 14.6643 4.5 14.2501 4.5H3.75008ZM1.50008 5.25C1.50008 4.00736 2.50744 3 3.75008 3H14.2501C15.4927 3 16.5001 4.00736 16.5001 5.25V12.75C16.5001 13.9926 15.4927 15 14.2501 15H3.75008C2.50744 15 1.50008 13.9926 1.50008 12.75V5.25Z" fill="#FD5631"/>
<path fill-rule="evenodd" clip-rule="evenodd" d="M1.62604 4.83395C1.85581 4.4893 2.32146 4.39617 2.6661 4.62593L9.00008 8.84858L15.3341 4.62593C15.6787 4.39617 16.1444 4.4893 16.3741 4.83395C16.6039 5.17859 16.5108 5.64425 16.1661 5.87401L9.4161 10.374C9.16418 10.542 8.83598 10.542 8.58405 10.374L1.83405 5.87401C1.48941 5.64425 1.39628 5.17859 1.62604 4.83395Z" fill="#FD5631"/>
</svg>
