<svg width="24" height="24" viewBox="0 0 24 24" fill="none" xmlns="http://www.w3.org/2000/svg">
<path d="M12 19.1758C13.6945 19.1758 15.0732 17.8265 15.0732 16.168C15.0732 15.7442 14.9416 14.9836 13.8034 13.4779C13.2337 12.7239 12.6705 12.1219 12.6469 12.0965L12 11.4065L11.3531 12.0965C11.3295 12.1219 10.7664 12.7239 10.1966 13.4779C9.05836 14.9836 8.92683 15.7442 8.92683 16.168C8.92683 17.8265 10.3055 19.1758 12 19.1758ZM11.5999 14.5112C11.7357 14.3312 11.8724 14.1593 12 14.0038C12.1276 14.1593 12.2643 14.3311 12.4001 14.5112C13.3066 15.7131 13.3171 16.1508 13.3171 16.168C13.3171 16.8788 12.7263 17.457 12 17.457C11.2737 17.457 10.6829 16.8788 10.6829 16.168C10.6829 16.1508 10.6934 15.7131 11.5999 14.5112Z" fill="white"/>
<path d="M20.2284 8.71893L16.6255 5.19264C16.1279 4.70572 15.4664 4.4375 14.7629 4.4375H10.8146V2.71875C10.8146 1.77109 10.0268 1 9.05854 1H7.30244C6.33418 1 5.54634 1.77109 5.54634 2.71875V4.43968C4.13443 4.48534 3 5.62283 3 7.01562V20.4219C3 21.8435 4.18159 23 5.63415 23H18.3659C19.8184 23 21 21.8435 21 20.4219V10.5419C21 9.85341 20.726 9.20602 20.2284 8.71893ZM7.30244 2.71875H9.05854V4.4375H7.30244V2.71875ZM19.2439 20.4219C19.2439 20.8957 18.85 21.2812 18.3659 21.2812H5.63415C5.15002 21.2812 4.7561 20.8957 4.7561 20.4219V7.01562C4.7561 6.54179 5.15002 6.15625 5.63415 6.15625H10.1875L19.2439 15.0201V20.4219ZM19.2439 12.5893L12.6711 6.15625H14.7628C14.9974 6.15625 15.2179 6.24571 15.3837 6.40802L18.9867 9.93431C19.1525 10.0966 19.2439 10.3125 19.2439 10.5419V12.5893Z" fill="white"/>
</svg>
