<svg width="18" height="18" viewBox="0 0 18 18" fill="none" xmlns="http://www.w3.org/2000/svg">
<path fill-rule="evenodd" clip-rule="evenodd" d="M5.27656 3.04428C5.2528 3.06656 5.25 3.08412 5.25 3.09375V14.9062C5.25 14.9159 5.2528 14.9334 5.27656 14.9557C5.30115 14.9788 5.34302 15 5.4 15H12.6C12.657 15 12.6988 14.9788 12.7234 14.9557C12.7472 14.9334 12.75 14.9159 12.75 14.9062V3.09375C12.75 3.08412 12.7472 3.06656 12.7234 3.04428C12.6988 3.02123 12.657 3 12.6 3H10.6444C10.6482 3.03063 10.6501 3.06184 10.6501 3.0935C10.6501 3.50771 10.3143 3.8435 9.90013 3.8435H8.10013C7.68592 3.8435 7.35013 3.50771 7.35013 3.0935C7.35013 3.06184 7.3521 3.03063 7.3559 3H5.4C5.34302 3 5.30115 3.02123 5.27656 3.04428ZM3.75 3.09375C3.75 2.16869 4.53506 1.5 5.4 1.5H12.6C13.4649 1.5 14.25 2.16869 14.25 3.09375V14.9062C14.25 15.8313 13.4649 16.5 12.6 16.5H5.4C4.53506 16.5 3.75 15.8313 3.75 14.9062V3.09375ZM9.00007 12.4685C9.41428 12.4685 9.75007 12.8043 9.75007 13.2185V13.2269C9.75007 13.6412 9.41428 13.9769 9.00007 13.9769C8.58585 13.9769 8.25007 13.6412 8.25007 13.2269V13.2185C8.25007 12.8043 8.58585 12.4685 9.00007 12.4685Z" fill="#FD5631"/>
</svg>
