<svg width="16" height="16" viewBox="0 0 16 16" fill="none" xmlns="http://www.w3.org/2000/svg">
<path fill-rule="evenodd" clip-rule="evenodd" d="M14.4711 1.52731C14.7315 1.78766 14.7315 2.20977 14.4711 2.47012L7.13778 9.80346C6.87743 10.0638 6.45532 10.0638 6.19497 9.80346C5.93462 9.54311 5.93462 9.121 6.19497 8.86065L13.5283 1.52731C13.7887 1.26696 14.2108 1.26696 14.4711 1.52731Z" fill="white"/>
<path fill-rule="evenodd" clip-rule="evenodd" d="M14.4711 1.52731C14.6539 1.71008 14.7145 1.98203 14.6268 2.22515L10.2934 14.2251C10.2871 14.2425 10.2801 14.2596 10.2724 14.2764C10.19 14.4563 10.0577 14.6088 9.89115 14.7156C9.72463 14.8225 9.53092 14.8793 9.33306 14.8793C9.13519 14.8793 8.94148 14.8225 8.77496 14.7156C8.61242 14.6113 8.48245 14.4636 8.39966 14.2893L6.16948 9.82895L1.70914 7.59878C1.53485 7.516 1.38713 7.38602 1.28282 7.22348C1.17595 7.05696 1.11914 6.86325 1.11914 6.66538C1.11914 6.46752 1.17595 6.27381 1.28282 6.10729C1.38968 5.94076 1.54211 5.80842 1.72199 5.72599C1.73879 5.71829 1.75591 5.71129 1.77329 5.70501L13.7733 1.37168C14.0164 1.28389 14.2883 1.34454 14.4711 1.52731ZM2.91423 6.71061L6.96453 8.73577C7.09355 8.80027 7.19816 8.90489 7.26267 9.03391L9.28782 13.0842L12.8903 3.10815L2.91423 6.71061Z" fill="white"/>
</svg>
