<svg width="20" height="20" viewBox="0 0 20 20" fill="none" xmlns="http://www.w3.org/2000/svg">
<g opacity="0.5">
<path fill-rule="evenodd" clip-rule="evenodd" d="M9.99389 0.835205C10.3111 0.835205 10.6008 1.01529 10.7412 1.29974L13.1189 6.11752L18.4351 6.88799C18.7492 6.93351 19.0101 7.15347 19.1081 7.45532C19.2062 7.75717 19.1242 8.08849 18.8968 8.30985L15.0444 12.0598L15.9527 17.3551C16.0064 17.6679 15.8777 17.984 15.6209 18.1704C15.3641 18.3569 15.0237 18.3812 14.7429 18.2333L9.99928 15.7336L5.24419 18.2336C4.96343 18.3813 4.6232 18.3567 4.36657 18.1702C4.10994 17.9838 3.98142 17.6678 4.03506 17.3551L4.94342 12.0598L1.09096 8.30985C0.863551 8.08849 0.781614 7.75717 0.879636 7.45532C0.977658 7.15347 1.23862 6.93351 1.5527 6.88799L6.86892 6.11752L9.24661 1.29974C9.38699 1.01529 9.67669 0.835205 9.99389 0.835205ZM9.99389 3.55152L8.16951 7.24817C8.04807 7.49423 7.8133 7.66473 7.54175 7.70409L3.46506 8.29491L6.42015 11.1714C6.61684 11.3629 6.70664 11.6389 6.66023 11.9094L5.96323 15.9726L9.61192 14.0543C9.85495 13.9265 10.1453 13.9266 10.3882 14.0546L14.0242 15.9707L13.3276 11.9094C13.2811 11.6389 13.3709 11.3629 13.5676 11.1714L16.5227 8.29491L12.446 7.70409C12.1745 7.66473 11.9397 7.49423 11.8183 7.24817L9.99389 3.55152Z" fill="white"/>
</g>
</svg>
