<svg width="14" height="14" viewBox="0 0 14 14" fill="none" xmlns="http://www.w3.org/2000/svg">
<g clip-path="url(#clip0_6060_365)">
<path d="M12.5615 4.14925C13.1308 3.745 13.6097 3.24042 14 2.65942V2.65883C13.4791 2.88692 12.9249 3.03858 12.3463 3.11208C12.9412 2.75683 13.3957 2.19858 13.6092 1.526C13.0544 1.85675 12.4419 2.09008 11.7892 2.22075C11.2624 1.65958 10.5117 1.3125 9.69267 1.3125C8.10367 1.3125 6.82442 2.60225 6.82442 4.18308C6.82442 4.41058 6.84367 4.62933 6.89092 4.83758C4.50508 4.72092 2.39342 3.57758 0.97475 1.83517C0.727417 2.26508 0.581583 2.75683 0.581583 3.28592C0.581583 4.27992 1.09317 5.16075 1.85675 5.67117C1.39533 5.66242 0.94325 5.52825 0.56 5.31767V5.34917C0.56 6.74392 1.55458 7.90242 2.8595 8.16958C2.62558 8.23375 2.37125 8.26408 2.107 8.26408C1.92325 8.26408 1.73775 8.25358 1.56392 8.21508C1.9355 9.35142 2.99133 10.1873 4.2455 10.2147C3.269 10.9783 2.02883 11.4386 0.686583 11.4386C0.4515 11.4386 0.22575 11.4281 0 11.3995C1.27167 12.2191 2.77783 12.6875 4.403 12.6875C9.46808 12.6875 12.7692 8.46183 12.5615 4.14925Z" fill="white"/>
</g>
<defs>
<clipPath id="clip0_6060_365">
<rect width="14" height="14" fill="white"/>
</clipPath>
</defs>
</svg>
