<svg width="16" height="16" viewBox="0 0 16 16" fill="none" xmlns="http://www.w3.org/2000/svg">
<path fill-rule="evenodd" clip-rule="evenodd" d="M8.00014 2.66659C6.89557 2.66659 6.00014 3.56202 6.00014 4.66658C6.00014 5.77115 6.89557 6.66658 8.00014 6.66658C9.10471 6.66658 10.0001 5.77115 10.0001 4.66658C10.0001 3.56202 9.10471 2.66659 8.00014 2.66659ZM4.6668 4.66658C4.6668 2.82564 6.15919 1.33325 8.00014 1.33325C9.84109 1.33325 11.3335 2.82564 11.3335 4.66658C11.3335 6.50753 9.84109 7.99992 8.00014 7.99992C6.15919 7.99992 4.6668 6.50753 4.6668 4.66658Z" fill="white"/>
<path fill-rule="evenodd" clip-rule="evenodd" d="M6.66683 10.6666C6.1364 10.6666 5.62769 10.8773 5.25262 11.2524C4.87754 11.6274 4.66683 12.1362 4.66683 12.6666V13.9999C4.66683 14.3681 4.36835 14.6666 4.00016 14.6666C3.63197 14.6666 3.3335 14.3681 3.3335 13.9999V12.6666C3.3335 11.7825 3.68469 10.9347 4.30981 10.3096C4.93493 9.68444 5.78277 9.33325 6.66683 9.33325H9.3335C10.2176 9.33325 11.0654 9.68444 11.6905 10.3096C12.3156 10.9347 12.6668 11.7825 12.6668 12.6666V13.9999C12.6668 14.3681 12.3684 14.6666 12.0002 14.6666C11.632 14.6666 11.3335 14.3681 11.3335 13.9999V12.6666C11.3335 12.1362 11.1228 11.6274 10.7477 11.2524C10.3726 10.8773 9.86393 10.6666 9.3335 10.6666H6.66683Z" fill="white"/>
</svg>
