<svg width="18" height="19" viewBox="0 0 18 19" fill="none" xmlns="http://www.w3.org/2000/svg">
<path fill-rule="evenodd" clip-rule="evenodd" d="M9 3.5001C5.68629 3.5001 3 6.18639 3 9.5001C3 12.8138 5.68629 15.5001 9 15.5001C12.3137 15.5001 15 12.8138 15 9.5001C15 6.18639 12.3137 3.5001 9 3.5001ZM1.5 9.5001C1.5 5.35796 4.85786 2.0001 9 2.0001C13.1421 2.0001 16.5 5.35796 16.5 9.5001C16.5 13.6422 13.1421 17.0001 9 17.0001C4.85786 17.0001 1.5 13.6422 1.5 9.5001Z" fill="white"/>
<path fill-rule="evenodd" clip-rule="evenodd" d="M1.95 7.2501C1.95 6.83589 2.28579 6.5001 2.7 6.5001H15.3C15.7142 6.5001 16.05 6.83589 16.05 7.2501C16.05 7.66431 15.7142 8.0001 15.3 8.0001H2.7C2.28579 8.0001 1.95 7.66431 1.95 7.2501Z" fill="white"/>
<path fill-rule="evenodd" clip-rule="evenodd" d="M1.95 11.7501C1.95 11.3359 2.28579 11.0001 2.7 11.0001H15.3C15.7142 11.0001 16.05 11.3359 16.05 11.7501C16.05 12.1643 15.7142 12.5001 15.3 12.5001H2.7C2.28579 12.5001 1.95 12.1643 1.95 11.7501Z" fill="white"/>
<path fill-rule="evenodd" clip-rule="evenodd" d="M9.02206 2.11383C9.37346 2.33312 9.48056 2.79576 9.26127 3.14716C8.0721 5.05277 7.44165 7.25389 7.44165 9.5001C7.44165 11.7463 8.0721 13.9474 9.26127 15.853C9.48056 16.2044 9.37346 16.6671 9.02206 16.8864C8.67065 17.1057 8.20802 16.9986 7.98873 16.6472C6.65091 14.5034 5.94165 12.0271 5.94165 9.5001C5.94165 6.97311 6.65091 4.49685 7.98873 2.35304C8.20802 2.00164 8.67065 1.89454 9.02206 2.11383Z" fill="white"/>
<path fill-rule="evenodd" clip-rule="evenodd" d="M8.97794 2.11383C9.32935 1.89454 9.79198 2.00164 10.0113 2.35304C11.3491 4.49685 12.0583 6.97311 12.0583 9.5001C12.0583 12.0271 11.3491 14.5034 10.0113 16.6472C9.79198 16.9986 9.32935 17.1057 8.97794 16.8864C8.62654 16.6671 8.51944 16.2044 8.73873 15.853C9.9279 13.9474 10.5583 11.7463 10.5583 9.5001C10.5583 7.25389 9.9279 5.05277 8.73873 3.14716C8.51944 2.79576 8.62654 2.33312 8.97794 2.11383Z" fill="white"/>
</svg>
