<svg width="20" height="20" viewBox="0 0 20 20" fill="none" xmlns="http://www.w3.org/2000/svg">
<path fill-rule="evenodd" clip-rule="evenodd" d="M3.3335 10C3.3335 9.53981 3.70659 9.16671 4.16683 9.16671H15.8335C16.2937 9.16671 16.6668 9.53981 16.6668 10C16.6668 10.4603 16.2937 10.8334 15.8335 10.8334H4.16683C3.70659 10.8334 3.3335 10.4603 3.3335 10Z" fill="#454056"/>
<path fill-rule="evenodd" clip-rule="evenodd" d="M16.4227 9.41079C16.7482 9.73623 16.7482 10.2639 16.4227 10.5893L13.0894 13.9226C12.764 14.2481 12.2363 14.2481 11.9109 13.9226C11.5855 13.5972 11.5855 13.0696 11.9109 12.7441L15.2442 9.41079C15.5697 9.08536 16.0973 9.08536 16.4227 9.41079Z" fill="#454056"/>
<path fill-rule="evenodd" clip-rule="evenodd" d="M11.9109 6.07745C12.2363 5.75201 12.764 5.75201 13.0894 6.07745L16.4227 9.41079C16.7482 9.73623 16.7482 10.2639 16.4227 10.5893C16.0973 10.9147 15.5697 10.9147 15.2442 10.5893L11.9109 7.25596C11.5855 6.93053 11.5855 6.40289 11.9109 6.07745Z" fill="#454056"/>
</svg>
