<svg width="20" height="20" viewBox="0 0 20 20" fill="none" xmlns="http://www.w3.org/2000/svg">
<path fill-rule="evenodd" clip-rule="evenodd" d="M2.74104 3.86717C2.86493 3.54555 3.17402 3.33337 3.51868 3.33337H11.852C12.1105 3.33337 12.3544 3.45335 12.5122 3.65814L15.9657 8.14107H16.4816C17.2042 8.14107 17.8904 8.43942 18.3914 8.95962C18.8913 9.47875 19.1668 10.1764 19.1668 10.8975V14.7436C19.1668 14.9646 19.079 15.1766 18.9228 15.3329C18.7665 15.4892 18.5545 15.577 18.3335 15.577L17.1892 15.577C16.8483 16.6779 15.8494 17.5 14.6298 17.5C13.4101 17.5 12.4113 16.678 12.0704 15.577H7.92996C7.58902 16.678 6.59018 17.5 5.37052 17.5C4.15087 17.5 3.15203 16.678 2.81109 15.577L1.66683 15.577C1.44582 15.577 1.23385 15.4892 1.07757 15.3329C0.921294 15.1766 0.833496 14.9646 0.833496 14.7436V8.9744C0.833496 8.87198 0.852376 8.77044 0.88919 8.67487L2.74104 3.86717ZM2.81109 13.9103C3.15203 12.8093 4.15087 11.9872 5.37052 11.9872C6.59018 11.9872 7.58902 12.8093 7.92996 13.9103H12.0704C12.4113 12.8093 13.4101 11.9872 14.6298 11.9872C15.8494 11.9872 16.8483 12.8093 17.1892 13.9103H17.5002V10.8975C17.5002 10.5985 17.3855 10.3179 17.1908 10.1157C16.9972 9.9146 16.7414 9.80773 16.4816 9.80773H2.50016V13.9103H2.81109ZM2.88083 8.14107H9.16683V5.00004H4.09071L2.88083 8.14107ZM10.8335 5.00004V8.14107H13.8618L11.4421 5.00004H10.8335ZM5.37052 13.6539C4.83737 13.6539 4.35201 14.1119 4.35201 14.7436C4.35201 15.3754 4.83737 15.8334 5.37052 15.8334C5.90367 15.8334 6.38904 15.3754 6.38904 14.7436C6.38904 14.1119 5.90367 13.6539 5.37052 13.6539ZM14.6298 13.6539C14.0966 13.6539 13.6113 14.1119 13.6113 14.7436C13.6113 15.3754 14.0966 15.8334 14.6298 15.8334C15.1629 15.8334 15.6483 15.3754 15.6483 14.7436C15.6483 14.1119 15.1629 13.6539 14.6298 13.6539Z" fill="white"/>
</svg>
