<svg width="98" height="58" viewBox="0 0 98 58" fill="none" xmlns="http://www.w3.org/2000/svg">
<path d="M97.4116 39.8185L95.4501 28.2457C95.0578 26.2842 93.4886 24.5188 91.5271 24.1265L75.6389 20.5958C74.8543 20.3996 74.0697 20.0074 73.4812 19.4189L60.3392 5.29607C57.2008 1.96151 52.8855 0 48.1779 0H24.0514C14.6362 0 6.59392 6.66911 4.82857 16.0843L0.121031 41.78C-0.27127 43.5454 0.317205 45.3107 1.49411 46.6838C2.67101 48.0568 4.43629 48.8415 6.20165 48.8415H7.37862C9.34012 53.7452 14.0477 57.2759 19.7361 57.2759C25.2283 57.2759 30.132 53.7452 32.0935 48.8415H65.0468C67.0083 53.7452 71.7159 57.2759 77.4042 57.2759C82.8964 57.2759 87.8003 53.7452 89.7618 48.8415H91.5271C93.2924 48.8415 94.8616 48.253 96.0385 46.88C97.2154 45.7031 98 44.1338 98 42.3685L97.4116 39.8185ZM6.20165 47.4684C4.82859 47.4684 3.65171 46.88 2.67096 45.8992C1.88636 44.9185 1.49406 43.5454 1.69021 42.1723L1.88631 40.9954H6.79007C6.59392 41.9762 6.39787 43.1531 6.39787 44.1338C6.39787 45.3107 6.59392 46.2915 6.79007 47.4684H6.20165ZM30.7204 47.4684C30.7204 47.6645 30.5243 48.0569 30.5243 48.253C30.5243 48.4492 30.3282 48.8414 30.132 49.0376C28.3667 53.1567 24.2475 55.9029 19.5398 55.9029C14.8322 55.9029 10.7132 53.1567 8.9478 49.0376C8.75165 48.8414 8.75162 48.4492 8.55547 48.253C8.55547 48.0569 8.35937 47.6645 8.35937 47.4684C7.96707 46.4876 7.77082 45.3107 7.77082 44.1338C7.77082 42.9569 7.96707 41.9762 8.35937 40.9954C8.35937 40.7993 8.55547 40.407 8.55547 40.2108C8.55547 40.0147 8.75158 39.6224 8.75158 39.4262C10.5169 35.3071 14.6361 32.3648 19.3437 32.3648C24.0514 32.3648 28.1706 35.3071 29.9359 39.4262C30.1321 39.6224 30.132 40.0147 30.132 40.2108C30.132 40.407 30.3281 40.7993 30.3281 40.9954C30.5243 41.9762 30.9167 43.1531 30.9167 44.1338C31.1128 45.3107 30.9166 46.2915 30.7204 47.4684ZM32.2896 47.4684C32.4858 46.4876 32.6819 45.3107 32.6819 44.1338C32.6819 42.9569 32.4858 41.9762 32.2896 40.9954H64.2622C64.0661 41.9762 63.8699 43.1531 63.8699 44.1338C63.8699 45.3107 64.0661 46.2915 64.2622 47.4684H32.2896ZM88.1925 47.4684C88.1925 47.6645 87.9964 48.0569 87.9964 48.253C87.9964 48.4492 87.8002 48.8414 87.6041 49.0376C85.8387 53.1567 81.7196 55.9029 77.012 55.9029C72.3044 55.9029 68.1852 53.1567 66.4198 49.0376C66.2237 48.8414 66.2237 48.4492 66.0275 48.253C66.0275 48.0569 65.8314 47.6645 65.8314 47.4684C65.4391 46.4876 65.243 45.3107 65.243 44.1338C65.243 42.9569 65.4391 41.9762 65.8314 40.9954C65.8314 40.7993 66.0275 40.407 66.0275 40.2108C66.0275 40.0147 66.2237 39.6224 66.2237 39.4262C67.9891 35.3071 72.1082 32.3648 76.8158 32.3648C81.5234 32.3648 85.6426 35.3071 87.408 39.4262C87.6041 39.6224 87.6041 40.0147 87.6041 40.2108C87.6041 40.407 87.8003 40.7993 87.8003 40.9954C87.9964 41.9762 88.3887 43.1531 88.3887 44.1338C88.781 45.3107 88.5848 46.2915 88.1925 47.4684ZM77.012 30.9918C71.3236 30.9918 66.6159 34.5225 64.6544 39.4262H31.7012C29.7397 34.5225 25.0321 30.9918 19.3437 30.9918C13.6554 30.9918 8.9478 34.5225 6.98629 39.4262H1.88631L3.65171 29.4226H7.96705C8.35935 29.4226 8.75158 29.0303 8.75158 28.638C8.75158 28.2457 8.35935 27.8533 7.96705 27.8533H4.04404L4.43636 25.4995H8.35937C8.75167 25.4995 9.1439 25.1073 9.1439 24.715C9.1439 24.3227 8.75167 23.9303 8.35937 23.9303H4.63247L6.00554 16.0843C7.57475 7.45371 15.0285 1.37306 23.6591 1.37306H47.7855C51.9047 1.37306 56.0238 3.13842 58.7699 6.08067L71.912 20.2035C72.6966 20.9881 73.6774 21.5766 74.8543 21.7727L90.7425 25.3034C92.1156 25.4996 93.0963 26.4803 93.2925 27.8533H87.408C87.0156 27.8533 86.6233 28.2457 86.6233 28.638C86.6233 29.0303 87.0156 29.4226 87.408 29.4226H93.4886L95.254 39.2301H88.781C87.408 34.5225 82.7004 30.9918 77.012 30.9918ZM95.8424 42.5646C95.8424 43.9377 95.2539 45.1146 94.4693 46.0953C93.4886 47.0761 92.3117 47.4684 90.9386 47.4684H89.7618C89.9579 46.4876 90.154 45.3107 90.154 44.1338C90.154 42.9569 89.9579 41.9762 89.7618 40.9954H95.8424V42.5646Z" fill="url(#paint0_linear_0_1268)"/>
<path d="M32.8795 24.1289H28.9565C28.5642 24.1289 28.1719 24.5212 28.1719 24.9135C28.1719 25.3058 28.5642 25.6981 28.9565 25.6981H32.8795C33.2718 25.6981 33.6641 25.3058 33.6641 24.9135C33.6641 24.5212 33.2718 24.1289 32.8795 24.1289Z" fill="url(#paint1_linear_0_1268)"/>
<path d="M83.4822 40.2112C83.2861 40.0151 83.09 39.6228 82.8938 39.4266C81.5207 37.6613 79.3631 36.4844 77.0093 36.4844C74.6555 36.4844 72.4978 37.6613 71.1248 39.4266C70.9286 39.6228 70.7324 40.0151 70.5362 40.2112C70.3401 40.4074 70.3402 40.7997 70.144 40.9958C69.7517 41.9766 69.3594 42.9573 69.3594 44.1342C69.3594 45.3111 69.7517 46.488 70.144 47.4688C70.3402 47.6649 70.3401 48.0572 70.5362 48.2534C70.7324 48.4495 70.9286 48.8418 71.1248 49.038C72.4978 50.8033 74.6555 51.7841 77.0093 51.7841C79.3631 51.7841 81.5207 50.6072 82.8938 49.038C83.09 48.8418 83.2861 48.6457 83.4822 48.2534C83.6784 48.0572 83.6784 47.6649 83.8746 47.4688C84.2669 46.488 84.6591 45.3111 84.6591 44.1342C84.6591 42.9573 84.463 41.9766 83.8746 40.9958C83.8746 40.6035 83.6784 40.4074 83.4822 40.2112ZM82.1092 47.4688C81.913 47.6649 81.7169 48.0572 81.5207 48.2534C81.3246 48.4495 80.9322 48.8418 80.7361 49.038C79.7553 49.8226 78.3823 50.2149 77.0093 50.2149C75.6362 50.2149 74.4593 49.8226 73.2824 49.038C72.8901 48.8418 72.6939 48.6457 72.4977 48.2534C72.3016 48.0572 72.1055 47.8611 71.9093 47.4688C71.3209 46.488 70.9286 45.3111 70.9286 44.1342C70.9286 42.9573 71.3209 41.9766 71.9093 40.9958C72.1055 40.7997 72.3016 40.4074 72.4977 40.2112C72.6939 40.0151 73.0862 39.6228 73.2824 39.4266C74.2631 38.642 75.6362 38.0536 77.0093 38.0536C78.3823 38.0536 79.7553 38.642 80.7361 39.4266C80.9322 39.6228 81.3246 39.8189 81.5207 40.2112C81.7169 40.4074 81.913 40.6035 82.1092 40.9958C82.6976 41.9766 83.0899 42.9573 83.0899 44.1342C83.0899 45.3111 82.6976 46.488 82.1092 47.4688Z" fill="url(#paint2_linear_0_1268)"/>
<path d="M26.0135 40.2112C25.8173 40.0151 25.6211 39.6228 25.4249 39.4266C24.0519 37.6613 21.8942 36.4844 19.5404 36.4844C17.1866 36.4844 15.029 37.6613 13.6559 39.4266C13.4598 39.6228 13.2636 40.0151 13.0675 40.2112C12.8713 40.4074 12.8713 40.7997 12.6752 40.9958C12.2829 41.9766 11.8906 42.9573 11.8906 44.1342C11.8906 45.3111 12.2829 46.488 12.6752 47.4688C12.8713 47.6649 12.8713 48.0572 13.0675 48.2534C13.2636 48.4495 13.4598 48.8418 13.6559 49.038C15.029 50.8033 17.1866 51.7841 19.5404 51.7841C21.8942 51.7841 24.0519 50.6072 25.4249 49.038C25.6211 48.8418 25.8173 48.6457 26.0135 48.2534C26.2096 48.0572 26.2095 47.6649 26.4057 47.4688C26.798 46.488 27.1903 45.3111 27.1903 44.1342C27.1903 42.9573 26.9941 41.9766 26.4057 40.9958C26.2095 40.6035 26.0135 40.4074 26.0135 40.2112ZM24.6404 47.4688C24.4443 47.6649 24.2481 48.0572 24.052 48.2534C23.8558 48.4495 23.4635 48.8418 23.2673 49.038C22.2866 49.8226 20.9135 50.2149 19.5404 50.2149C18.1674 50.2149 16.9905 49.8226 15.8136 49.038C15.4213 48.8418 15.2251 48.6457 15.029 48.2534C14.8328 48.0572 14.6367 47.8611 14.4406 47.4688C13.8521 46.488 13.4598 45.3111 13.4598 44.1342C13.4598 42.9573 13.8521 41.9766 14.4406 40.9958C14.6367 40.7997 14.8328 40.4074 15.029 40.2112C15.2251 40.0151 15.6175 39.6228 15.8136 39.4266C16.7944 38.642 18.1674 38.0536 19.5404 38.0536C20.9135 38.0536 22.2866 38.642 23.2673 39.4266C23.4635 39.6228 23.8558 39.8189 24.052 40.2112C24.2481 40.4074 24.4443 40.6035 24.6404 40.9958C25.2289 41.9766 25.6212 42.9573 25.6212 44.1342C25.6212 45.3111 25.2289 46.488 24.6404 47.4688Z" fill="url(#paint3_linear_0_1268)"/>
<path d="M67.7914 19.6164L57.7876 8.04355C55.2377 5.10129 51.5109 3.33594 47.5879 3.33594H26.2074C21.4998 3.33594 17.1846 6.08204 15.2231 10.5935L13.2616 15.1049C12.6731 16.2818 12.8692 17.8511 13.4577 19.028C14.2423 20.2049 15.4192 20.9895 16.7923 20.9895L66.4183 22.5587C67.0067 22.5587 67.5952 22.1664 67.9875 21.5779C68.1836 20.9895 68.1837 20.2049 67.7914 19.6164ZM16.7923 19.4203C15.8115 19.4203 15.0268 19.028 14.6345 18.2434C14.2422 17.4588 14.0461 16.478 14.4384 15.6934L16.3999 11.182C17.5768 8.43585 19.9307 6.27819 22.6768 5.49359L24.8344 19.8126L16.7923 19.4203ZM66.4183 20.9895L26.4036 19.8126L24.2459 5.10129C24.8344 4.90514 25.4229 4.90513 26.0113 4.90513H47.3917C50.9224 4.90513 54.257 6.47435 56.6108 9.0243L66.6144 20.5972L66.4183 20.9895Z" fill="url(#paint4_linear_0_1268)"/>
<defs>
<linearGradient id="paint0_linear_0_1268" x1="0" y1="57.2759" x2="24.7275" y2="-28.6704" gradientUnits="userSpaceOnUse">
<stop stop-color="#5D3CF2"/>
<stop offset="1" stop-color="#FD5631"/>
</linearGradient>
<linearGradient id="paint1_linear_0_1268" x1="28.1719" y1="25.6981" x2="28.5235" y2="23.198" gradientUnits="userSpaceOnUse">
<stop stop-color="#5D3CF2"/>
<stop offset="1" stop-color="#FD5631"/>
</linearGradient>
<linearGradient id="paint2_linear_0_1268" x1="69.3594" y1="51.7841" x2="79.2096" y2="31.7745" gradientUnits="userSpaceOnUse">
<stop stop-color="#5D3CF2"/>
<stop offset="1" stop-color="#FD5631"/>
</linearGradient>
<linearGradient id="paint3_linear_0_1268" x1="11.8906" y1="51.7841" x2="21.7409" y2="31.7745" gradientUnits="userSpaceOnUse">
<stop stop-color="#5D3CF2"/>
<stop offset="1" stop-color="#FD5631"/>
</linearGradient>
<linearGradient id="paint4_linear_0_1268" x1="12.9062" y1="22.5587" x2="18.1067" y2="-7.78266" gradientUnits="userSpaceOnUse">
<stop stop-color="#5D3CF2"/>
<stop offset="1" stop-color="#FD5631"/>
</linearGradient>
</defs>
</svg>
