<svg width="128" height="46" viewBox="0 0 128 46" fill="none" xmlns="http://www.w3.org/2000/svg">
<path d="M127.145 20.9396C125.501 17.6514 122.03 15.6419 117.646 15.4592L90.609 12.9017C88.2342 12.9017 86.042 12.171 84.0325 10.7095L74.7159 4.31576C74.3505 4.13308 73.9852 3.76772 73.4371 3.40236C68.8701 0.114135 67.9567 -0.25123 67.4087 0.114129C67.0433 0.296808 66.8606 0.662178 66.678 1.21022L66.4953 1.57557C66.1299 2.30629 66.1299 3.21969 66.8607 3.95041L76.1773 11.6229L76.36 11.9883L75.9946 12.171L46.0352 11.0749L43.4777 5.22916C43.1123 4.31576 42.1989 3.76772 41.2855 3.76772C40.5548 3.76772 39.8241 4.13308 39.4588 4.68111C39.0934 5.22915 38.9107 5.95988 39.0934 6.6906L40.1895 10.8922L14.4317 9.97883C13.3356 9.97883 12.0568 9.97883 10.9608 9.97883H7.85519C5.84572 9.97883 3.83624 10.7095 2.37481 12.171C0.913375 13.6324 0 15.4592 0 17.6514V24.2278C0 31.9003 6.21112 38.2941 14.0663 38.2941H15.5277C17.5372 42.4958 21.7389 45.6013 26.6712 45.6013C31.6035 45.6013 35.9879 42.6784 37.8147 38.2941H91.157C93.1665 42.4958 97.3681 45.6013 102.3 45.6013C107.415 45.6013 111.617 42.4958 113.627 38.2941C118.376 37.7461 122.578 35.5539 125.318 31.9004C125.866 31.1696 126.231 30.4389 126.597 29.7082H126.779V29.5255C128.241 26.2373 128.424 23.3144 127.145 20.9396ZM40.5548 5.41185C40.9202 4.86381 41.8336 5.04647 42.1989 5.59451L44.3911 10.8922L41.4682 10.7095L40.3722 6.14255C40.3722 5.95987 40.3722 5.77721 40.5548 5.41185ZM14.797 36.65H13.8836C8.9513 36.65 4.56697 33.7271 2.5575 29.5255H14.9797C14.6144 30.6216 14.4317 31.9004 14.4317 33.1791C14.249 34.2752 14.6144 35.3713 14.797 36.65ZM36.9013 36.65C36.7186 37.198 36.5359 37.5634 36.3532 38.1114C34.5264 41.5824 30.8728 43.9572 26.8539 43.9572C22.6523 43.9572 18.9987 41.5824 17.3545 38.1114C17.1719 37.7461 16.9892 37.198 16.8065 36.65C16.4412 35.5539 16.0758 34.2752 16.0758 32.9964C16.0758 31.7177 16.2585 30.4389 16.8065 29.3428C16.9892 28.7948 17.1719 28.4294 17.3545 27.8814C19.1813 24.4105 22.8349 22.0357 26.8539 22.0357C31.0555 22.0357 34.5264 24.4105 36.3532 27.8814C36.5359 28.2467 36.7186 28.7948 36.9013 29.3428C37.2666 30.4389 37.632 31.7177 37.632 32.9964C37.4493 34.2752 37.2666 35.3713 36.9013 36.65ZM90.609 36.65H38.3627C38.728 35.5539 38.9107 34.2752 38.9107 32.9964C38.9107 31.7177 38.728 30.4389 38.3627 29.3428H90.7917C90.4263 30.4389 90.2436 31.7177 90.2436 32.9964C90.2436 34.2752 90.4263 35.3713 90.609 36.65ZM112.713 36.4673C112.531 37.0154 112.348 37.3807 112.165 37.9288C110.338 41.3997 106.685 43.7745 102.483 43.7745C98.2815 43.7745 94.6279 41.3997 92.9838 37.9288C92.8011 37.5634 92.6185 37.0154 92.4358 36.4673C92.0704 35.3713 91.7051 34.0925 91.7051 32.8138C91.7051 31.535 91.8877 30.2562 92.4358 29.1602C92.6185 28.6121 92.8011 28.2468 92.9838 27.6987C94.8106 24.2278 98.4642 21.853 102.483 21.853C106.502 21.853 110.156 24.2278 111.982 27.6987C112.165 28.0641 112.348 28.6121 112.531 29.1602C112.896 30.2562 113.261 31.535 113.261 32.8138C113.261 34.2752 113.079 35.3713 112.713 36.4673ZM124.222 30.6216C121.847 33.7271 118.376 35.7366 114.175 36.2847C114.54 35.1886 114.723 34.0925 114.723 32.8138C114.723 31.535 114.54 30.2562 114.175 29.1602H125.135C124.77 29.7082 124.587 30.2562 124.222 30.6216ZM125.866 27.8814H113.627C111.617 23.6798 107.415 20.5742 102.483 20.5742C97.5508 20.5742 93.1665 23.4971 91.3397 27.8814H37.8147C35.8052 23.6798 31.6035 20.5742 26.6712 20.5742C21.7389 20.5742 17.3545 23.4971 15.5277 27.8814H2.00948C1.64413 26.7853 1.46141 25.6892 1.46141 24.4105H5.115C5.48036 24.4105 5.84576 24.0451 5.84576 23.6798C5.84576 23.3144 5.48036 22.9491 5.115 22.9491H1.46141V18.3821H5.115C5.48036 18.3821 5.84576 18.0167 5.84576 17.6514C5.84576 17.286 5.48036 16.9206 5.115 16.9206H1.6441C1.82678 15.4592 2.37482 13.9978 3.4709 12.9017C4.56697 11.8056 6.21112 11.2576 7.67256 11.2576H7.85519H10.9608C12.0568 11.2576 13.1529 11.2576 14.249 11.2576L75.9946 13.6324C76.7253 13.6324 77.4561 13.267 77.6387 12.5363C77.8214 11.8056 77.6388 11.0749 77.0907 10.5268L67.7741 3.03701C67.5914 2.85433 67.5914 2.48897 67.7741 2.30629L67.9567 1.94092L68.1394 1.57557C69.0528 1.94093 71.6103 3.76773 72.7064 4.49845C73.2544 4.86381 73.6198 5.22917 73.9851 5.41185L83.3018 11.6229C85.494 13.267 88.0515 13.9978 90.609 14.1804L117.646 16.738C120.751 16.9206 123.491 18.1994 125.135 20.2089H118.194C117.828 20.2089 117.463 20.5742 117.463 20.9396C117.463 21.305 117.828 21.6703 118.194 21.6703H126.049C126.779 23.4971 126.779 25.6892 125.866 27.8814Z" fill="url(#paint0_linear_0_1278)"/>
<path d="M107.416 27.8874C106.137 26.6086 104.493 25.8779 102.484 25.8779C100.657 25.8779 98.8303 26.6086 97.5515 27.8874C97.1861 28.2527 96.8208 28.8008 96.4554 29.3488C95.7247 30.4449 95.3594 31.7237 95.3594 33.0024C95.3594 34.2812 95.7247 35.5599 96.4554 36.656C96.8208 37.204 97.1861 37.5694 97.5515 38.1174C98.8303 39.3962 100.657 40.1269 102.484 40.1269C104.493 40.1269 106.137 39.3962 107.416 38.1174C107.782 37.7521 108.147 37.204 108.512 36.656C109.06 35.5599 109.608 34.4639 109.608 33.0024C109.608 31.7237 109.243 30.4449 108.512 29.3488C108.147 28.8008 107.782 28.4354 107.416 27.8874ZM106.685 36.656C106.137 37.204 105.589 37.7521 104.859 38.1174C104.128 38.4828 103.215 38.8482 102.301 38.8482C101.388 38.8482 100.474 38.6655 99.7437 38.1174C99.013 37.7521 98.4649 37.204 97.9169 36.656C97.1862 35.7426 96.6381 34.4639 96.6381 33.0024C96.6381 31.541 97.1862 30.4449 97.9169 29.3488C98.4649 28.8008 99.013 28.2527 99.7437 27.8874C100.474 27.522 101.388 27.3394 102.301 27.3394C103.215 27.3394 103.945 27.522 104.859 27.8874C105.589 28.2527 106.137 28.8008 106.685 29.3488C107.599 30.2622 107.964 31.541 107.964 33.0024C108.147 34.2812 107.599 35.5599 106.685 36.656Z" fill="url(#paint1_linear_0_1278)"/>
<path d="M50.2367 16.5552H46.5831C46.2178 16.5552 45.8524 16.9206 45.8524 17.2859C45.8524 17.6513 46.2178 18.0166 46.5831 18.0166H50.2367C50.6021 18.0166 50.9674 17.6513 50.9674 17.2859C50.9674 16.9206 50.6021 16.5552 50.2367 16.5552Z" fill="url(#paint2_linear_0_1278)"/>
<path d="M31.604 27.8874C30.3253 26.6086 28.6812 25.8779 26.6717 25.8779C24.8449 25.8779 23.0181 26.6086 21.7394 27.8874C21.374 28.2527 21.0086 28.8008 20.6433 29.3488C19.9126 30.4449 19.5472 31.7237 19.5472 33.0024C19.5472 34.2812 19.9126 35.5599 20.6433 36.656C21.0086 37.204 21.374 37.5694 21.7394 38.1174C23.0181 39.3962 24.8449 40.1269 26.6717 40.1269C28.4985 40.1269 30.3253 39.3962 31.604 38.1174C31.9694 37.7521 32.3348 37.204 32.7001 36.656C33.2482 35.5599 33.7962 34.4639 33.7962 33.0024C33.7962 31.7237 33.4308 30.4449 32.7001 29.3488C32.3348 28.8008 31.9694 28.4354 31.604 27.8874ZM30.8733 36.656C30.3253 37.204 29.7773 37.7521 29.0465 38.1174C28.3158 38.4828 27.4024 38.8482 26.489 38.8482C25.5756 38.8482 24.6623 38.6655 23.9315 38.1174C23.2008 37.7521 22.6528 37.204 22.1047 36.656C21.374 35.7426 20.826 34.4639 20.826 33.0024C20.826 31.541 21.374 30.4449 22.1047 29.3488C22.6528 28.8008 23.2008 28.2527 23.9315 27.8874C24.6623 27.522 25.5756 27.3394 26.489 27.3394C27.4024 27.3394 28.1331 27.522 29.0465 27.8874C29.7773 28.2527 30.3253 28.8008 30.8733 29.3488C31.7867 30.2622 32.1521 31.541 32.1521 33.0024C32.3348 34.2812 31.7867 35.5599 30.8733 36.656Z" fill="url(#paint3_linear_0_1278)"/>
<defs>
<linearGradient id="paint0_linear_0_1278" x1="0" y1="45.6013" x2="12.6063" y2="-26.2798" gradientUnits="userSpaceOnUse">
<stop stop-color="#5D3CF2"/>
<stop offset="1" stop-color="#FD5631"/>
</linearGradient>
<linearGradient id="paint1_linear_0_1278" x1="95.3594" y1="40.1269" x2="104.533" y2="21.4915" gradientUnits="userSpaceOnUse">
<stop stop-color="#5D3CF2"/>
<stop offset="1" stop-color="#FD5631"/>
</linearGradient>
<linearGradient id="paint2_linear_0_1278" x1="45.8524" y1="18.0166" x2="46.1799" y2="15.6882" gradientUnits="userSpaceOnUse">
<stop stop-color="#5D3CF2"/>
<stop offset="1" stop-color="#FD5631"/>
</linearGradient>
<linearGradient id="paint3_linear_0_1278" x1="19.5472" y1="40.1269" x2="28.721" y2="21.4915" gradientUnits="userSpaceOnUse">
<stop stop-color="#5D3CF2"/>
<stop offset="1" stop-color="#FD5631"/>
</linearGradient>
</defs>
</svg>
