<svg width="125" height="49" viewBox="0 0 125 49" fill="none" xmlns="http://www.w3.org/2000/svg">
<path d="M115.174 16.5808L88.4309 14.0848C87.7178 14.0848 86.8264 13.7282 86.1132 13.5499L67.393 4.6355C61.1529 1.6046 54.0214 0 47.0681 0C34.5879 0 22.6426 4.63551 13.5499 12.8368C13.1933 13.0151 12.8367 13.1933 12.4802 13.1933L7.66642 13.3716C5.70525 13.1933 3.74408 14.0848 2.31778 15.5111C0.891473 16.9374 0 18.7203 0 20.8597V27.2781C0 34.7662 6.06182 41.0063 13.7282 41.0063H15.1545C17.1157 45.1069 21.2163 48.1378 26.0301 48.1378C30.8439 48.1378 35.1228 45.2852 36.9057 41.0063H93.0664C95.0276 45.1069 99.1282 48.1378 103.942 48.1378C109.112 48.1378 113.391 44.9286 115.174 40.4714C120.879 38.8668 124.98 33.5182 124.98 27.4564C125.337 21.2163 120.879 16.7591 115.174 16.5808ZM14.7979 39.2234H13.9065C9.09273 39.2234 4.81379 36.3708 2.85262 32.2702H14.9762C14.6197 33.3399 14.4414 34.5879 14.4414 35.8359C14.2631 36.9057 14.4414 37.9754 14.7979 39.2234ZM36.3708 39.2234C36.1925 39.7583 36.0142 40.1149 35.8359 40.6497C34.053 44.0372 30.4873 46.3549 26.3867 46.3549C22.2861 46.3549 18.7203 44.0372 17.1157 40.6497C16.9374 40.2932 16.7591 39.7583 16.5808 39.2234C16.2243 38.1537 15.8677 36.9056 15.8677 35.6576C15.8677 34.4096 16.046 33.1616 16.5808 32.0919C16.7591 31.557 16.9374 31.2005 17.1157 30.6656C18.8986 27.2781 22.4643 24.9603 26.3867 24.9603C30.4873 24.9603 33.8747 27.2781 35.6576 30.6656C35.8359 31.0222 36.0142 31.557 36.1925 32.0919C36.5491 33.1616 36.9057 34.4096 36.9057 35.6576C36.9057 36.9056 36.7274 38.1537 36.3708 39.2234ZM92.8881 39.2234H37.7971C38.1537 38.1537 38.332 36.9056 38.332 35.6576C38.332 34.4096 38.1537 33.1616 37.7971 32.0919H92.8881C92.5316 33.1616 92.3533 34.4096 92.3533 35.6576C92.3533 36.9056 92.5316 37.9754 92.8881 39.2234ZM114.283 38.8669C114.104 39.4017 113.926 39.9366 113.748 40.2931C111.965 43.8589 108.399 46.1766 104.299 46.1766C100.198 46.1766 96.6322 43.8589 95.0276 40.4714C94.8493 40.1149 94.671 39.58 94.4927 39.0451C94.1361 37.9754 93.7796 36.7274 93.7796 35.4794C93.7796 34.2313 93.9579 32.9833 94.4927 31.9136C94.671 31.3787 94.8493 31.0222 95.0276 30.4873C96.8105 27.0998 100.376 24.7821 104.299 24.7821C108.399 24.7821 111.787 27.0998 113.57 30.4873C113.748 30.8439 113.926 31.3787 114.104 31.9136C114.461 32.9833 114.818 34.2313 114.818 35.4794C114.818 36.7274 114.639 37.7971 114.283 38.8669ZM115.887 38.332C116.066 37.4405 116.244 36.5491 116.244 35.6576C116.244 34.4096 116.066 33.1616 115.709 32.0919H122.662C121.414 34.9445 118.918 37.2622 115.887 38.332ZM115.174 30.6656C113.213 26.565 109.112 23.5341 104.299 23.5341C99.4848 23.5341 95.2059 26.3867 93.423 30.6656H37.2623C35.3011 26.565 31.2005 23.5341 26.3867 23.5341C21.5729 23.5341 17.294 26.3867 15.5111 30.6656H2.31778C1.9612 29.5959 1.78288 28.5261 1.78288 27.2781H5.34864C5.70522 27.2781 6.06184 26.9215 6.06184 26.565C6.06184 26.2084 5.70522 25.8518 5.34864 25.8518H1.78288V21.3946H5.34864C5.70522 21.3946 6.06184 21.038 6.06184 20.6814C6.06184 20.3249 5.70522 19.9683 5.34864 19.9683H1.96118C2.13947 18.542 2.67433 17.1157 3.74406 16.0459C4.81379 14.9762 6.41842 14.4414 7.84472 14.4414H8.02297L12.8368 14.2631C13.3716 14.2631 14.0848 14.0848 14.6197 13.7282C23.5341 5.70524 35.3011 1.24804 47.4247 1.24804C54.1996 1.24804 60.9746 2.85263 67.2147 5.70524L85.9349 14.6197C86.8264 14.9762 87.7178 15.3328 88.6092 15.3328L115.352 17.8288C118.562 18.0071 121.236 19.6117 122.662 22.1077H115.709C115.352 22.1077 114.996 22.4643 114.996 22.8209C114.996 23.1775 115.352 23.5341 115.709 23.5341H123.375C123.732 24.6038 124.089 25.6735 124.089 26.9215C124.089 28.3478 123.91 29.5958 123.375 30.8439H115.174V30.6656Z" fill="url(#paint0_linear_0_1337)"/>
<path d="M109.111 30.6682C107.863 29.4202 106.258 28.707 104.297 28.707C102.514 28.707 100.731 29.4202 99.4832 30.6682C99.1267 31.0248 98.7701 31.5596 98.4135 32.0945C97.7003 33.1642 97.3438 34.4122 97.3438 35.6603C97.3438 36.9083 97.7003 38.1563 98.4135 39.226C98.7701 39.7609 99.1267 40.1175 99.4832 40.6524C100.731 41.9004 102.514 42.6135 104.297 42.6135C106.258 42.6135 107.863 41.9004 109.111 40.6524C109.467 40.2958 109.824 39.7609 110.181 39.226C110.715 38.1563 111.25 37.0866 111.25 35.6603C111.25 34.4122 110.894 33.1642 110.181 32.0945C109.824 31.5596 109.467 31.2031 109.111 30.6682ZM108.398 39.226C107.863 39.7609 107.328 40.2958 106.615 40.6524C105.902 41.0089 105.01 41.3655 104.119 41.3655C103.227 41.3655 102.336 41.1872 101.623 40.6524C100.91 40.2958 100.375 39.7609 99.8398 39.226C99.1266 38.3346 98.5918 37.0866 98.5918 35.6603C98.5918 34.234 99.1266 33.1642 99.8398 32.0945C100.375 31.5596 100.91 31.0248 101.623 30.6682C102.336 30.3116 103.227 30.1333 104.119 30.1333C105.01 30.1333 105.723 30.3116 106.615 30.6682C107.328 31.0248 107.863 31.5596 108.398 32.0945C109.289 32.9859 109.646 34.234 109.646 35.6603C109.824 37.0866 109.289 38.1563 108.398 39.226Z" fill="url(#paint1_linear_0_1337)"/>
<path d="M45.4634 19.6127H41.8977C41.5411 19.6127 41.1845 19.9693 41.1845 20.3258C41.1845 20.6824 41.5411 21.039 41.8977 21.039H45.4634C45.82 21.039 46.1766 20.6824 46.1766 20.3258C46.1766 19.9693 45.82 19.6127 45.4634 19.6127Z" fill="url(#paint2_linear_0_1337)"/>
<path d="M31.2006 30.6681C29.9526 29.4201 28.348 28.7069 26.3868 28.7069C24.4257 28.7069 22.821 29.4201 21.573 30.6681C21.2164 31.0247 20.8599 31.5595 20.5033 32.0944C19.7901 33.1641 19.4336 34.4121 19.4336 35.6601C19.4336 36.9082 19.7901 38.1562 20.5033 39.2259C20.8599 39.7608 21.2164 40.1174 21.573 40.6522C22.821 41.9003 24.6039 42.6134 26.3868 42.6134C28.348 42.6134 29.9526 41.9003 31.2006 40.6522C31.5571 40.2957 31.9137 39.7608 32.2703 39.2259C32.8052 38.1562 33.34 37.0864 33.34 35.6601C33.34 34.4121 32.9835 33.1641 32.2703 32.0944C31.9137 31.5595 31.5571 31.203 31.2006 30.6681ZM30.4874 39.2259C29.9526 39.7608 29.4177 40.2957 28.7045 40.6522C27.9914 41.0088 27.1 41.3654 26.2085 41.3654C25.3171 41.3654 24.4257 41.1871 23.7125 40.6522C22.9993 40.2957 22.4645 39.7608 21.9296 39.2259C21.2165 38.3345 20.6816 37.0864 20.6816 35.6601C20.6816 34.2338 21.2165 33.1641 21.9296 32.0944C22.4645 31.5595 22.9993 31.0247 23.7125 30.6681C24.4257 30.3115 25.3171 30.1332 26.2085 30.1332C27.1 30.1332 27.8131 30.3115 28.7045 30.6681C29.4177 31.0247 29.9526 31.5595 30.4874 32.0944C31.3789 32.9858 31.7355 34.2338 31.7355 35.6601C31.9138 37.0864 31.3789 38.1562 30.4874 39.2259Z" fill="url(#paint3_linear_0_1337)"/>
<path d="M77.9131 14.0887L62.2238 6.95712C59.906 5.8874 57.5882 5.17424 55.2705 4.63937C51.3481 3.74793 47.2475 3.56963 43.1469 4.46107L41.7206 4.63937C36.372 5.7091 31.3799 8.38343 27.6358 12.3058C27.101 12.8406 26.9227 13.7321 27.2793 14.4452C27.6358 15.1584 28.1707 15.6932 29.0622 15.6932L77.2 16.763C77.7348 16.763 78.2696 16.4064 78.4479 15.8715C78.8045 14.8018 78.448 14.2669 77.9131 14.0887ZM38.5114 14.2669L29.2405 14.0887C28.8839 14.0887 28.7056 13.7321 28.7056 13.7321C28.7056 13.7321 28.5273 13.3755 28.8839 13.1972C31.5582 10.3446 34.9456 8.20514 38.5114 6.95712V14.2669ZM39.7594 14.2669V6.42225C40.4726 6.24397 41.364 6.06567 42.0772 5.88738L43.5035 5.70911C45.2864 5.35254 46.891 5.17424 48.6738 5.17424C50.8133 5.17424 52.9528 5.35252 55.0922 5.88738C57.41 6.42225 59.7277 7.13541 61.8672 8.20514L76.8434 15.1584L39.7594 14.2669Z" fill="url(#paint4_linear_0_1337)"/>
<defs>
<linearGradient id="paint0_linear_0_1337" x1="0" y1="48.1378" x2="14.313" y2="-27.362" gradientUnits="userSpaceOnUse">
<stop stop-color="#5D3CF2"/>
<stop offset="1" stop-color="#FD5631"/>
</linearGradient>
<linearGradient id="paint1_linear_0_1337" x1="97.3438" y1="42.6135" x2="106.297" y2="24.426" gradientUnits="userSpaceOnUse">
<stop stop-color="#5D3CF2"/>
<stop offset="1" stop-color="#FD5631"/>
</linearGradient>
<linearGradient id="paint2_linear_0_1337" x1="41.1845" y1="21.039" x2="41.5041" y2="18.7665" gradientUnits="userSpaceOnUse">
<stop stop-color="#5D3CF2"/>
<stop offset="1" stop-color="#FD5631"/>
</linearGradient>
<linearGradient id="paint3_linear_0_1337" x1="19.4336" y1="42.6134" x2="28.3868" y2="24.4259" gradientUnits="userSpaceOnUse">
<stop stop-color="#5D3CF2"/>
<stop offset="1" stop-color="#FD5631"/>
</linearGradient>
<linearGradient id="paint4_linear_0_1337" x1="27.0938" y1="16.763" x2="29.635" y2="-3.86405" gradientUnits="userSpaceOnUse">
<stop stop-color="#5D3CF2"/>
<stop offset="1" stop-color="#FD5631"/>
</linearGradient>
</defs>
</svg>
