<svg width="138" height="65" viewBox="0 0 138 65" fill="none" xmlns="http://www.w3.org/2000/svg">
<g filter="url(#filter0_d_0_1326)">
<path d="M133.209 23.2687C132.427 22.0955 130.863 21.3133 128.516 20.9222C124.801 20.3356 117.958 19.9445 112.483 19.5535C108.767 19.3579 105.639 18.9669 104.466 18.9669C103.488 18.7713 102.706 18.5758 101.924 17.9892L92.7336 7.6259C88.4318 2.73753 82.1748 0 75.7221 0H28.0116C21.1679 0 14.9108 3.71521 11.5867 9.58124L6.11178 19.1624C3.76537 23.2687 3.37429 28.157 4.93856 32.4588L7.87158 40.6712C7.87158 41.2578 7.87158 42.04 7.87158 42.6266C7.67605 44.7775 7.67605 46.5373 8.84925 47.7105C9.43586 48.2971 10.4135 48.6882 11.7823 48.6882H18.4304C20.3858 53.5765 25.0787 57.0961 30.7492 57.0961C36.2241 57.0961 41.1125 53.5765 43.0678 48.6882H99.7729C101.728 53.5765 106.421 57.0961 112.092 57.0961C117.566 57.0961 122.455 53.5765 124.41 48.6882H131.645C131.841 48.6882 132.036 48.6882 132.232 48.4926C132.427 48.2971 132.427 48.1015 132.427 47.906V39.6936C132.427 36.7605 133.014 34.023 133.6 31.6766C133.796 28.157 134.578 25.224 133.209 23.2687ZM11.5867 47.1239C10.6091 47.1239 10.0225 46.9283 9.82693 46.5373C9.24032 45.9507 9.2403 44.3864 9.43583 42.6266C9.43583 42.04 9.43583 41.2578 9.43583 40.6712H17.8439C17.6483 41.6489 17.4528 42.8221 17.4528 43.7998C17.4528 44.973 17.6483 45.9506 17.8439 47.1239H11.5867ZM41.5036 47.1239C41.5036 47.3194 41.308 47.7104 41.308 47.906C41.308 48.1015 41.1125 48.4926 40.9169 48.6882C39.1571 52.7944 35.0509 55.5319 30.3581 55.5319C25.6652 55.5319 21.559 52.7944 19.7992 48.6882C19.6037 48.4926 19.6036 48.1015 19.4081 47.906C19.4081 47.7104 19.2126 47.3194 19.2126 47.1239C18.8215 46.1462 18.626 44.973 18.626 43.7998C18.626 42.6266 18.8215 41.6489 19.2126 40.6712C19.2126 40.4757 19.4081 40.0846 19.4081 39.8891C19.4081 39.6936 19.6037 39.3025 19.6037 39.1069C21.3635 35.0007 25.4697 32.0677 30.1625 32.0677C34.8553 32.0677 38.9616 35.0007 40.7214 39.1069C40.9169 39.3025 40.9169 39.6936 40.9169 39.8891C40.9169 40.0846 41.1125 40.4757 41.1125 40.6712C41.308 41.6489 41.699 42.8221 41.699 43.7998C42.0901 44.973 41.8946 45.9506 41.5036 47.1239ZM43.0678 47.1239C43.2633 46.1462 43.4589 44.973 43.4589 43.7998C43.4589 42.6266 43.2633 41.6489 43.0678 40.6712H98.7952C98.5996 41.6489 98.4041 42.8221 98.4041 43.7998C98.4041 44.973 98.5996 45.9506 98.7952 47.1239H43.0678ZM122.65 47.1239C122.65 47.3194 122.455 47.7104 122.455 47.906C122.455 48.1015 122.259 48.4926 122.064 48.6882C120.304 52.7944 116.198 55.5319 111.505 55.5319C106.812 55.5319 102.706 52.7944 100.946 48.6882C100.751 48.4926 100.751 48.1015 100.555 47.906C100.555 47.7104 100.359 47.3194 100.359 47.1239C99.9684 46.1462 99.7729 44.973 99.7729 43.7998C99.7729 42.6266 99.9684 41.6489 100.359 40.6712C100.359 40.4757 100.555 40.0846 100.555 39.8891C100.555 39.6936 100.751 39.3025 100.751 39.1069C102.51 35.0007 106.617 32.0677 111.309 32.0677C116.002 32.0677 120.108 35.0007 121.868 39.1069C122.064 39.3025 122.064 39.6936 122.064 39.8891C122.064 40.0846 122.259 40.4757 122.259 40.6712C122.455 41.6489 122.846 42.8221 122.846 43.7998C123.237 44.973 123.042 45.9506 122.65 47.1239ZM130.276 47.1239H124.215C124.41 46.1462 124.606 44.973 124.606 43.7998C124.606 42.6266 124.41 41.6489 124.215 40.6712H130.276V47.1239ZM131.645 31.2855C131.058 33.632 130.472 36.3694 130.472 39.1069H123.824C121.868 34.2186 117.175 30.699 111.505 30.699C105.834 30.699 101.142 34.2186 99.1863 39.1069H42.4812C40.5259 34.2186 35.833 30.699 30.1625 30.699C24.492 30.699 19.7992 34.2186 17.8439 39.1069H8.65371L6.11178 31.8722C5.52518 30.3079 5.32966 28.7436 5.32966 27.3748H10.0225C10.4135 27.3748 10.8046 26.9838 10.8046 26.5927C10.8046 26.2016 10.4135 25.8106 10.0225 25.8106H5.32966C5.52519 23.6597 6.11178 21.7044 7.08945 19.749L12.5644 10.1678C15.693 4.69285 21.3635 1.36877 27.6206 1.36877H75.331C81.3926 1.36877 87.2587 3.91073 91.1693 8.40802L100.555 18.9669L100.751 19.1624C101.728 19.749 102.901 20.3356 104.075 20.3356C105.248 20.5312 108.572 20.7267 112.287 20.9222C117.762 21.3133 124.606 21.8999 128.125 22.291C130.081 22.4865 131.254 23.0731 131.841 24.0508C132.818 25.6151 132.232 28.157 131.645 31.2855Z" fill="url(#paint0_linear_0_1326)"/>
<path d="M66.5327 25.8086H62.622C62.2309 25.8086 61.8398 26.1997 61.8398 26.5907C61.8398 26.9818 62.2309 27.3728 62.622 27.3728H66.5327C66.9237 27.3728 67.3148 26.9818 67.3148 26.5907C67.3148 26.1997 66.9237 25.8086 66.5327 25.8086Z" fill="url(#paint1_linear_0_1326)"/>
<path d="M117.957 39.8871C117.762 39.6915 117.566 39.3004 117.371 39.1049C116.002 37.3451 113.851 36.1719 111.505 36.1719C109.158 36.1719 107.007 37.3451 105.639 39.1049C105.443 39.3004 105.248 39.6915 105.052 39.8871C104.857 40.0826 104.857 40.4737 104.661 40.6692C104.27 41.6469 103.879 42.6246 103.879 43.7978C103.879 44.971 104.27 46.1442 104.661 47.1218C104.857 47.3174 104.857 47.7084 105.052 47.904C105.248 48.0995 105.443 48.4906 105.639 48.6861C107.007 50.4459 109.158 51.4236 111.505 51.4236C113.851 51.4236 116.002 50.2504 117.371 48.6861C117.566 48.4906 117.762 48.295 117.957 47.904C118.153 47.7084 118.153 47.3174 118.348 47.1218C118.74 46.1442 119.131 44.971 119.131 43.7978C119.131 42.6246 118.935 41.6469 118.348 40.6692C118.348 40.2781 118.153 40.0826 117.957 39.8871ZM116.589 47.1218C116.393 47.3174 116.198 47.7084 116.002 47.904C115.806 48.0995 115.415 48.4906 115.22 48.6861C114.242 49.4683 112.873 49.8593 111.505 49.8593C110.136 49.8593 108.963 49.4683 107.79 48.6861C107.399 48.4906 107.203 48.295 107.007 47.904C106.812 47.7084 106.616 47.5129 106.421 47.1218C105.834 46.1442 105.443 44.971 105.443 43.7978C105.443 42.6246 105.834 41.6469 106.421 40.6692C106.616 40.4737 106.812 40.0826 107.007 39.8871C107.203 39.6915 107.594 39.3004 107.79 39.1049C108.767 38.3228 110.136 37.7362 111.505 37.7362C112.873 37.7362 114.242 38.3228 115.22 39.1049C115.415 39.3004 115.806 39.496 116.002 39.8871C116.198 40.0826 116.393 40.2781 116.589 40.6692C117.175 41.6469 117.566 42.6246 117.566 43.7978C117.566 44.971 117.175 46.1442 116.589 47.1218Z" fill="url(#paint2_linear_0_1326)"/>
<path d="M36.8128 39.8871C36.6173 39.6915 36.4218 39.3004 36.2263 39.1049C34.8575 37.3451 32.7066 36.1719 30.3602 36.1719C28.0138 36.1719 25.8629 37.3451 24.4942 39.1049C24.2986 39.3004 24.1031 39.6915 23.9076 39.8871C23.7121 40.0826 23.712 40.4737 23.5165 40.6692C23.1254 41.6469 22.7344 42.6246 22.7344 43.7978C22.7344 44.971 23.1254 46.1442 23.5165 47.1218C23.712 47.3174 23.7121 47.7084 23.9076 47.904C24.1031 48.0995 24.2986 48.4906 24.4942 48.6861C25.8629 50.4459 28.0138 51.4236 30.3602 51.4236C32.7066 51.4236 34.8575 50.2504 36.2263 48.6861C36.4218 48.4906 36.6173 48.295 36.8128 47.904C37.0084 47.7084 37.0084 47.3174 37.2039 47.1218C37.595 46.1442 37.9861 44.971 37.9861 43.7978C37.9861 42.6246 37.7905 41.6469 37.2039 40.6692C37.0084 40.2781 37.0084 40.0826 36.8128 39.8871ZM35.4441 47.1218C35.2486 47.3174 35.053 47.7084 34.8575 47.904C34.662 48.0995 34.2709 48.4906 34.0754 48.6861C33.0977 49.4683 31.729 49.8593 30.3602 49.8593C28.9915 49.8593 27.8183 49.4683 26.6451 48.6861C26.254 48.4906 26.0585 48.295 25.8629 47.904C25.6674 47.7084 25.4718 47.5129 25.2763 47.1218C24.6897 46.1442 24.2986 44.971 24.2986 43.7978C24.2986 42.6246 24.6897 41.6469 25.2763 40.6692C25.4718 40.4737 25.6674 40.0826 25.8629 39.8871C26.0585 39.6915 26.4495 39.3004 26.6451 39.1049C27.6227 38.3228 28.9915 37.7362 30.3602 37.7362C31.729 37.7362 33.0977 38.3228 34.0754 39.1049C34.2709 39.3004 34.662 39.496 34.8575 39.8871C35.053 40.0826 35.2486 40.2781 35.4441 40.6692C36.0307 41.6469 36.4218 42.6246 36.4218 43.7978C36.4218 44.971 36.0307 46.1442 35.4441 47.1218Z" fill="url(#paint3_linear_0_1326)"/>
<path d="M35.4428 25.8086H31.5321C31.1411 25.8086 30.75 26.1997 30.75 26.5907C30.75 26.9818 31.1411 27.3728 31.5321 27.3728H35.4428C35.8339 27.3728 36.2249 26.9818 36.2249 26.5907C36.2249 26.1997 35.8339 25.8086 35.4428 25.8086Z" fill="url(#paint4_linear_0_1326)"/>
<path d="M130.081 25.6206C129.69 25.6206 129.298 25.8162 129.103 26.2072L127.93 32.2688C127.93 32.6598 128.125 33.0509 128.516 33.2464H128.712C129.103 33.2464 129.298 33.0509 129.494 32.6599L130.667 26.5983C130.667 26.2072 130.472 25.8161 130.081 25.6206Z" fill="url(#paint5_linear_0_1326)"/>
<path d="M87.6497 9.77619C84.5211 6.06104 79.8283 3.91016 75.1354 3.91016H28.7938C23.9054 3.91016 19.6037 6.45211 17.0617 10.7539C15.693 13.1003 15.693 16.0334 17.0617 18.3798C18.4305 20.7262 20.9724 22.2905 23.7099 22.2905H86.4765H92.147C93.3202 22.2905 94.1023 21.7038 94.6889 20.7261C95.08 19.7485 95.08 18.5753 94.2979 17.7931L87.6497 9.77619ZM23.7099 20.7261C21.559 20.7261 19.4081 19.5529 18.4304 17.5976C17.2572 15.6422 17.2572 13.2959 18.4304 11.5361C20.5813 7.8209 24.492 5.47447 28.7938 5.47447H31.9223L29.1848 20.5306H23.7099V20.7261ZM30.5536 20.7261L33.2911 5.8655C33.2911 5.66997 33.2911 5.67 33.2911 5.47447H55.191L57.3418 20.7261H30.5536ZM58.7106 20.7261L56.5597 5.47447H75.1354C77.2863 5.47447 79.2417 5.86555 81.197 6.64769L85.6943 20.5306H58.7106V20.7261ZM93.3202 20.1396C93.1247 20.5306 92.7336 20.9217 92.147 20.9217H87.0631L82.9568 8.0164C84.3256 8.79853 85.4988 9.77622 86.4765 11.145L93.1247 18.9663C93.5157 19.1619 93.5157 19.553 93.3202 20.1396Z" fill="url(#paint6_linear_0_1326)"/>
</g>
<defs>
<filter id="filter0_d_0_1326" x="0" y="0" width="138" height="65.0961" filterUnits="userSpaceOnUse" color-interpolation-filters="sRGB">
<feFlood flood-opacity="0" result="BackgroundImageFix"/>
<feColorMatrix in="SourceAlpha" type="matrix" values="0 0 0 0 0 0 0 0 0 0 0 0 0 0 0 0 0 0 127 0" result="hardAlpha"/>
<feOffset dy="4"/>
<feGaussianBlur stdDeviation="2"/>
<feComposite in2="hardAlpha" operator="out"/>
<feColorMatrix type="matrix" values="0 0 0 0 0 0 0 0 0 0 0 0 0 0 0 0 0 0 0.25 0"/>
<feBlend mode="normal" in2="BackgroundImageFix" result="effect1_dropShadow_0_1326"/>
<feBlend mode="normal" in="SourceGraphic" in2="effect1_dropShadow_0_1326" result="shape"/>
</filter>
<linearGradient id="paint0_linear_0_1326" x1="4" y1="57.0961" x2="23.1615" y2="-31.5295" gradientUnits="userSpaceOnUse">
<stop stop-color="#5D3CF2"/>
<stop offset="1" stop-color="#FD5631"/>
</linearGradient>
<linearGradient id="paint1_linear_0_1326" x1="61.8398" y1="27.3728" x2="62.1904" y2="24.8806" gradientUnits="userSpaceOnUse">
<stop stop-color="#5D3CF2"/>
<stop offset="1" stop-color="#FD5631"/>
</linearGradient>
<linearGradient id="paint2_linear_0_1326" x1="103.879" y1="51.4236" x2="113.698" y2="31.4768" gradientUnits="userSpaceOnUse">
<stop stop-color="#5D3CF2"/>
<stop offset="1" stop-color="#FD5631"/>
</linearGradient>
<linearGradient id="paint3_linear_0_1326" x1="22.7344" y1="51.4236" x2="32.5537" y2="31.4768" gradientUnits="userSpaceOnUse">
<stop stop-color="#5D3CF2"/>
<stop offset="1" stop-color="#FD5631"/>
</linearGradient>
<linearGradient id="paint4_linear_0_1326" x1="30.75" y1="27.3728" x2="31.1005" y2="24.8806" gradientUnits="userSpaceOnUse">
<stop stop-color="#5D3CF2"/>
<stop offset="1" stop-color="#FD5631"/>
</linearGradient>
<linearGradient id="paint5_linear_0_1326" x1="127.93" y1="33.2464" x2="133.828" y2="28.9451" gradientUnits="userSpaceOnUse">
<stop stop-color="#5D3CF2"/>
<stop offset="1" stop-color="#FD5631"/>
</linearGradient>
<linearGradient id="paint6_linear_0_1326" x1="16.0352" y1="22.2905" x2="19.415" y2="-7.1859" gradientUnits="userSpaceOnUse">
<stop stop-color="#5D3CF2"/>
<stop offset="1" stop-color="#FD5631"/>
</linearGradient>
</defs>
</svg>
