<svg width="24" height="24" viewBox="0 0 24 24" fill="none" xmlns="http://www.w3.org/2000/svg">
<path fill-rule="evenodd" clip-rule="evenodd" d="M12 11.9986C11.4477 11.9986 11 12.4464 11 12.9986C11 13.5509 11.4477 13.9986 12 13.9986C12.5523 13.9986 13 13.5509 13 12.9986C13 12.4464 12.5523 11.9986 12 11.9986ZM8.99998 12.9986C8.99998 11.3418 10.3431 9.99864 12 9.99864C13.6568 9.99864 15 11.3418 15 12.9986C15 14.6555 13.6568 15.9986 12 15.9986C10.3431 15.9986 8.99998 14.6555 8.99998 12.9986Z" fill="white"/>
<path fill-rule="evenodd" clip-rule="evenodd" d="M16.2071 8.79153C16.5976 9.18205 16.5976 9.81522 16.2071 10.2057L14.1571 12.2557C13.7666 12.6463 13.1334 12.6463 12.7429 12.2557C12.3524 11.8652 12.3524 11.2321 12.7429 10.8415L14.7929 8.79153C15.1834 8.40101 15.8166 8.40101 16.2071 8.79153Z" fill="white"/>
<path fill-rule="evenodd" clip-rule="evenodd" d="M12 4.95312C10.3401 4.95312 8.72133 5.46944 7.36799 6.43051C6.01464 7.39159 4.99375 8.74983 4.4468 10.317C3.89984 11.8842 3.85391 13.5827 4.31536 15.1771C4.74525 16.6626 5.59567 17.9891 6.76061 18.9987H17.2394C18.4043 17.9891 19.2547 16.6626 19.6846 15.1771C20.1461 13.5827 20.1002 11.8842 19.5532 10.317C19.0062 8.74983 17.9854 7.39159 16.632 6.43051C15.2787 5.46944 13.6599 4.95312 12 4.95312ZM6.20998 4.79986C7.90167 3.59852 9.92515 2.95312 12 2.95312C14.0749 2.95312 16.0983 3.59852 17.79 4.79986C19.4817 6.0012 20.7578 7.69901 21.4415 9.65798C22.1252 11.617 22.1826 13.7401 21.6058 15.7332C21.029 17.7262 19.8465 19.4905 18.2222 20.7815C18.0453 20.9221 17.826 20.9987 17.6 20.9987H6.4C6.17401 20.9987 5.95469 20.9221 5.77778 20.7815C4.1535 19.4905 2.97101 17.7262 2.3942 15.7332C1.81738 13.7401 1.8748 11.617 2.55849 9.65798C3.24219 7.69901 4.5183 6.0012 6.20998 4.79986Z" fill="white"/>
</svg>
