<svg width="24" height="24" viewBox="0 0 24 24" fill="none" xmlns="http://www.w3.org/2000/svg">
<path fill-rule="evenodd" clip-rule="evenodd" d="M14 2.00098C14.5523 2.00098 15 2.44869 15 3.00098V7.00098H19C19.5523 7.00098 20 7.44869 20 8.00098C20 8.55326 19.5523 9.00098 19 9.00098H15C14.4696 9.00098 13.9609 8.79026 13.5858 8.41519C13.2107 8.04012 13 7.53141 13 7.00098V3.00098C13 2.44869 13.4477 2.00098 14 2.00098Z" fill="#FD5631"/>
<path fill-rule="evenodd" clip-rule="evenodd" d="M7 4.00098C6.73478 4.00098 6.48043 4.10633 6.29289 4.29387C6.10536 4.48141 6 4.73576 6 5.00098V19.001C6 19.2662 6.10536 19.5205 6.29289 19.7081C6.48043 19.8956 6.73478 20.001 7 20.001H17C17.2652 20.001 17.5196 19.8956 17.7071 19.7081C17.8946 19.5205 18 19.2662 18 19.001V8.41519L13.5858 4.00098H7ZM4.87868 2.87966C5.44129 2.31705 6.20435 2.00098 7 2.00098H14C14.2652 2.00098 14.5196 2.10633 14.7071 2.29387L19.7071 7.29387C19.8946 7.48141 20 7.73576 20 8.00098L20 19.001C20 19.7966 19.6839 20.5597 19.1213 21.1223C18.5587 21.6849 17.7957 22.001 17 22.001H7C6.20435 22.001 5.44129 21.6849 4.87868 21.1223C4.31607 20.5597 4 19.7966 4 19.001V5.00098C4 4.20533 4.31607 3.44227 4.87868 2.87966Z" fill="#FD5631"/>
<path fill-rule="evenodd" clip-rule="evenodd" d="M8 9.00098C8 8.44869 8.44772 8.00098 9 8.00098H10C10.5523 8.00098 11 8.44869 11 9.00098C11 9.55326 10.5523 10.001 10 10.001H9C8.44772 10.001 8 9.55326 8 9.00098Z" fill="#FD5631"/>
<path fill-rule="evenodd" clip-rule="evenodd" d="M8 13.001C8 12.4487 8.44772 12.001 9 12.001H15C15.5523 12.001 16 12.4487 16 13.001C16 13.5532 15.5523 14.001 15 14.001H9C8.44772 14.001 8 13.5532 8 13.001Z" fill="#FD5631"/>
<path fill-rule="evenodd" clip-rule="evenodd" d="M8 17.001C8 16.4487 8.44772 16.001 9 16.001H15C15.5523 16.001 16 16.4487 16 17.001C16 17.5533 15.5523 18.001 15 18.001H9C8.44772 18.001 8 17.5533 8 17.001Z" fill="#FD5631"/>
</svg>
