<svg width="86" height="49" viewBox="0 0 86 49" fill="none" xmlns="http://www.w3.org/2000/svg">
<g filter="url(#filter0_d_0_1106)">
<path d="M63.1512 27.643C62.5169 29.6695 61.3268 31.5481 59.702 33.1746H34.0113C28.3641 33.1746 30.2146 28.9302 30.2146 28.9302C33.4031 22.1636 40.9184 12.2659 43.5856 8.83905C46.5916 8.91733 49.4413 9.46521 51.9957 10.3959C46.027 17.1016 40.7793 23.7465 38.6334 26.5123C38.2077 27.0602 38.6073 27.843 39.2937 27.843L63.1512 27.643Z" fill="#F2F2F2"/>
<path d="M45.5478 9.32569C47.3703 9.67623 48.1309 11.8684 46.9178 13.2719C42.0265 18.9313 37.9149 24.1436 36.0774 26.5119C35.6517 27.0598 36.0514 27.8426 36.7377 27.8426L38.7168 27.826C38.8042 27.8253 38.842 27.7157 38.7737 27.6613C38.4431 27.3984 38.3333 26.8975 38.633 26.5119C40.7678 23.7603 45.9728 17.1693 51.9036 10.4987C51.9473 10.4494 51.9279 10.3709 51.8659 10.3487C49.3583 9.45132 46.5707 8.92126 43.6328 8.83988C43.603 8.83904 43.5747 8.85216 43.5564 8.87569C43.556 8.87626 43.5556 8.87682 43.5551 8.87738C43.5108 8.93438 43.5458 9.01763 43.6175 9.02616C44.2714 9.10388 44.9153 9.20401 45.5478 9.32569Z" fill="#BBB7C5"/>
<path d="M60.5693 27.7278C59.9495 29.6569 58.8257 31.4502 57.3025 33.0171C57.2452 33.076 57.2859 33.1744 57.3682 33.1744H59.664C59.689 33.1744 59.7131 33.1643 59.7307 33.1466C61.3086 31.5595 62.4734 29.7337 63.113 27.7656C63.1326 27.7053 63.0866 27.6433 63.0232 27.6439L60.6563 27.6637C60.6164 27.664 60.5815 27.6898 60.5693 27.7278Z" fill="#9691A4"/>
<path d="M43 7.59375C29.7454 7.59375 19 14.939 19 24C19 33.061 29.7454 40.4062 43 40.4062C56.2546 40.4062 67 33.061 67 24C67 14.939 56.2546 7.59375 43 7.59375ZM62.312 27.3064C61.7103 29.2308 60.5794 31.0151 59.0371 32.5593C55.4317 36.1928 49.5916 38.5553 43 38.5553C32.0527 38.5553 23.1684 32.0391 23.1684 24.0029C23.1684 15.96 32.0527 9.44381 43 9.44381C43.2472 9.44381 43.4868 9.44381 43.734 9.4515C46.5888 9.52584 49.294 10.046 51.7202 10.93C58.303 13.2925 62.8316 18.2559 62.8316 24.0029C62.8316 25.1426 62.6501 26.2496 62.312 27.3064Z" fill="#F2F2F2"/>
<path d="M41.8285 9.47128C41.6593 9.46369 41.4897 9.45741 41.3195 9.453C41.0723 9.44531 40.8327 9.44531 40.5855 9.44531C29.6382 9.44531 20.7539 15.9615 20.7539 24.0044C20.7539 32.0406 29.6382 38.5568 40.5855 38.5568C40.9946 38.5568 41.4008 38.5476 41.8038 38.5296C31.413 38.0753 23.1683 31.7456 23.1683 24.0044C23.1683 16.2504 31.426 9.9165 41.8285 9.47128Z" fill="#BBB7C5"/>
<path d="M43.0002 7.59375C42.5953 7.59375 42.1929 7.60088 41.793 7.61438C54.4866 8.04431 64.5857 15.2157 64.5857 24C64.5857 32.7843 54.4866 39.9557 41.793 40.3856C42.1929 40.3992 42.5954 40.4062 43.0002 40.4062C56.2548 40.4062 67.0002 33.061 67.0002 24C67.0002 14.939 56.2548 7.59375 43.0002 7.59375Z" fill="#9691A4"/>
</g>
<defs>
<filter id="filter0_d_0_1106" x="-4" y="0" width="94" height="56" filterUnits="userSpaceOnUse" color-interpolation-filters="sRGB">
<feFlood flood-opacity="0" result="BackgroundImageFix"/>
<feColorMatrix in="SourceAlpha" type="matrix" values="0 0 0 0 0 0 0 0 0 0 0 0 0 0 0 0 0 0 127 0" result="hardAlpha"/>
<feOffset dy="4"/>
<feGaussianBlur stdDeviation="2"/>
<feComposite in2="hardAlpha" operator="out"/>
<feColorMatrix type="matrix" values="0 0 0 0 0 0 0 0 0 0 0 0 0 0 0 0 0 0 0.25 0"/>
<feBlend mode="normal" in2="BackgroundImageFix" result="effect1_dropShadow_0_1106"/>
<feBlend mode="normal" in="SourceGraphic" in2="effect1_dropShadow_0_1106" result="shape"/>
</filter>
</defs>
</svg>
