<svg width="20" height="20" viewBox="0 0 20 20" fill="none" xmlns="http://www.w3.org/2000/svg">
<g opacity="0.5">
<path fill-rule="evenodd" clip-rule="evenodd" d="M5 4.16679C4.53976 4.16679 4.16667 4.53988 4.16667 5.00012V6.66679C4.16667 7.12703 4.53976 7.50012 5 7.50012H15C15.4602 7.50012 15.8333 7.12703 15.8333 6.66679V5.00012C15.8333 4.53988 15.4602 4.16679 15 4.16679H5ZM2.5 5.00012C2.5 3.61941 3.61929 2.50012 5 2.50012H15C16.3807 2.50012 17.5 3.61941 17.5 5.00012V6.66679C17.5 8.0475 16.3807 9.16679 15 9.16679H5C3.61929 9.16679 2.5 8.0475 2.5 6.66679V5.00012Z" fill="white"/>
<path fill-rule="evenodd" clip-rule="evenodd" d="M5 12.4999C4.53976 12.4999 4.16667 12.873 4.16667 13.3332V14.9999C4.16667 15.4601 4.53976 15.8332 5 15.8332H15C15.4602 15.8332 15.8333 15.4601 15.8333 14.9999V13.3332C15.8333 12.873 15.4602 12.4999 15 12.4999H5ZM2.5 13.3332C2.5 11.9525 3.61929 10.8332 5 10.8332H15C16.3807 10.8332 17.5 11.9525 17.5 13.3332V14.9999C17.5 16.3806 16.3807 17.4999 15 17.4999H5C3.61929 17.4999 2.5 16.3806 2.5 14.9999V13.3332Z" fill="white"/>
</g>
</svg>
