<svg width="86" height="53" viewBox="0 0 86 53" fill="none" xmlns="http://www.w3.org/2000/svg">
<g filter="url(#filter0_d_0_1078)">
<path d="M49.4699 3.65625H36.5301C26.8481 3.65625 19 11.491 19 21.1567V26.8433C19 36.509 26.8481 44.3438 36.5301 44.3438H49.4699C59.1519 44.3438 67 36.509 67 26.8433V21.1567C67 11.491 59.1519 3.65625 49.4699 3.65625ZM61.8938 28.9856C61.8938 35.8253 56.3395 41.3703 49.4882 41.3703H36.5118C29.6604 41.3703 24.1061 35.8254 24.1061 28.9856V19.0144C24.1061 12.1747 29.6604 6.62972 36.5118 6.62972H49.4882C56.3395 6.62972 61.8938 12.1746 61.8938 19.0144V28.9856Z" fill="#EFECF3"/>
<path d="M36.5106 6.62891H34.0961C27.2447 6.62891 21.6904 12.1737 21.6904 19.0136V28.9848C21.6904 35.8245 27.2447 41.3695 34.0961 41.3695H36.5106C29.6593 41.3695 24.105 35.8246 24.105 28.9848V19.0136C24.1051 12.1737 29.6593 6.62891 36.5106 6.62891Z" fill="#BBB7C5"/>
<path d="M49.4714 3.65625H47.0569C56.739 3.65625 64.587 11.491 64.587 21.1567V26.8433C64.587 36.509 56.739 44.3438 47.0569 44.3438H49.4714C59.1534 44.3438 67.0015 36.509 67.0015 26.8433V21.1567C67.0015 11.491 59.1534 3.65625 49.4714 3.65625Z" fill="#9691A4"/>
<path d="M63.0314 15.8547C62.9869 17.3819 62.6461 18.9573 61.6513 19.963C61.2524 20.3669 60.6971 20.7083 60.0239 21.011C57.1293 22.3165 52.0609 22.9277 47.9302 24.9457C45.6043 26.0897 44.0341 29.8496 43.3655 31.7609C43.2446 32.1065 42.7571 32.1065 42.6362 31.7609C41.9676 29.8496 40.3974 26.0897 38.0715 24.9457C32.9808 22.4592 26.4655 22.1082 24.3504 19.9629C23.3556 18.9572 23.0148 17.3819 22.9703 15.8546C22.9227 14.2874 23.177 12.7622 23.3523 11.9179C23.4131 11.6249 23.7685 11.5099 23.9902 11.7109C24.9023 12.5374 27.1641 14.3397 31.2423 16.1669C36.4359 18.5076 41.6373 21.3069 42.8195 26.0514C42.8668 26.2409 43.1348 26.2409 43.1821 26.0514C44.3643 21.307 49.5657 18.5076 54.7593 16.1669C56.6852 15.3041 58.2053 14.4469 59.3701 13.6949C60.6737 12.8546 61.5317 12.146 62.0128 11.7098C62.234 11.5093 62.5886 11.6248 62.6493 11.9172C62.8245 12.7614 63.0789 14.2871 63.0314 15.8547Z" fill="#9691A4"/>
<path d="M63.0314 15.8578C62.987 17.385 62.6461 18.9605 61.6513 19.9661C61.2524 20.3701 60.6972 20.7115 60.0239 21.0142C60.6227 18.2046 60.1427 16.4055 59.9312 15.4548C59.8182 14.9516 59.5922 14.2891 59.3701 13.6981C60.6729 12.8584 61.5306 12.1502 62.0119 11.7139C62.2334 11.5131 62.5888 11.6286 62.6494 11.9211C62.8246 12.7654 63.079 14.2906 63.0314 15.8578Z" fill="#666276"/>
<path d="M63.0299 15.8547C62.1713 16.3984 61.2432 16.9104 60.2687 17.3915C57.52 18.751 54.4043 19.8627 51.4596 20.7323C45.8369 22.3941 43.7406 26.5013 43.1732 27.9085C43.1099 28.0654 42.8887 28.0654 42.8254 27.9085C42.258 26.5013 40.1617 22.394 34.539 20.7323C30.5512 19.5551 26.2486 17.9324 22.9687 15.8546C22.9211 14.2875 23.1754 12.7622 23.3507 11.9179C23.4115 11.6249 23.7669 11.5099 23.9886 11.7109C24.9007 12.5374 27.1625 14.3397 31.2407 16.167C36.4343 18.5076 41.6358 21.3069 42.8179 26.0514C42.8652 26.2409 43.1332 26.2409 43.1805 26.0514C44.3628 21.307 49.5641 18.5076 54.7578 16.167C56.6836 15.3041 58.2037 14.4469 59.3685 13.6949C60.6721 12.8546 61.5301 12.146 62.0112 11.7098C62.2324 11.5093 62.587 11.6248 62.6477 11.9172C62.823 12.7614 63.0774 14.2871 63.0299 15.8547Z" fill="#EFECF3"/>
<path d="M63.0314 15.8578C62.1729 16.4016 61.2447 16.9135 60.2702 17.3947C60.192 16.5462 60.0317 15.9051 59.9312 15.4548C59.8182 14.9515 59.5922 14.2891 59.3701 13.6981C60.6729 12.8584 61.5306 12.1502 62.0119 11.7139C62.2334 11.5131 62.5888 11.6286 62.6494 11.9211C62.8246 12.7654 63.079 14.2906 63.0314 15.8578Z" fill="#BBB7C5"/>
</g>
<defs>
<filter id="filter0_d_0_1078" x="-4" y="0" width="94" height="56" filterUnits="userSpaceOnUse" color-interpolation-filters="sRGB">
<feFlood flood-opacity="0" result="BackgroundImageFix"/>
<feColorMatrix in="SourceAlpha" type="matrix" values="0 0 0 0 0 0 0 0 0 0 0 0 0 0 0 0 0 0 127 0" result="hardAlpha"/>
<feOffset dy="4"/>
<feGaussianBlur stdDeviation="2"/>
<feComposite in2="hardAlpha" operator="out"/>
<feColorMatrix type="matrix" values="0 0 0 0 0 0 0 0 0 0 0 0 0 0 0 0 0 0 0.25 0"/>
<feBlend mode="normal" in2="BackgroundImageFix" result="effect1_dropShadow_0_1078"/>
<feBlend mode="normal" in="SourceGraphic" in2="effect1_dropShadow_0_1078" result="shape"/>
</filter>
</defs>
</svg>
