<svg width="86" height="48" viewBox="0 0 86 48" fill="none" xmlns="http://www.w3.org/2000/svg">
<g>
<path d="M43 3.1875C31.5048 3.1875 22.1875 12.5057 22.1875 24C22.1875 35.4943 31.5048 44.8125 43 44.8125C54.4943 44.8125 63.8125 35.4943 63.8125 24C63.8125 12.5057 54.4943 3.1875 43 3.1875ZM43 40.9404C33.6586 40.9404 26.0596 33.3414 26.0596 24C26.0596 14.6586 33.6586 7.05956 43 7.05956C52.3405 7.05956 59.9404 14.6586 59.9404 24C59.9404 33.3414 52.3405 40.9404 43 40.9404Z" fill="#EFECF3"/>
<path d="M43 3.1875C31.5048 3.1875 22.1875 12.5057 22.1875 24C22.1875 35.4943 31.5048 44.8125 43 44.8125C54.4943 44.8125 63.8125 35.4943 63.8125 24C63.8125 12.5057 54.4943 3.1875 43 3.1875ZM43 40.9404C33.6586 40.9404 26.0596 33.3414 26.0596 24C26.0596 14.6586 33.6586 7.05956 43 7.05956C52.3405 7.05956 59.9404 14.6586 59.9404 24C59.9404 33.3414 52.3405 40.9404 43 40.9404Z" fill="#EFECF3"/>
<path d="M43.0003 3.1875C42.594 3.1875 42.1908 3.20044 41.7903 3.22341C52.7213 3.85022 61.3928 12.912 61.3928 24C61.3928 35.088 52.7213 44.1498 41.7903 44.7766C42.1908 44.7996 42.594 44.8125 43.0003 44.8125C54.4946 44.8125 63.8128 35.4943 63.8128 24C63.8128 12.5057 54.4946 3.1875 43.0003 3.1875Z" fill="#9691A4"/>
<path d="M66.9901 25.4555L66.451 27.773C66.4098 27.9474 66.2532 28.0712 66.0723 28.0712H33.4588C33.3004 28.0712 33.1682 27.9624 33.1325 27.8143C33.126 27.789 33.1232 27.7627 33.1232 27.7355C33.1232 27.6436 33.1607 27.5593 33.2216 27.4993C33.231 27.489 33.2422 27.4796 33.2535 27.4712L37.9315 23.5077C38.0633 23.3959 37.9867 23.1805 37.814 23.1771L19.3815 22.8211C19.1115 22.8165 18.9287 22.5465 19.0271 22.2971L20.0218 19.7827C20.0799 19.6364 20.2215 19.5399 20.3799 19.538L46.9934 19.2493L52.0295 19.1949C52.1758 19.1949 52.2995 19.2877 52.3455 19.4171C52.3586 19.4518 52.3652 19.4902 52.3652 19.5296C52.3652 19.6177 52.3314 19.6974 52.2761 19.7564L52.2433 19.7883C52.2424 19.7893 52.2414 19.7902 52.2405 19.7902L47.5304 24.2734C47.4091 24.3888 47.4884 24.5933 47.6558 24.5967L66.6198 24.9849C66.8654 24.9905 67.0454 25.2183 66.9901 25.4555Z" fill="#BBB7C5"/>
<path d="M52.3447 19.4171L51.7326 19.6852L33.7365 27.5508L33.1318 27.8143C33.1252 27.789 33.1224 27.7627 33.1224 27.7355C33.1224 27.6437 33.1599 27.5593 33.2209 27.4993C33.2302 27.489 33.2415 27.4796 33.2527 27.4712L37.9309 23.5074C37.9965 23.4521 38.0106 23.3705 37.9862 23.3021L46.9927 19.2493L52.0288 19.1949C52.1751 19.1949 52.2988 19.2877 52.3447 19.4171Z" fill="#EFECF3"/>
<path d="M52.3654 19.5344C52.3654 19.6225 52.3317 19.7022 52.2764 19.7612L52.2436 19.7931C52.2426 19.7941 52.2417 19.795 52.2408 19.795L47.5308 24.2781C47.4708 24.3353 47.4595 24.4141 47.4839 24.4797L41.7952 28.0759H33.4591C33.3006 28.0759 33.1684 27.9672 33.1328 27.8191L33.7375 27.5556L51.7336 19.69L52.3458 19.4219C52.3589 19.4566 52.3654 19.495 52.3654 19.5344Z" fill="#9691A4"/>
</g>
</svg>
