<svg width="18" height="18" viewBox="0 0 18 18" fill="none" xmlns="http://www.w3.org/2000/svg">

<path fill-rule="evenodd" clip-rule="evenodd" d="M2.25 4.5C2.25 4.08579 2.58579 3.75 3 3.75H15C15.4142 3.75 15.75 4.08579 15.75 4.5C15.75 4.91421 15.4142 5.25 15 5.25H3C2.58579 5.25 2.25 4.91421 2.25 4.5Z" fill="white"/>
<path fill-rule="evenodd" clip-rule="evenodd" d="M2.25 9C2.25 8.58579 2.58579 8.25 3 8.25H10.5C10.9142 8.25 11.25 8.58579 11.25 9C11.25 9.41421 10.9142 9.75 10.5 9.75H3C2.58579 9.75 2.25 9.41421 2.25 9Z" fill="white"/>
<path fill-rule="evenodd" clip-rule="evenodd" d="M2.25 13.5C2.25 13.0858 2.58579 12.75 3 12.75H13.5C13.9142 12.75 14.25 13.0858 14.25 13.5C14.25 13.9142 13.9142 14.25 13.5 14.25H3C2.58579 14.25 2.25 13.9142 2.25 13.5Z" fill="white"/>
</svg>
