<svg width="20" height="20" viewBox="0 0 20 20" fill="none" xmlns="http://www.w3.org/2000/svg">
<path fill-rule="evenodd" clip-rule="evenodd" d="M9.99998 7.49987C9.07951 7.49987 8.33331 8.24606 8.33331 9.16654C8.33331 10.087 9.07951 10.8332 9.99998 10.8332C10.9205 10.8332 11.6666 10.087 11.6666 9.16654C11.6666 8.24606 10.9205 7.49987 9.99998 7.49987ZM6.66665 9.16654C6.66665 7.32559 8.15903 5.8332 9.99998 5.8332C11.8409 5.8332 13.3333 7.32559 13.3333 9.16654C13.3333 11.0075 11.8409 12.4999 9.99998 12.4999C8.15903 12.4999 6.66665 11.0075 6.66665 9.16654Z" fill="#9691A4"/>
<path fill-rule="evenodd" clip-rule="evenodd" d="M10 3.33341C8.84629 3.33341 7.71849 3.67553 6.75921 4.31649C5.79993 4.95745 5.05225 5.86847 4.61073 6.93436C4.16921 8.00024 4.05368 9.17311 4.27873 10.3047C4.50379 11.4362 5.05933 12.4756 5.87511 13.2914L9.41146 16.8269C9.56772 16.983 9.77955 17.0707 10.0004 17.0707C10.2213 17.0707 10.4331 16.983 10.5894 16.8269L14.1249 13.2914C14.9407 12.4756 15.4962 11.4362 15.7213 10.3047C15.9463 9.17311 15.8308 8.00024 15.3893 6.93436C14.9478 5.86847 14.2001 4.95745 13.2408 4.31649C12.2815 3.67553 11.1537 3.33341 10 3.33341ZM15.3034 14.4699C16.3523 13.421 17.0666 12.0846 17.3559 10.6298C17.6453 9.17493 17.4967 7.66696 16.9291 6.29653C16.3614 4.92611 15.4001 3.75479 14.1667 2.9307C12.9334 2.10661 11.4833 1.66675 10 1.66675C8.51666 1.66675 7.06663 2.10661 5.83327 2.9307C4.59991 3.75479 3.63861 4.92611 3.07094 6.29653C2.50328 7.66695 2.35473 9.17493 2.64409 10.6298C2.93344 12.0846 3.64771 13.421 4.69657 14.4699L8.23332 18.0058C8.70209 18.4741 9.33781 18.7374 10.0004 18.7374C10.663 18.7374 11.2985 18.4743 11.7673 18.0061L15.3034 14.4699Z" fill="#9691A4"/>
</svg>
