<svg width="86" height="48" viewBox="0 0 86 48" fill="none" xmlns="http://www.w3.org/2000/svg">
<g>
<path d="M62.6379 23.8134L49.121 0.188437C49.0546 0.0721875 48.9302 0 48.7963 0H37.2043C37.0705 0 36.946 0.0721875 36.8796 0.188437L23.3626 23.8134C23.2961 23.9287 23.2961 24.0712 23.3626 24.1866L36.8796 47.8116C36.888 47.8256 36.8964 47.8397 36.9057 47.8519C36.9057 47.8528 36.9067 47.8528 36.9067 47.8528C36.9366 47.8922 36.9741 47.9241 37.0152 47.9484C37.0592 47.9747 37.1078 47.9906 37.1593 47.9963C37.1743 47.9991 37.1892 48 37.2042 48H48.7963C48.9301 48 49.0546 47.9278 49.121 47.8116L62.6379 24.1866C62.7044 24.0712 62.7044 23.9287 62.6379 23.8134ZM36.2302 24.1772C36.1712 24.0666 36.1712 23.9334 36.2302 23.8228L43.0003 11.2059L49.7705 23.8228C49.8294 23.9334 49.8294 24.0666 49.7705 24.1772L43.0003 36.7941L36.2302 24.1772Z" fill="#EFECF3"/>
<path d="M48.7962 0H46.6052L60.3367 24L46.6052 48H48.7962C48.9303 48 49.0542 47.9281 49.1209 47.8115L62.6378 24.1865C62.7039 24.071 62.7039 23.929 62.6378 23.8135L49.1209 0.188531C49.0542 0.0719062 48.9303 0 48.7962 0Z" fill="#9691A4"/>
<path d="M48.7898 0.414375L47.8475 2.17125L44.2036 8.9625L42.9993 11.2059L36.2292 23.8228C36.1692 23.9334 36.1692 24.0666 36.2292 24.1772L42.9993 36.7941L41.795 39.0375L38.0277 46.0594V46.0603L37.222 47.5612L37.0142 47.9484L37.003 47.9681C36.9731 47.9503 36.9477 47.9259 36.9281 47.8978C36.9243 47.8913 36.9206 47.8856 36.9168 47.8791L36.8785 47.8116L23.3615 24.1866C23.295 24.0712 23.295 23.9287 23.3615 23.8134L36.8785 0.188437C36.9449 0.0721875 37.0693 0 37.2032 0H48.5427C48.7551 0 48.8908 0.226875 48.7898 0.414375Z" fill="#EFECF3"/>
<path d="M48.7898 0.414375L47.8475 2.17125L44.2036 8.9625L42.9993 11.2059L36.2292 23.8228C36.1692 23.9334 36.1692 24.0666 36.2292 24.1772L42.9993 36.7941L41.795 39.0375L38.0277 46.0594V46.0603L37.222 47.5612L37.0142 47.9484L37.003 47.9681C36.9731 47.9503 36.9477 47.9259 36.9281 47.8978C36.9243 47.8913 36.9206 47.8856 36.9168 47.8791L36.8785 47.8116L23.3615 24.1866C23.295 24.0712 23.295 23.9287 23.3615 23.8134L36.8785 0.188437C36.9449 0.0721875 37.0693 0 37.2032 0H48.5427C48.7551 0 48.8908 0.226875 48.7898 0.414375Z" fill="#F5F4F8"/>
<path d="M46.6048 0L33.8219 23.8224C33.7624 23.9333 33.7624 24.0667 33.8219 24.1776L41.7958 39.0378L42.9997 36.7939L36.2297 24.1776C36.1702 24.0667 36.1702 23.9333 36.2297 23.8224L48.7902 0.414469C48.8908 0.227062 48.7553 0 48.5429 0H46.6048Z" fill="#9691A4"/>
<path d="M52.1787 24.1763L39.3954 47.9991H37.1215C37.0794 47.9991 37.0392 47.9869 37.0045 47.9673L37.0158 47.9476L37.2235 47.5604L38.0292 46.0594V46.0585L41.7965 39.0366L43.0009 36.7932L49.771 24.1763C49.83 24.0657 49.83 23.9326 49.771 23.822L43.0009 11.2051L44.2052 8.96167L52.1787 23.822C52.2386 23.9326 52.2386 24.0657 52.1787 24.1763Z" fill="#BBB7C5"/>
</g>
</svg>
