<svg width="24" height="24" viewBox="0 0 24 24" fill="none" xmlns="http://www.w3.org/2000/svg">
<path fill-rule="evenodd" clip-rule="evenodd" d="M10 4.00098C6.68629 4.00098 4 6.68727 4 10.001C4 13.3147 6.68629 16.001 10 16.001C13.3137 16.001 16 13.3147 16 10.001C16 6.68727 13.3137 4.00098 10 4.00098ZM2 10.001C2 5.5827 5.58172 2.00098 10 2.00098C14.4183 2.00098 18 5.5827 18 10.001C18 14.4193 14.4183 18.001 10 18.001C5.58172 18.001 2 14.4193 2 10.001Z" fill="#FD5631"/>
<path fill-rule="evenodd" clip-rule="evenodd" d="M14.2929 14.2939C14.6834 13.9033 15.3166 13.9033 15.7071 14.2939L21.7071 20.2939C22.0976 20.6844 22.0976 21.3176 21.7071 21.7081C21.3166 22.0986 20.6834 22.0986 20.2929 21.7081L14.2929 15.7081C13.9024 15.3176 13.9024 14.6844 14.2929 14.2939Z" fill="#FD5631"/>
</svg>
