<svg width="24" height="24" viewBox="0 0 24 24" fill="none" xmlns="http://www.w3.org/2000/svg">
<path d="M12 8.00098C9.8 8.00098 8 9.80098 8 12.001C8 14.201 9.8 16.001 12 16.001C14.2 16.001 16 14.201 16 12.001C16 9.80098 14.2 8.00098 12 8.00098ZM12 14.001C10.9 14.001 10 13.101 10 12.001C10 10.901 10.9 10.001 12 10.001C13.1 10.001 14 10.901 14 12.001C14 13.101 13.1 14.001 12 14.001ZM12 8.00098C9.8 8.00098 8 9.80098 8 12.001C8 14.201 9.8 16.001 12 16.001C14.2 16.001 16 14.201 16 12.001C16 9.80098 14.2 8.00098 12 8.00098ZM12 14.001C10.9 14.001 10 13.101 10 12.001C10 10.901 10.9 10.001 12 10.001C13.1 10.001 14 10.901 14 12.001C14 13.101 13.1 14.001 12 14.001ZM12 8.00098C9.8 8.00098 8 9.80098 8 12.001C8 14.201 9.8 16.001 12 16.001C14.2 16.001 16 14.201 16 12.001C16 9.80098 14.2 8.00098 12 8.00098ZM12 14.001C10.9 14.001 10 13.101 10 12.001C10 10.901 10.9 10.001 12 10.001C13.1 10.001 14 10.901 14 12.001C14 13.101 13.1 14.001 12 14.001ZM12 8.00098C9.8 8.00098 8 9.80098 8 12.001C8 14.201 9.8 16.001 12 16.001C14.2 16.001 16 14.201 16 12.001C16 9.80098 14.2 8.00098 12 8.00098ZM12 14.001C10.9 14.001 10 13.101 10 12.001C10 10.901 10.9 10.001 12 10.001C13.1 10.001 14 10.901 14 12.001C14 13.101 13.1 14.001 12 14.001ZM19.9 9.30098C19.8 9.30098 19.7 9.20098 19.6 9.20098C19.5 9.10098 19.4 9.00098 19.4 8.90098C19.4 8.80098 19.3 8.70098 19.4 8.60098C19.4 8.50098 19.4 8.40098 19.5 8.30098C20.2 7.20098 20 5.90098 19.1 5.00098C18.2 4.10098 16.9 3.90098 15.8 4.60098C15.7 4.70098 15.6 4.70098 15.5 4.70098C15.4 4.70098 15.3 4.70098 15.2 4.70098C15.1 4.70098 15 4.60098 14.9 4.50098C14.8 4.40098 14.8 4.30098 14.8 4.20098C14.3 2.80098 13.3 2.00098 12 2.00098C10.7 2.00098 9.7 2.80098 9.3 4.10098C9.3 4.30098 9.1 4.50098 8.9 4.60098C8.7 4.70098 8.4 4.70098 8.2 4.60098C7.2 3.90098 5.8 4.00098 4.9 4.90098C4 5.80098 3.9 7.20098 4.5 8.30098C4.6 8.40098 4.6 8.50098 4.6 8.60098C4.6 8.70098 4.6 8.80098 4.6 8.90098C4.6 9.00098 4.5 9.10098 4.4 9.20098C4.3 9.30098 4.2 9.30098 4.1 9.30098C2.8 9.70098 2 10.701 2 12.001C2 13.301 2.8 14.301 4.1 14.701C4.2 14.701 4.3 14.801 4.4 14.801C4.5 14.901 4.6 15.001 4.6 15.101C4.6 15.201 4.7 15.301 4.6 15.401C4.6 15.501 4.6 15.601 4.5 15.701C3.8 16.801 4 18.101 4.9 19.001C5.8 19.901 7.1 20.101 8.2 19.401C8.3 19.301 8.4 19.301 8.5 19.301C8.6 19.301 8.7 19.301 8.8 19.301C8.9 19.301 9 19.401 9.1 19.501C9.2 19.601 9.2 19.701 9.2 19.801C9.7 21.201 10.7 22.001 12 22.001C13.3 22.001 14.3 21.201 14.7 19.901C14.7 19.801 14.8 19.701 14.8 19.601C14.9 19.501 15 19.401 15.1 19.401C15.2 19.401 15.3 19.301 15.4 19.401C15.5 19.401 15.6 19.401 15.7 19.501C16.8 20.201 18.1 20.001 19 19.101C19.9 18.201 20.1 16.901 19.4 15.801C19.3 15.701 19.3 15.601 19.3 15.501C19.3 15.401 19.3 15.301 19.3 15.201C19.3 15.101 19.4 15.001 19.5 14.901C19.6 14.801 19.7 14.801 19.8 14.801C21 14.501 21.9 13.401 21.9 12.101C21.9 10.801 21.2 9.70098 19.9 9.30098ZM19.5 12.701C19.1 12.801 18.7 13.001 18.4 13.301C18.1 13.601 17.8 13.901 17.6 14.301C17.4 14.701 17.4 15.101 17.4 15.501C17.4 15.901 17.6 16.301 17.8 16.701C18.1 17.101 17.8 17.501 17.7 17.601C17.6 17.701 17.3 18.001 16.8 17.701C16.4 17.501 16 17.301 15.6 17.301C15.2 17.301 14.7 17.301 14.3 17.501C13.9 17.701 13.6 17.901 13.3 18.301C13 18.601 12.8 19.001 12.7 19.401C12.6 20.001 12.1 20.001 12 20.001C11.9 20.001 11.4 20.001 11.3 19.501C11.2 19.101 11 18.701 10.7 18.401C10.4 18.101 10.1 17.801 9.7 17.601C9.4 17.501 9 17.401 8.7 17.401C8.6 17.401 8.6 17.401 8.5 17.401C8.1 17.401 7.7 17.601 7.3 17.801C6.9 18.101 6.5 17.801 6.4 17.701C6.3 17.601 6 17.301 6.3 16.801C6.5 16.401 6.7 16.001 6.7 15.601C6.7 15.201 6.7 14.701 6.5 14.401C6.3 14.001 6.1 13.601 5.7 13.401C5.4 13.001 5 12.801 4.5 12.701C4 12.601 4 12.101 4 12.001C4 11.901 4 11.401 4.5 11.301C5 11.201 5.4 11.001 5.7 10.701C6 10.401 6.3 10.101 6.5 9.70098C6.7 9.30098 6.7 8.90098 6.7 8.50098C6.7 8.10098 6.5 7.70098 6.3 7.30098C6 6.80098 6.2 6.40098 6.3 6.30098C6.4 6.20098 6.8 6.00098 7.2 6.20098C8 6.70098 8.9 6.80098 9.7 6.40098C10.5 6.10098 11.1 5.40098 11.3 4.50098C11.4 4.00098 11.9 4.00098 12 4.00098C12.1 4.00098 12.6 4.00098 12.7 4.50098C12.8 5.00098 13 5.40098 13.3 5.70098C13.6 6.00098 13.9 6.30098 14.3 6.50098C14.7 6.70098 15.1 6.70098 15.5 6.70098C15.9 6.70098 16.3 6.50098 16.7 6.30098C17.1 6.00098 17.5 6.30098 17.6 6.40098C17.7 6.50098 18 6.80098 17.7 7.30098C17.5 7.70098 17.3 8.10098 17.3 8.50098C17.3 8.90098 17.3 9.40098 17.5 9.70098C17.7 10.101 17.9 10.501 18.3 10.701C18.6 11.001 19 11.201 19.4 11.301C20 11.401 20 11.901 20 12.001C20 12.101 20 12.601 19.5 12.701ZM12 8.00098C9.8 8.00098 8 9.80098 8 12.001C8 14.201 9.8 16.001 12 16.001C14.2 16.001 16 14.201 16 12.001C16 9.80098 14.2 8.00098 12 8.00098ZM12 14.001C10.9 14.001 10 13.101 10 12.001C10 10.901 10.9 10.001 12 10.001C13.1 10.001 14 10.901 14 12.001C14 13.101 13.1 14.001 12 14.001ZM12 8.00098C9.8 8.00098 8 9.80098 8 12.001C8 14.201 9.8 16.001 12 16.001C14.2 16.001 16 14.201 16 12.001C16 9.80098 14.2 8.00098 12 8.00098ZM12 14.001C10.9 14.001 10 13.101 10 12.001C10 10.901 10.9 10.001 12 10.001C13.1 10.001 14 10.901 14 12.001C14 13.101 13.1 14.001 12 14.001ZM12 8.00098C9.8 8.00098 8 9.80098 8 12.001C8 14.201 9.8 16.001 12 16.001C14.2 16.001 16 14.201 16 12.001C16 9.80098 14.2 8.00098 12 8.00098ZM12 14.001C10.9 14.001 10 13.101 10 12.001C10 10.901 10.9 10.001 12 10.001C13.1 10.001 14 10.901 14 12.001C14 13.101 13.1 14.001 12 14.001Z" fill="#FD5631"/>
</svg>
