<svg width="125" height="49" viewBox="0 0 125 49" fill="none" xmlns="http://www.w3.org/2000/svg">
<path d="M115.466 16.5972L83.1642 16.0618C80.8442 16.0618 78.7026 15.3479 76.7395 13.9202L68.3517 7.67396C61.7486 2.67697 53.5392 0 45.1514 0C37.8344 0 30.5174 2.14158 24.2711 6.06779L13.5633 12.8494C13.2063 13.0279 12.8494 13.2064 12.4925 13.2064L7.67396 13.3848C5.53239 13.3848 3.74775 14.0987 2.32004 15.5264C0.892326 16.9541 0 18.7387 0 20.8803V27.305C0 34.8005 6.06777 41.0467 13.7417 41.0467H15.1694C17.1325 45.1514 21.2372 48.1853 26.0558 48.1853C30.8743 48.1853 35.1574 45.3299 36.942 41.0467H89.0536C91.0167 45.1514 95.1213 48.1853 99.9399 48.1853C104.758 48.1853 109.042 45.3299 110.826 41.0467H111.183C118.679 41.0467 124.925 34.979 124.925 27.305C125.639 21.2372 121.177 16.7756 115.466 16.5972ZM14.991 39.2621H14.0987C9.28015 39.2621 4.99699 36.4067 3.03388 32.302H15.1694C14.8125 33.3728 14.634 34.622 14.634 35.8713C14.634 36.9421 14.8125 38.0128 14.991 39.2621ZM36.5851 39.2621C36.4067 39.7975 36.2282 40.1544 36.0497 40.6898C34.2651 44.0806 30.6958 46.4006 26.7696 46.4006C22.6649 46.4006 19.0956 44.0806 17.311 40.6898C17.1325 40.3329 16.9541 39.7975 16.7756 39.2621C16.4187 38.1913 16.0618 36.9421 16.0618 35.6928C16.0618 34.4436 16.2402 33.1943 16.7756 32.1235C16.9541 31.5881 17.1325 31.2312 17.311 30.6958C19.0956 27.305 22.6649 24.985 26.5912 24.985C30.5174 24.985 34.0866 27.305 35.8713 30.6958C36.0497 31.0527 36.2282 31.5881 36.4067 32.1235C36.7636 33.1943 37.1205 34.4436 37.1205 35.6928C37.1205 36.9421 36.9421 38.0128 36.5851 39.2621ZM89.232 39.2621H38.0128C38.3698 38.1913 38.5482 36.9421 38.5482 35.6928C38.5482 34.4436 38.3698 33.1943 38.0128 32.1235H89.232C88.8751 33.1943 88.6966 34.4436 88.6966 35.6928C88.6966 36.9421 88.8751 38.0128 89.232 39.2621ZM110.648 39.2621C110.469 39.7975 110.291 40.1544 110.112 40.6898C108.328 44.0806 104.758 46.4006 100.832 46.4006C96.7275 46.4006 93.1582 44.0806 91.552 40.6898C91.3736 40.3329 91.1951 39.7975 91.0166 39.2621C90.6597 38.1913 90.3028 36.9421 90.3028 35.6928C90.3028 34.4436 90.4813 33.1943 91.0166 32.1235C91.1951 31.5881 91.3736 31.2312 91.552 30.6958C93.3367 27.305 96.906 24.985 100.832 24.985C104.937 24.985 108.328 27.305 110.112 30.6958C110.291 31.0527 110.469 31.5881 110.648 32.1235C111.005 33.1943 111.362 34.4436 111.362 35.6928C111.183 36.9421 111.005 38.0128 110.648 39.2621ZM112.075 39.0836C112.432 38.0129 112.611 36.7636 112.611 35.5144C112.611 34.2651 112.432 33.0159 112.075 31.9451H122.962C120.999 36.2282 116.894 39.0836 112.075 39.0836ZM111.54 30.6958C109.577 26.5911 105.472 23.5572 100.654 23.5572C95.8352 23.5572 91.552 26.4127 89.7674 30.6958H37.4774C35.5143 26.5911 31.4097 23.5572 26.5912 23.5572C21.7726 23.5572 17.4895 26.4127 15.7048 30.6958H2.49851C2.14158 29.625 1.96312 28.5542 1.96312 27.305H5.5324C5.88932 27.305 6.24624 26.9481 6.24624 26.5912C6.24624 26.2342 5.88932 25.8773 5.5324 25.8773H1.96312V21.4157H5.5324C5.88932 21.4157 6.24624 21.0588 6.24624 20.7018C6.24624 20.3449 5.88932 19.988 5.5324 19.988H2.14156C2.32003 18.5603 2.85542 17.1325 3.9262 16.0618C4.99699 14.991 6.60317 14.4556 8.03088 14.4556H8.20936L13.0279 14.2771C13.5633 14.2771 14.2771 14.0987 14.8125 13.7417L25.5204 6.96011C31.5881 3.21237 38.5482 1.0708 45.5083 1.0708C53.5392 1.0708 61.3916 3.74774 67.8163 8.3878L76.2041 14.634C78.3457 16.2402 80.8442 16.9541 83.3427 17.1326L115.645 17.668C118.857 17.8464 121.534 19.4526 122.962 21.9511H116.002C115.645 21.9511 115.288 22.308 115.288 22.6649C115.288 23.0219 115.645 23.3788 116.002 23.3788H123.676C124.032 24.4496 124.389 25.5204 124.389 26.7696C124.389 28.1973 124.211 29.4466 123.676 30.6958H111.54Z" fill="url(#paint0_linear_0_1259)"/>
<path d="M105.474 30.697C104.225 29.4477 102.619 28.7339 100.655 28.7339C98.6923 28.7339 97.0861 29.4477 95.8369 30.697C95.4799 31.0539 95.123 31.5893 94.7661 32.1247C94.0523 33.1955 93.6953 34.4447 93.6953 35.694C93.6953 36.9432 94.0523 38.1925 94.7661 39.2633C95.123 39.7986 95.4799 40.1556 95.8369 40.691C97.0861 41.9402 98.8708 42.6541 100.655 42.6541C102.44 42.6541 104.225 41.9402 105.474 40.691C105.831 40.334 106.188 39.7986 106.545 39.2633C107.08 38.1925 107.616 37.1217 107.616 35.694C107.616 34.4447 107.259 33.1955 106.545 32.1247C106.188 31.5893 105.831 31.2324 105.474 30.697ZM104.76 39.2633C104.225 39.7986 103.689 40.334 102.975 40.691C102.262 41.0479 101.369 41.4048 100.477 41.4048C99.5846 41.4048 98.6923 41.2264 97.9785 40.691C97.2646 40.334 96.7292 39.7986 96.1938 39.2633C95.48 38.3709 94.9446 37.1217 94.9446 35.694C94.9446 34.2663 95.48 33.1955 96.1938 32.1247C96.7292 31.5893 97.2646 31.0539 97.9785 30.697C98.6923 30.34 99.5846 30.1616 100.477 30.1616C101.369 30.1616 102.083 30.34 102.975 30.697C103.689 31.0539 104.225 31.5893 104.76 32.1247C105.652 33.017 106.009 34.2663 106.009 35.694C106.188 36.9432 105.652 38.1925 104.76 39.2633Z" fill="url(#paint1_linear_0_1259)"/>
<path d="M45.6894 19.6289H42.1201C41.7632 19.6289 41.4062 19.9858 41.4062 20.3428C41.4062 20.6997 41.7632 21.0566 42.1201 21.0566H45.6894C46.0463 21.0566 46.4032 20.6997 46.4032 20.3428C46.4032 19.9858 46.0463 19.6289 45.6894 19.6289Z" fill="url(#paint2_linear_0_1259)"/>
<path d="M31.4114 30.697C30.1622 29.4477 28.556 28.7339 26.5929 28.7339C24.8083 28.7339 23.0236 29.4477 21.7744 30.697C21.4174 31.0539 21.0605 31.5893 20.7036 32.1247C19.9898 33.1955 19.6328 34.4447 19.6328 35.694C19.6328 36.9432 19.9898 38.1925 20.7036 39.2633C21.0605 39.7986 21.4174 40.1556 21.7744 40.691C23.0236 41.9402 24.8083 42.6541 26.5929 42.6541C28.556 42.6541 30.1622 41.9402 31.4114 40.691C31.7684 40.334 32.1253 39.7986 32.4822 39.2633C33.0176 38.1925 33.553 37.1217 33.553 35.694C33.553 34.4447 33.1961 33.1955 32.4822 32.1247C32.1253 31.5893 31.7684 31.2324 31.4114 30.697ZM30.6976 39.2633C30.1622 39.7986 29.6268 40.334 28.9129 40.691C28.1991 41.0479 27.3068 41.4048 26.4145 41.4048C25.5221 41.4048 24.6298 41.2264 23.916 40.691C23.2021 40.334 22.6667 39.7986 22.1313 39.2633C21.4175 38.3709 20.8821 37.1217 20.8821 35.694C20.8821 34.2663 21.4175 33.1955 22.1313 32.1247C22.6667 31.5893 23.2021 31.0539 23.916 30.697C24.6298 30.34 25.5221 30.1616 26.4145 30.1616C27.3068 30.1616 28.0206 30.34 28.9129 30.697C29.6268 31.0539 30.1622 31.5893 30.6976 32.1247C31.5899 33.017 31.9468 34.2663 31.9468 35.694C32.1253 36.9432 31.5899 38.1925 30.6976 39.2633Z" fill="url(#paint3_linear_0_1259)"/>
<path d="M66.7465 10.353C63.5341 7.67604 59.7864 5.8914 55.6817 4.64216C51.577 3.39291 47.4723 3.03597 43.1892 3.3929L40.8692 3.57136C36.943 3.92829 33.1952 5.53448 30.1614 8.21144C28.7336 9.46069 28.3767 11.2453 28.9121 13.03C29.4475 14.8146 31.0537 15.8854 32.8383 16.0638L71.2081 18.027H71.3865C72.1004 18.027 72.6358 17.67 72.8142 16.9562C72.9927 16.2423 72.8142 15.5285 72.2789 15.1715L66.7465 10.353ZM33.1952 14.4577C31.5891 14.4577 30.6967 13.3869 30.5183 12.3161C30.1614 11.4238 30.1614 9.99607 31.4106 8.92528C33.1952 7.31911 35.3368 6.06986 37.6568 5.356L39.263 14.6361L33.1952 14.4577ZM71.565 16.4208L40.5123 14.8146L38.7276 5.17754C39.4415 4.99908 40.3338 4.82062 41.0476 4.82062L43.3677 4.64216C44.26 4.64216 45.1523 4.46368 46.0446 4.46368C49.257 4.46368 52.2909 4.99908 55.3248 5.8914C59.251 7.14065 62.8203 8.9253 65.8542 11.4238L71.7435 16.0638V16.2423L71.565 16.4208Z" fill="url(#paint4_linear_0_1259)"/>
<defs>
<linearGradient id="paint0_linear_0_1259" x1="0" y1="48.1853" x2="14.3402" y2="-27.3839" gradientUnits="userSpaceOnUse">
<stop stop-color="#5D3CF2"/>
<stop offset="1" stop-color="#FD5631"/>
</linearGradient>
<linearGradient id="paint1_linear_0_1259" x1="93.6953" y1="42.6541" x2="102.657" y2="24.4486" gradientUnits="userSpaceOnUse">
<stop stop-color="#5D3CF2"/>
<stop offset="1" stop-color="#FD5631"/>
</linearGradient>
<linearGradient id="paint2_linear_0_1259" x1="41.4062" y1="21.0566" x2="41.7262" y2="18.7819" gradientUnits="userSpaceOnUse">
<stop stop-color="#5D3CF2"/>
<stop offset="1" stop-color="#FD5631"/>
</linearGradient>
<linearGradient id="paint3_linear_0_1259" x1="19.6328" y1="42.6541" x2="28.5949" y2="24.4486" gradientUnits="userSpaceOnUse">
<stop stop-color="#5D3CF2"/>
<stop offset="1" stop-color="#FD5631"/>
</linearGradient>
<linearGradient id="paint4_linear_0_1259" x1="28.6758" y1="18.027" x2="32.5166" y2="-5.33174" gradientUnits="userSpaceOnUse">
<stop stop-color="#5D3CF2"/>
<stop offset="1" stop-color="#FD5631"/>
</linearGradient>
</defs>
</svg>
