<svg width="142" height="57" viewBox="0 0 142 57" fill="none" xmlns="http://www.w3.org/2000/svg">
<path d="M134.844 23.2091L130.009 21.4684C124.4 19.3409 118.791 17.02 113.375 14.3123L98.6763 7.15611C89.0058 2.51429 78.3683 0 67.7308 0H11.4487C9.12784 0 7.00031 0.967023 5.25963 2.5143C0.230988 7.54294 -0.155854 18.9541 0.0375554 23.4025V33.8466C0.0375554 42.1632 6.61349 48.7391 14.9301 48.7391H16.4773C18.6048 53.1875 23.0533 56.4755 28.2754 56.4755C33.4974 56.4755 38.1392 53.3809 40.0733 48.7391H103.125C105.252 53.1875 109.701 56.4755 114.923 56.4755C120.145 56.4755 124.787 53.3809 126.721 48.7391H127.107C135.231 48.7391 142 41.9698 142 33.8466C142 29.2048 139.099 24.9498 134.844 23.2091ZM14.7367 47.3853C11.4488 47.3853 8.35422 46.0314 6.03331 44.0973H15.3169C15.3169 45.2577 15.5103 46.4182 15.8971 47.3853H14.7367ZM39.6865 43.9039C39.6865 45.0643 39.4931 46.2248 39.1063 47.1919C38.9128 47.7721 38.7195 48.1589 38.526 48.7391C36.592 52.4139 32.7238 54.9282 28.2754 54.9282C23.827 54.9282 19.9588 52.4139 18.2181 48.7391C18.0247 48.3523 17.8313 47.7721 17.6379 47.1919C17.2511 46.2248 17.0575 45.0643 17.0575 43.9039C17.0575 43.7105 17.0575 43.7105 17.0575 43.5171C17.0575 43.1303 17.0576 42.7435 17.251 42.55C17.8313 36.7478 22.6664 32.1059 28.6621 32.1059C34.6578 32.1059 39.4931 36.7478 40.0733 42.55C40.0733 42.9369 40.2667 43.3237 40.2667 43.5171C39.8798 43.7105 39.8799 43.7105 39.6865 43.9039ZM40.847 47.3853C41.2338 46.2248 41.4272 45.2577 41.4272 44.0973H101.964C101.964 45.2577 102.158 46.4182 102.544 47.3853H40.847ZM126.527 43.9039C126.527 45.0643 126.334 46.2248 125.947 47.1919C125.754 47.7721 125.56 48.1589 125.367 48.7391C123.433 52.4139 119.565 54.9282 115.31 54.9282C110.861 54.9282 106.993 52.4139 105.059 48.7391C104.865 48.3523 104.672 47.7721 104.479 47.1919C104.092 46.2248 103.898 45.0643 103.898 43.9039C103.898 43.7105 103.898 43.7105 103.898 43.5171C103.898 43.1303 103.898 42.7435 104.092 42.55C104.672 36.7478 109.507 32.1059 115.503 32.1059C121.499 32.1059 126.334 36.7478 126.914 42.55C126.914 42.9369 127.107 43.3237 127.107 43.5171C126.527 43.7105 126.527 43.7105 126.527 43.9039ZM127.494 47.3853C127.881 46.2248 128.075 45.2577 128.075 44.0973H136.198C133.683 46.0314 130.782 47.1919 127.494 47.3853ZM137.552 42.55H128.075C127.494 35.7807 121.885 30.5586 115.116 30.5586C108.347 30.5586 102.738 35.7807 102.158 42.55H41.4272C40.847 35.7807 35.2381 30.5586 28.4687 30.5586C21.6994 30.5586 16.0905 35.7807 15.5103 42.55H4.87279C2.93869 40.2291 1.77829 37.1346 1.77829 33.8466V31.9125H5.64647C6.03329 31.9125 6.42004 31.5257 6.42004 31.1388C6.42004 30.752 6.03329 30.3652 5.64647 30.3652H1.77829V28.0443H8.35413C8.74095 28.0443 9.12782 27.6575 9.12782 27.2707C9.12782 26.8838 8.74095 26.497 8.35413 26.497H1.39144V23.2091C1.39144 18.7607 1.58485 7.92975 6.22668 3.28792C7.58054 1.74065 9.32118 1.16041 11.2553 1.16041H67.5374C77.9815 1.16041 88.4257 3.67474 97.9027 8.12315L112.602 15.2793C118.017 17.9871 123.82 20.3079 129.428 22.4354L134.264 24.1762C136.391 24.9498 137.938 26.497 139.099 28.4311H132.33C131.943 28.4311 131.556 28.8179 131.556 29.2048C131.556 29.5916 131.943 29.9784 132.33 29.9784H139.872C140.259 31.1389 140.453 32.2993 140.453 33.4598C140.646 37.1346 139.486 40.0357 137.552 42.55Z" fill="url(#paint0_linear_0_1286)"/>
<path d="M114.922 35.9766C111.247 35.9766 108.153 38.6843 107.572 42.3591C107.572 42.7459 107.379 43.1327 107.379 43.3261C107.379 43.5196 107.379 43.5195 107.379 43.7129C107.379 44.8734 107.766 46.0339 108.346 47.0009C108.733 47.5811 109.12 47.9679 109.506 48.5482C110.86 49.902 112.794 50.6757 114.728 50.6757C116.856 50.6757 118.597 49.902 119.951 48.5482C120.337 48.1613 120.724 47.5811 121.111 47.0009C121.691 46.0339 122.078 44.8734 122.078 43.7129C122.078 43.5195 122.078 43.5196 122.078 43.3261C122.078 42.9393 122.078 42.5525 121.885 42.3591C121.885 38.8777 118.79 35.9766 114.922 35.9766ZM120.918 43.9064C120.918 45.2602 120.337 46.4207 119.564 47.1943C118.983 47.7746 118.403 48.3548 117.63 48.7416C116.856 49.1284 115.889 49.5152 114.922 49.5152C113.955 49.5152 112.988 49.3218 112.214 48.7416C111.441 48.3548 110.86 47.7746 110.28 47.1943C109.506 46.2273 108.926 45.0668 108.926 43.9064C108.926 43.7129 108.926 43.713 108.926 43.5196C108.926 43.1328 108.926 42.7459 109.12 42.5525C109.7 39.8448 112.021 37.7173 114.922 37.7173C117.823 37.7173 120.337 39.8448 120.724 42.5525C120.724 42.9393 120.918 43.3262 120.918 43.5196C120.918 43.713 120.918 43.7129 120.918 43.9064Z" fill="url(#paint1_linear_0_1286)"/>
<path d="M77.0168 25.1445H73.1486C72.7617 25.1445 72.375 25.5313 72.375 25.9182C72.375 26.305 72.7617 26.6918 73.1486 26.6918H77.0168C77.4036 26.6918 77.7904 26.305 77.7904 25.9182C77.7904 25.5313 77.4036 25.1445 77.0168 25.1445Z" fill="url(#paint2_linear_0_1286)"/>
<path d="M41.8137 25.1445H37.9456C37.5587 25.1445 37.1719 25.5313 37.1719 25.9182C37.1719 26.305 37.5587 26.6918 37.9456 26.6918H41.8137C42.2006 26.6918 42.5873 26.305 42.5873 25.9182C42.5873 25.5313 42.2006 25.1445 41.8137 25.1445Z" fill="url(#paint3_linear_0_1286)"/>
<path d="M28.2735 35.9766C24.5987 35.9766 21.5041 38.6843 20.9238 42.3591C20.9238 42.7459 20.7305 43.1327 20.7305 43.3261C20.7305 43.5196 20.7305 43.5195 20.7305 43.7129C20.7305 44.8734 21.1173 46.0339 21.6975 47.0009C22.0843 47.5811 22.4711 47.9679 22.8579 48.5482C24.2118 49.902 26.1459 50.6757 28.08 50.6757C30.2075 50.6757 31.9482 49.902 33.3021 48.5482C33.6889 48.1613 34.0757 47.5811 34.4625 47.0009C35.0427 46.0339 35.4295 44.8734 35.4295 43.7129C35.4295 43.5195 35.4295 43.5196 35.4295 43.3261C35.4295 42.9393 35.4296 42.5525 35.2362 42.3591C35.2362 38.8777 32.1417 35.9766 28.2735 35.9766ZM34.2691 43.9064C34.2691 45.2602 33.6889 46.4207 32.9152 47.1943C32.335 47.7746 31.7548 48.3548 30.9811 48.7416C30.2075 49.1284 29.2405 49.5152 28.2735 49.5152C27.3064 49.5152 26.3393 49.3218 25.5657 48.7416C24.7921 48.3548 24.2118 47.7746 23.6316 47.1943C22.858 46.2273 22.2777 45.0668 22.2777 43.9064C22.2777 43.7129 22.2777 43.713 22.2777 43.5196C22.2777 43.1328 22.2778 42.7459 22.4712 42.5525C23.0514 39.8448 25.3723 37.7173 28.2735 37.7173C31.1746 37.7173 33.6889 39.8448 34.0758 42.5525C34.0758 42.9393 34.2691 43.3262 34.2691 43.5196C34.2691 43.713 34.2691 43.7129 34.2691 43.9064Z" fill="url(#paint4_linear_0_1286)"/>
<path d="M116.081 20.6928L100.028 12.1828C95.9666 10.0553 92.6786 8.50808 89.584 7.54104C81.8476 5.02672 73.9179 3.67285 65.7947 3.67285H14.3479C9.31925 3.67285 5.25763 7.92784 5.25763 13.1499C5.25763 18.9522 9.70607 23.594 15.3149 23.594H115.308C116.081 23.594 116.661 23.2072 116.855 22.4335C117.048 21.8533 116.661 21.0797 116.081 20.6928ZM15.1215 22.2402C10.4796 22.0467 6.80488 18.1785 6.80488 13.3433C6.80488 8.8949 10.2862 5.41352 14.5413 5.41352H15.1215V22.2402ZM30.5942 22.2402H16.4753V5.2201H30.5942V22.2402ZM34.8492 22.2402H32.1416V5.2201H34.8492V22.2402ZM69.276 22.2402H36.2031V5.2201H65.7947C66.9552 5.2201 68.1156 5.22011 69.276 5.41352V22.2402ZM70.8234 22.2402V5.41352C77.0125 5.80034 83.2016 6.96079 89.1973 9.08829C92.2918 10.0553 95.5798 11.6026 99.448 13.7301L115.501 22.2402H70.8234Z" fill="url(#paint5_linear_0_1286)"/>
<defs>
<linearGradient id="paint0_linear_0_1286" x1="0" y1="56.4755" x2="17.302" y2="-31.8972" gradientUnits="userSpaceOnUse">
<stop stop-color="#5D3CF2"/>
<stop offset="1" stop-color="#FD5631"/>
</linearGradient>
<linearGradient id="paint1_linear_0_1286" x1="107.379" y1="50.6757" x2="116.842" y2="31.4515" gradientUnits="userSpaceOnUse">
<stop stop-color="#5D3CF2"/>
<stop offset="1" stop-color="#FD5631"/>
</linearGradient>
<linearGradient id="paint2_linear_0_1286" x1="72.375" y1="26.6918" x2="72.7217" y2="24.2266" gradientUnits="userSpaceOnUse">
<stop stop-color="#5D3CF2"/>
<stop offset="1" stop-color="#FD5631"/>
</linearGradient>
<linearGradient id="paint3_linear_0_1286" x1="37.1719" y1="26.6918" x2="37.5186" y2="24.2266" gradientUnits="userSpaceOnUse">
<stop stop-color="#5D3CF2"/>
<stop offset="1" stop-color="#FD5631"/>
</linearGradient>
<linearGradient id="paint4_linear_0_1286" x1="20.7305" y1="50.6757" x2="30.194" y2="31.4516" gradientUnits="userSpaceOnUse">
<stop stop-color="#5D3CF2"/>
<stop offset="1" stop-color="#FD5631"/>
</linearGradient>
<linearGradient id="paint5_linear_0_1286" x1="5.25763" y1="23.594" x2="8.07888" y2="-8.52562" gradientUnits="userSpaceOnUse">
<stop stop-color="#5D3CF2"/>
<stop offset="1" stop-color="#FD5631"/>
</linearGradient>
</defs>
</svg>
