<svg width="140" height="69" viewBox="0 0 140 69" fill="none" xmlns="http://www.w3.org/2000/svg">
<path d="M123.768 27.3913L112 26.5797C110.174 26.3768 108.754 25.7681 107.536 24.3478L99.2174 15.0145C90.4927 5.47831 78.3189 0 65.3334 0H61.2754C58.2319 0 55.7971 2.43481 55.7971 5.47829V21.5072H2.63766C2.23186 21.5072 1.82607 21.913 1.82607 22.3188C1.82607 22.7246 2.23186 23.1305 2.63766 23.1305H6.89854V27.1885H6.28987C3.04349 27.1885 0.60872 29.6232 0.405822 32.8696L0 44.4348C0 51.5363 5.68113 57.2174 12.7826 57.2174H16.8406C18.0579 63.5073 23.5362 68.1739 30.2319 68.1739C36.7246 68.1739 42.4058 63.5073 43.6232 57.2174H101.043C102.261 63.5073 107.739 68.1739 114.435 68.1739C121.13 68.1739 126.609 63.5073 127.826 57.2174C131.072 57.0145 134.116 55.5942 136.348 53.1594C138.783 50.7247 140 47.4783 140 44.029C139.391 35.3044 132.493 28.2029 123.768 27.3913ZM49.7101 23.3333H55.5942V24.9565C55.5942 26.3768 54.5797 27.3913 53.1594 27.3913H49.7101V23.3333ZM29.0145 23.3333H48.087V27.3913H29.0145V23.3333ZM8.31885 23.3333H27.3913V27.3913H8.31885V23.3333ZM1.42031 39.1594H5.68113C6.08693 39.1594 6.49278 38.7537 6.49278 38.3479C6.49278 37.9421 6.08693 37.5362 5.68113 37.5362H1.42031L1.62316 33.0724C1.82606 30.8406 3.65216 29.0145 5.88405 29.0145H7.30436H28H48.6957H52.7536C54.9855 29.0145 56.8116 27.1884 56.8116 24.9565V5.68113C56.8116 3.44925 58.6377 1.62316 60.8696 1.62316H64.9275C77.3043 1.62316 89.2754 6.8986 97.5942 16.029L105.913 25.3623C107.333 26.9855 109.362 28 111.391 28L123.159 28.8116C127.217 29.2174 130.87 31.0435 133.507 33.8841H125.391C124.985 33.8841 124.58 34.2898 124.58 34.6956C124.58 35.1014 124.985 35.5072 125.391 35.5072H134.725C136.348 37.942 137.362 40.5797 137.565 43.826H121.739C119.507 42 116.667 40.9855 113.623 40.9855C110.58 40.9855 107.739 42 105.507 43.826H37.7391C35.5073 42 32.6667 40.9855 29.6232 40.9855C26.5797 40.9855 23.7391 42 21.5073 43.826H1.2174L1.42031 39.1594ZM16.2319 55.7971H12.3768C6.49277 55.7971 1.6232 51.1305 1.2174 45.4493H19.6812C17.4493 47.8841 16.029 51.1304 16.029 54.7826C16.2319 54.9855 16.2319 55.3913 16.2319 55.7971ZM41.7971 55.7971C41.7971 56 41.7971 56.4058 41.7971 56.6087C41.7971 56.8116 41.7971 57.2174 41.5942 57.4203C40.3768 62.6956 35.5073 66.7537 29.8261 66.7537C24.145 66.7537 19.2753 62.6956 18.058 57.4203C18.058 57.2174 18.0579 56.8116 17.855 56.6087C17.855 56.4058 17.855 56 17.855 55.7971C17.855 55.3913 17.6522 54.9856 17.6522 54.5798C17.6522 50.7247 19.4782 47.4782 22.1159 45.2464C22.5217 45.0435 22.7246 44.6377 23.1304 44.4348C23.5362 44.2319 24.1449 43.8261 24.5507 43.6232C26.1739 42.8116 27.7971 42.4058 29.6232 42.4058C31.4493 42.4058 33.2754 42.8116 34.6957 43.6232C35.1015 43.8261 35.7101 44.029 36.1159 44.4348C36.5217 44.6377 36.7246 45.0435 37.1304 45.2464C39.7681 47.4782 41.5942 50.7247 41.5942 54.5798C42 54.9856 41.7971 55.3913 41.7971 55.7971ZM100.638 55.7971H43.6232C43.6232 55.3913 43.6232 54.9856 43.6232 54.5798C43.6232 50.9276 42.2029 47.6811 39.971 45.2464H104.29C102.058 47.6811 100.638 50.9276 100.638 54.5798C100.435 54.9856 100.435 55.3913 100.638 55.7971ZM126 55.7971C126 56 126 56.4058 126 56.6087C126 56.8116 126 57.2174 125.797 57.4203C124.58 62.6956 119.71 66.7537 114.029 66.7537C108.348 66.7537 103.478 62.6956 102.261 57.4203C102.261 57.2174 102.261 56.8116 102.058 56.6087C102.058 56.4058 102.058 56 102.058 55.7971C102.058 55.3913 101.855 54.9856 101.855 54.5798C101.855 50.7247 103.681 47.4782 106.319 45.2464C106.725 45.0435 106.928 44.6377 107.333 44.4348C107.739 44.2319 108.348 43.8261 108.754 43.6232C110.377 42.8116 112 42.4058 113.826 42.4058C115.652 42.4058 117.478 42.8116 118.899 43.6232C119.304 43.8261 119.913 44.029 120.319 44.4348C120.725 44.6377 120.928 45.0435 121.333 45.2464C123.971 47.4782 125.797 50.7247 125.797 54.5798C126.203 54.9856 126.203 55.3913 126 55.7971ZM134.928 52.3478C133.101 54.3768 130.464 55.3913 127.826 55.7971C127.826 55.3913 127.826 55.1884 127.826 54.7826C127.826 51.1304 126.406 47.8841 124.174 45.4493H138.174C137.768 47.8841 136.754 50.3188 134.928 52.3478Z" fill="url(#paint0_linear_0_1250)"/>
<path d="M114.03 46.875C109.769 46.875 106.117 50.3243 106.117 54.7881C106.117 55.1939 106.117 55.5996 106.32 56.0054C106.32 56.2083 106.32 56.6142 106.523 56.8171C106.523 57.02 106.726 57.4258 106.726 57.6287C107.74 60.6722 110.784 62.7012 114.03 62.7012C117.48 62.7012 120.32 60.4693 121.335 57.6287C121.335 57.4258 121.538 57.02 121.538 56.8171C121.538 56.6142 121.74 56.2083 121.74 56.0054C121.74 55.5996 121.943 55.1939 121.943 54.7881C121.943 50.3243 118.494 46.875 114.03 46.875ZM120.32 55.8026C120.32 56.0055 120.117 56.4113 120.117 56.6142C120.117 56.8171 119.914 57.2229 119.711 57.4257C118.697 59.4547 116.668 60.875 114.03 60.875C111.596 60.875 109.364 59.4547 108.349 57.4257C108.146 57.2229 108.146 56.8171 107.943 56.6142C107.943 56.4113 107.74 56.0055 107.74 55.8026C107.74 55.3968 107.538 54.991 107.538 54.5852C107.538 51.136 110.378 48.2953 113.827 48.2953C117.277 48.2953 120.117 51.136 120.117 54.5852C120.32 54.991 120.32 55.3968 120.32 55.8026Z" fill="url(#paint1_linear_0_1250)"/>
<path d="M29.8272 46.875C25.5663 46.875 21.9141 50.3243 21.9141 54.7881C21.9141 55.1939 21.9141 55.5996 22.117 56.0054C22.117 56.2083 22.117 56.6142 22.3199 56.8171C22.3199 57.02 22.5228 57.4258 22.5228 57.6287C23.5373 60.6722 26.5808 62.7012 29.8272 62.7012C33.2764 62.7012 36.117 60.4693 37.1315 57.6287C37.1315 57.4258 37.3344 57.02 37.3344 56.8171C37.3344 56.6142 37.5373 56.2083 37.5373 56.0054C37.5373 55.5996 37.7402 55.1939 37.7402 54.7881C37.7402 50.3243 34.2909 46.875 29.8272 46.875ZM36.117 55.8026C36.117 56.0055 35.9141 56.4113 35.9141 56.6142C35.9141 56.8171 35.7112 57.2229 35.5083 57.4257C34.4938 59.4547 32.4648 60.875 29.8272 60.875C27.3924 60.875 25.1605 59.4547 24.146 57.4257C23.9431 57.2229 23.9431 56.8171 23.7402 56.6142C23.7402 56.4113 23.5373 56.0055 23.5373 55.8026C23.5373 55.3968 23.3344 54.991 23.3344 54.5852C23.3344 51.136 26.175 48.2953 29.6242 48.2953C33.0735 48.2953 35.9141 51.136 35.9141 54.5852C36.117 54.991 36.117 55.3968 36.117 55.8026Z" fill="url(#paint2_linear_0_1250)"/>
<path d="M65.1288 29.2189L100.636 29.0159C101.448 29.0159 102.259 28.4072 102.665 27.5956C103.071 26.784 102.868 25.7696 102.259 25.1609L96.578 18.6682C88.8679 9.74063 77.9114 4.87109 66.1433 4.87109H63.0998C62.2882 4.87109 61.4766 5.68266 61.4766 6.49426V25.7696C61.4766 26.7841 61.8824 27.5957 62.4911 28.2044C63.5055 28.8131 64.3172 29.2189 65.1288 29.2189ZM63.3027 6.29128H66.3462C77.5056 6.29128 88.2592 11.1609 95.5636 19.6827L101.245 26.1754C101.448 26.5812 101.448 26.7841 101.448 26.987C101.448 26.987 101.245 27.3928 100.839 27.3928L65.3317 27.5956C64.723 27.5956 64.3172 27.3928 63.9114 26.987C63.5056 26.5812 63.3027 26.1753 63.3027 25.5666V6.29128Z" fill="url(#paint3_linear_0_1250)"/>
<path d="M70.4048 34.2852H66.3468C65.941 34.2852 65.5352 34.6909 65.5352 35.0967C65.5352 35.5025 65.941 35.9083 66.3468 35.9083H70.4048C70.8106 35.9083 71.2163 35.5025 71.2163 35.0967C71.2163 34.6909 70.8106 34.2852 70.4048 34.2852Z" fill="url(#paint4_linear_0_1250)"/>
<defs>
<linearGradient id="paint0_linear_0_1250" x1="0" y1="68.1739" x2="25.1098" y2="-36.5743" gradientUnits="userSpaceOnUse">
<stop stop-color="#5D3CF2"/>
<stop offset="1" stop-color="#FD5631"/>
</linearGradient>
<linearGradient id="paint1_linear_0_1250" x1="106.117" y1="62.7012" x2="116.306" y2="42.003" gradientUnits="userSpaceOnUse">
<stop stop-color="#5D3CF2"/>
<stop offset="1" stop-color="#FD5631"/>
</linearGradient>
<linearGradient id="paint2_linear_0_1250" x1="21.9141" y1="62.7012" x2="32.1033" y2="42.003" gradientUnits="userSpaceOnUse">
<stop stop-color="#5D3CF2"/>
<stop offset="1" stop-color="#FD5631"/>
</linearGradient>
<linearGradient id="paint3_linear_0_1250" x1="61.4766" y1="29.2189" x2="72.044" y2="-7.28146" gradientUnits="userSpaceOnUse">
<stop stop-color="#5D3CF2"/>
<stop offset="1" stop-color="#FD5631"/>
</linearGradient>
<linearGradient id="paint4_linear_0_1250" x1="65.5352" y1="35.9083" x2="65.8989" y2="33.3222" gradientUnits="userSpaceOnUse">
<stop stop-color="#5D3CF2"/>
<stop offset="1" stop-color="#FD5631"/>
</linearGradient>
</defs>
</svg>
