<svg width="125" height="49" viewBox="0 0 125 49" fill="none" xmlns="http://www.w3.org/2000/svg">
<path d="M115.317 16.6013L97.1089 15.8873C96.2164 15.8873 95.1453 15.5303 94.4313 15.1733L82.8282 7.31887C75.6879 2.49913 67.2979 0 58.551 0H41.7711C37.8439 0 34.0952 1.07106 30.7036 3.03466L13.5667 12.8527C13.2097 13.0312 12.8527 13.2097 12.4956 13.2097L7.6759 13.3882C5.7123 13.3882 3.7487 14.1022 2.32062 15.5303C0.892551 16.9584 0 18.7435 0 20.8856V27.3119C0 34.8093 6.0693 41.0571 13.7452 41.0571H15.1733C17.1369 45.1628 21.2426 48.1975 26.0623 48.1975C30.8821 48.1975 35.1663 45.3413 36.9514 41.0571H89.076C91.0396 45.1628 95.1454 48.1975 99.9651 48.1975C104.785 48.1975 109.069 45.3413 110.854 41.0571H111.211C118.709 41.0571 124.956 34.9878 124.956 27.3119C125.492 21.2426 121.029 16.7799 115.317 16.6013ZM14.8163 39.272H13.9237C9.10397 39.272 4.81973 36.4159 2.85613 32.3101H14.9948C14.6377 33.3812 14.4592 34.6308 14.4592 35.8803C14.4592 36.9514 14.6378 38.201 14.8163 39.272ZM36.4158 39.272C36.2373 39.8075 36.0588 40.1645 35.8803 40.7001C34.0952 44.0918 30.525 46.4124 26.5978 46.4124C22.6706 46.4124 18.9219 44.0918 17.1369 40.7001C16.9583 40.3431 16.7799 39.8075 16.6014 39.272C16.2443 38.201 15.8873 36.9514 15.8873 35.7018C15.8873 34.4523 16.0658 33.2027 16.6014 32.1316C16.7799 31.5961 16.9583 31.2391 17.1369 30.7036C18.9219 27.3119 22.4922 24.9913 26.4194 24.9913C30.3466 24.9913 33.9167 27.3119 35.7018 30.7036C35.8803 31.0606 36.0588 31.5961 36.2374 32.1316C36.5944 33.2027 36.9514 34.4523 36.9514 35.7018C36.9514 36.9514 36.7729 38.201 36.4158 39.272ZM89.076 39.272H37.8439C38.2009 38.201 38.3795 36.9514 38.3795 35.7018C38.3795 34.4523 38.2009 33.2027 37.8439 32.1316H89.076C88.719 33.2027 88.5405 34.4523 88.5405 35.7018C88.5405 36.9514 88.719 38.201 89.076 39.272ZM110.497 39.272C110.319 39.8075 110.14 40.1645 109.962 40.7001C108.177 44.0918 104.606 46.4124 100.679 46.4124C96.5734 46.4124 93.0032 44.0918 91.3967 40.7001C91.2182 40.3431 91.0396 39.8075 90.8611 39.272C90.5041 38.201 90.1471 36.9514 90.1471 35.7018C90.1471 34.4523 90.3256 33.2027 90.8611 32.1316C91.0396 31.5961 91.2182 31.2391 91.3967 30.7036C93.1818 27.3119 96.7519 24.9913 100.679 24.9913C104.606 24.9913 108.177 27.3119 109.962 30.7036C110.14 31.0606 110.319 31.5961 110.497 32.1316C110.854 33.2027 111.211 34.4523 111.211 35.7018C111.033 36.9514 110.854 38.201 110.497 39.272ZM111.925 39.272C112.282 38.201 112.461 36.9514 112.461 35.7018C112.461 34.4523 112.282 33.2027 111.925 32.1316H122.814C120.851 36.2374 116.745 39.0935 111.925 39.272ZM111.39 30.8821C109.426 26.7764 105.32 23.7417 100.501 23.7417C95.6809 23.7417 91.3967 26.5979 89.6116 30.8821H37.3084C35.3448 26.7764 31.2391 23.7417 26.4194 23.7417C21.5996 23.7417 17.3154 26.5979 15.5303 30.8821H2.32062C1.96361 29.811 1.78509 28.74 1.78509 27.4904H5.35527C5.71229 27.4904 6.0693 27.1334 6.0693 26.7764C6.0693 26.4193 5.71229 26.0623 5.35527 26.0623H1.78509V21.5996H5.35527C5.71229 21.5996 6.0693 21.2426 6.0693 20.8856C6.0693 20.5285 5.71229 20.1715 5.35527 20.1715H1.96358C2.14209 18.7435 2.67762 17.3154 3.74868 16.2443C4.81973 15.1733 6.42632 14.6377 7.85439 14.6377H8.03291L12.8527 14.4592C13.3882 14.4592 14.1022 14.2807 14.6377 13.9237L31.7746 3.9272C34.9878 2.14211 38.558 1.07106 42.1281 1.07106H58.908C67.2979 1.07106 75.3308 3.57018 82.2927 8.21142L93.8958 16.0658C94.9668 16.6013 96.0379 16.9584 97.2875 17.1369L115.495 17.8509C118.709 18.0294 121.386 19.636 122.814 22.1351H115.852C115.495 22.1351 115.138 22.4921 115.138 22.8492C115.138 23.2062 115.495 23.5632 115.852 23.5632H123.528C123.885 24.6343 124.242 25.7053 124.242 26.9549C124.242 28.383 124.064 29.6325 123.528 30.8821H111.39Z" fill="url(#paint0_linear_0_1296)"/>
<path d="M59.4432 4.10559H44.0914C40.3427 4.10559 36.594 5.71217 33.9164 8.56832C32.6668 9.81788 32.3098 11.7815 33.0238 13.3881C33.7379 14.9946 35.1659 16.0657 36.951 16.0657L86.9336 17.6723C87.2906 17.6723 87.6476 17.4938 87.6476 17.1368V16.6012L83.1849 12.8525C76.7585 7.31876 68.1901 4.10559 59.4432 4.10559ZM36.951 14.8161C35.7015 14.8161 34.6304 14.1021 34.2734 12.8525C33.7379 11.7815 34.0949 10.5319 34.9874 9.46086C37.308 6.96174 40.6997 5.53367 44.0914 5.53367H56.944L60.5142 15.5302L36.951 14.8161ZM61.9423 15.7087C61.9423 15.7087 61.9423 15.5302 61.9423 15.7087L58.3721 5.53367H59.4432C67.8331 5.53367 76.0445 8.56832 82.4708 13.9236L85.327 16.4227L61.9423 15.7087Z" fill="url(#paint1_linear_0_1296)"/>
<path d="M105.321 30.8821C104.071 29.6325 102.465 28.9185 100.501 28.9185C98.5377 28.9185 96.9311 29.6325 95.6815 30.8821C95.3245 31.2391 94.9675 31.7746 94.6105 32.3101C93.8965 33.3812 93.5394 34.6307 93.5394 35.8803C93.5394 37.1299 93.8965 38.3794 94.6105 39.4505C94.9675 39.986 95.3245 40.343 95.6815 40.8786C96.9311 42.1281 98.7162 42.8422 100.501 42.8422C102.286 42.8422 104.071 42.1281 105.321 40.8786C105.678 40.5216 106.035 39.986 106.392 39.4505C106.928 38.3794 107.463 37.3084 107.463 35.8803C107.463 34.6307 107.106 33.3812 106.392 32.3101C106.035 31.7746 105.678 31.2391 105.321 30.8821ZM104.607 39.272C104.071 39.8075 103.536 40.343 102.822 40.7001C102.108 41.0571 101.215 41.4141 100.323 41.4141C99.4302 41.4141 98.5377 41.2356 97.8237 40.7001C97.1096 40.343 96.5741 39.8075 96.0386 39.272C95.3245 38.3794 94.789 37.1299 94.789 35.7018C94.789 34.2737 95.3245 33.2027 96.0386 32.1316C96.5741 31.5961 97.1096 31.0606 97.8237 30.7035C98.5377 30.3465 99.4302 30.168 100.323 30.168C101.215 30.168 101.929 30.3465 102.822 30.7035C103.536 31.0606 104.071 31.5961 104.607 32.1316C105.5 33.0242 105.857 34.2737 105.857 35.7018C106.035 37.1299 105.5 38.3794 104.607 39.272Z" fill="url(#paint2_linear_0_1296)"/>
<path d="M67.2998 20.707H63.7297C63.3726 20.707 63.0156 21.064 63.0156 21.4211C63.0156 21.7781 63.3726 22.1351 63.7297 22.1351H67.2998C67.6569 22.1351 68.0139 21.7781 68.0139 21.4211C68.0139 21.064 67.8354 20.707 67.2998 20.707Z" fill="url(#paint3_linear_0_1296)"/>
<path d="M40.7022 20.707H37.132C36.775 20.707 36.418 21.064 36.418 21.4211C36.418 21.7781 36.775 22.1351 37.132 22.1351H40.7022C41.0592 22.1351 41.4162 21.7781 41.4162 21.4211C41.4162 21.064 41.0592 20.707 40.7022 20.707Z" fill="url(#paint4_linear_0_1296)"/>
<path d="M31.2396 30.8821C29.9901 29.6325 28.3835 28.9185 26.4199 28.9185C24.6348 28.9185 22.8497 29.6325 21.6001 30.8821C21.2431 31.2391 20.8861 31.7746 20.5291 32.3101C19.815 33.3812 19.458 34.6307 19.458 35.8803C19.458 37.1299 19.815 38.3794 20.5291 39.4505C20.8861 39.986 21.2431 40.343 21.6001 40.8786C22.8497 42.1281 24.6348 42.8422 26.4199 42.8422C28.3835 42.8422 29.9901 42.1281 31.2396 40.8786C31.5966 40.5216 31.9536 39.986 32.3107 39.4505C32.8462 38.3794 33.3817 37.3084 33.3817 35.8803C33.3817 34.6307 33.0247 33.3812 32.3107 32.3101C31.9536 31.7746 31.5966 31.2391 31.2396 30.8821ZM30.5256 39.272C29.99 39.8075 29.4545 40.343 28.7405 40.7001C28.0264 41.0571 27.1339 41.4141 26.2414 41.4141C25.3488 41.4141 24.4563 41.2356 23.7422 40.7001C23.0282 40.343 22.4927 39.8075 21.9572 39.272C21.2431 38.3794 20.7076 37.1299 20.7076 35.7018C20.7076 34.2737 21.2431 33.2027 21.9572 32.1316C22.4927 31.5961 23.0282 31.0606 23.7422 30.7035C24.4563 30.3465 25.3488 30.168 26.2414 30.168C27.1339 30.168 27.8479 30.3465 28.7405 30.7035C29.4545 31.0606 29.99 31.5961 30.5256 32.1316C31.4181 33.0242 31.7752 34.2737 31.7752 35.7018C31.9537 37.1299 31.4181 38.3794 30.5256 39.272Z" fill="url(#paint5_linear_0_1296)"/>
<defs>
<linearGradient id="paint0_linear_0_1296" x1="0" y1="48.1975" x2="14.3472" y2="-27.3894" gradientUnits="userSpaceOnUse">
<stop stop-color="#5D3CF2"/>
<stop offset="1" stop-color="#FD5631"/>
</linearGradient>
<linearGradient id="paint1_linear_0_1296" x1="32.6599" y1="17.6723" x2="35.2982" y2="-4.05014" gradientUnits="userSpaceOnUse">
<stop stop-color="#5D3CF2"/>
<stop offset="1" stop-color="#FD5631"/>
</linearGradient>
<linearGradient id="paint2_linear_0_1296" x1="93.5394" y1="42.8422" x2="102.504" y2="24.6321" gradientUnits="userSpaceOnUse">
<stop stop-color="#5D3CF2"/>
<stop offset="1" stop-color="#FD5631"/>
</linearGradient>
<linearGradient id="paint3_linear_0_1296" x1="63.0156" y1="22.1351" x2="63.3356" y2="19.8598" gradientUnits="userSpaceOnUse">
<stop stop-color="#5D3CF2"/>
<stop offset="1" stop-color="#FD5631"/>
</linearGradient>
<linearGradient id="paint4_linear_0_1296" x1="36.418" y1="22.1351" x2="36.738" y2="19.8598" gradientUnits="userSpaceOnUse">
<stop stop-color="#5D3CF2"/>
<stop offset="1" stop-color="#FD5631"/>
</linearGradient>
<linearGradient id="paint5_linear_0_1296" x1="19.458" y1="42.8422" x2="28.4223" y2="24.6321" gradientUnits="userSpaceOnUse">
<stop stop-color="#5D3CF2"/>
<stop offset="1" stop-color="#FD5631"/>
</linearGradient>
</defs>
</svg>
