<svg width="125" height="58" viewBox="0 0 125 58" fill="none" xmlns="http://www.w3.org/2000/svg">
<path d="M115.714 22.1618L93.1885 19.437C92.8252 19.437 92.6436 19.2553 92.462 19.0737L79.5645 3.99638C77.3846 1.45323 74.2965 0 70.8451 0H22.1618C18.7104 0 15.259 1.63489 13.0791 4.54135L1.63493 19.8003C0.545007 21.2535 0 22.8884 0 24.7049V38.874C0 43.597 3.81469 47.23 8.35604 47.23H13.8057C15.4406 52.8613 20.7085 57.0394 26.8848 57.0394C33.061 57.0394 38.329 52.8613 39.9639 47.23H86.649C88.2839 52.8613 93.5519 57.0394 99.7281 57.0394C105.904 57.0394 111.172 52.8613 112.807 47.23H119.528C122.616 47.23 124.978 44.6869 124.978 41.7804V33.2427C125.341 27.6114 121.163 22.8884 115.714 22.1618ZM13.2607 43.2337C13.2607 44.1419 13.2608 44.8686 13.4424 45.7768H8.35604C4.54131 45.7768 1.63486 42.8704 1.45321 39.0556H13.9874C13.4424 40.3272 13.2607 41.7804 13.2607 43.2337ZM39.0556 45.7768C39.0556 45.9585 38.874 46.3218 38.874 46.5034C38.874 46.6851 38.6923 47.0484 38.6923 47.23C37.0574 52.1347 32.5161 55.5861 27.0665 55.5861C21.6169 55.5861 17.0755 52.1347 15.4406 47.23C15.4406 47.0484 15.259 46.6851 15.259 46.5034C15.259 46.3218 15.0773 45.9585 15.0773 45.7768C14.8956 44.8686 14.8957 44.1419 14.8957 43.2337C14.8957 41.7804 15.0772 40.3272 15.6222 39.0556C15.6222 38.874 15.8039 38.5106 15.8039 38.329C15.9856 38.1473 15.9856 37.784 16.1673 37.6024C18.1655 33.606 22.3435 30.8812 27.2481 30.8812C31.9711 30.8812 36.1491 33.606 38.329 37.6024C38.5106 37.784 38.5106 38.1473 38.6923 38.329C38.874 38.5106 38.874 38.874 38.874 39.0556C39.419 40.3272 39.6006 41.7804 39.6006 43.2337C39.2373 44.1419 39.2373 44.8686 39.0556 45.7768ZM86.2857 43.2337C86.2857 44.1419 86.2857 44.8686 86.4673 45.7768H40.5088C40.6905 44.8686 40.6906 44.1419 40.6906 43.2337C40.6906 41.7804 40.5088 40.5089 40.1455 39.0556H87.0124C86.4674 40.3272 86.2857 41.7804 86.2857 43.2337ZM112.081 45.7768C112.081 45.9585 111.899 46.3218 111.899 46.5034C111.899 46.6851 111.717 47.0484 111.717 47.23C110.082 52.1347 105.541 55.5861 100.091 55.5861C94.6417 55.5861 90.1005 52.1347 88.4656 47.23C88.4656 47.0484 88.2838 46.6851 88.2838 46.5034C88.2838 46.3218 88.1022 45.9585 88.1022 45.7768C87.9206 44.8686 87.9206 44.1419 87.9206 43.2337C87.9206 41.7804 88.1022 40.3272 88.6472 39.0556C88.6472 38.874 88.8289 38.5106 88.8289 38.329C89.0106 38.1473 89.0105 37.784 89.1921 37.6024C91.1903 33.606 95.3684 30.8812 100.273 30.8812C104.996 30.8812 109.174 33.606 111.354 37.6024C111.536 37.784 111.536 38.1473 111.717 38.329C111.899 38.5106 111.899 38.874 111.899 39.0556C112.444 40.3272 112.626 41.7804 112.626 43.2337C112.262 44.1419 112.262 44.8686 112.081 45.7768ZM123.888 41.5988C123.888 43.7786 122.072 45.5952 119.892 45.5952H113.534C113.715 44.6869 113.715 43.9603 113.715 43.052C113.715 41.5988 113.534 40.3272 113.17 38.874H124.07V41.5988H123.888ZM123.888 37.6024H112.444C110.264 32.6977 105.541 29.428 99.9098 29.428C94.2785 29.428 89.5554 32.8794 87.3756 37.6024H39.419C37.2391 32.6977 32.5161 29.428 26.8848 29.428C21.2535 29.428 16.5306 32.8794 14.3507 37.6024H1.2716V32.8794H5.26801C5.63132 32.8794 5.99456 32.5161 5.99456 32.1528C5.99456 31.7895 5.63132 31.4262 5.26801 31.4262H1.2716V26.8848H5.26801C5.63132 26.8848 5.99456 26.5215 5.99456 26.1582C5.99456 25.7949 5.63132 25.4316 5.26801 25.4316H1.2716V24.5233C1.2716 23.0701 1.81659 21.6168 2.5432 20.5269L13.9874 5.26796C15.8039 2.7248 18.7103 1.27157 21.9801 1.27157H70.6635C73.57 1.27157 76.2947 2.54314 78.2929 4.72299L91.1904 19.8003C91.5537 20.3452 92.2802 20.7086 92.8252 20.7086L115.35 23.4334C118.438 23.7967 120.982 25.6132 122.435 28.1564H116.077C115.714 28.1564 115.35 28.5197 115.35 28.883C115.35 29.2463 115.714 29.6096 116.077 29.6096H123.161C123.525 30.6995 123.706 31.7894 123.706 32.8794V37.6024H123.888Z" fill="url(#paint0_linear_0_1306)"/>
<path d="M106.086 38.3264C105.904 38.1447 105.723 37.7814 105.541 37.5998C104.088 36.1466 102.09 35.2383 99.9098 35.2383C97.73 35.2383 95.7318 36.1466 94.2786 37.5998C94.0969 37.7814 93.9152 38.1447 93.7335 38.3264C93.5519 38.5081 93.3702 38.8714 93.1886 39.053C92.462 40.3246 91.917 41.5962 91.917 43.2311C91.917 44.1394 92.0987 45.0476 92.462 45.7742C92.462 45.9559 92.6437 46.3192 92.6437 46.5008C92.8253 46.6825 92.8253 47.0458 93.007 47.2274C94.4602 49.5889 96.8217 51.0422 99.7282 51.0422C102.635 51.0422 105.178 49.4073 106.449 47.2274C106.631 47.0458 106.631 46.6825 106.813 46.5008C106.994 46.3192 106.994 45.9559 106.994 45.7742C107.358 45.0476 107.539 44.1394 107.539 43.2311C107.539 41.7778 107.176 40.3246 106.268 39.053C106.449 38.8714 106.268 38.6897 106.086 38.3264ZM105.904 45.7742C105.723 45.9559 105.723 46.3192 105.541 46.5008C105.359 46.6825 105.178 47.0458 104.996 47.2274C103.906 48.6807 102.09 49.7706 99.9098 49.7706C97.73 49.7706 96.0951 48.8623 94.8235 47.2274C94.6419 47.0458 94.4602 46.6825 94.2786 46.5008C94.0969 46.3192 93.9153 45.9559 93.9153 45.7742C93.5519 45.0476 93.3703 44.1394 93.3703 43.2311C93.3703 41.5962 93.9153 40.3246 94.8235 39.053C95.0052 38.8714 95.1868 38.5081 95.5501 38.3264C95.9134 38.1447 96.095 37.7814 96.4583 37.5998C97.3666 37.0548 98.4566 36.6915 99.7282 36.6915C101 36.6915 102.09 37.0548 102.998 37.5998C103.361 37.7814 103.725 37.9631 103.906 38.3264C104.088 38.5081 104.451 38.6897 104.633 39.053C105.541 40.143 106.086 41.5962 106.086 43.2311C106.449 44.1394 106.268 44.866 105.904 45.7742Z" fill="url(#paint1_linear_0_1306)"/>
<path d="M33.2422 38.3264C33.0606 38.1447 32.879 37.7814 32.6973 37.5998C31.2441 36.1466 29.2459 35.2383 27.0661 35.2383C24.8862 35.2383 22.888 36.1466 21.4347 37.5998C21.2531 37.7814 21.0714 38.1447 20.8898 38.3264C20.7081 38.5081 20.5265 38.8714 20.3448 39.053C19.6182 40.3246 19.0732 41.5962 19.0732 43.2311C19.0732 44.1394 19.2549 45.0476 19.6182 45.7742C19.6182 45.9559 19.7999 46.3192 19.7999 46.5008C19.9816 46.6825 19.9815 47.0458 20.1631 47.2274C21.6164 49.5889 23.9779 51.0422 26.8843 51.0422C29.7908 51.0422 32.334 49.4073 33.6056 47.2274C33.7872 47.0458 33.7872 46.6825 33.9689 46.5008C34.1506 46.3192 34.1505 45.9559 34.1505 45.7742C34.5138 45.0476 34.6954 44.1394 34.6954 43.2311C34.6954 41.7778 34.3322 40.3246 33.424 39.053C33.424 38.8714 33.4239 38.6897 33.2422 38.3264ZM32.8789 45.7742C32.6973 45.9559 32.6973 46.3192 32.5157 46.5008C32.334 46.6825 32.1523 47.0458 31.9706 47.2274C30.8807 48.6807 29.0642 49.7706 26.8843 49.7706C24.7045 49.7706 23.0696 48.8623 21.7981 47.2274C21.6164 47.0458 21.4348 46.6825 21.2531 46.5008C21.0715 46.3192 20.8898 45.9559 20.8898 45.7742C20.5265 45.0476 20.3448 44.1394 20.3448 43.2311C20.3448 41.5962 20.8898 40.3246 21.7981 39.053C21.9797 38.8714 22.1614 38.5081 22.5247 38.3264C22.888 38.1447 23.0697 37.7814 23.433 37.5998C24.3413 37.0548 25.4312 36.6915 26.7027 36.6915C27.9743 36.6915 29.0642 37.0548 29.9725 37.5998C30.3358 37.7814 30.6991 37.9631 30.8808 38.3264C31.0624 38.5081 31.4258 38.6897 31.6074 39.053C32.5157 40.143 33.0606 41.5962 33.0606 43.2311C33.4239 44.1394 33.2422 44.866 32.8789 45.7742Z" fill="url(#paint2_linear_0_1306)"/>
<path d="M63.5783 22.5225H59.9452C59.5819 22.5225 59.2185 22.8858 59.2185 23.2491C59.2185 23.6124 59.5819 23.9757 59.9452 23.9757H63.5783C63.9416 23.9757 64.3049 23.6124 64.3049 23.2491C64.3049 22.8858 63.9416 22.5225 63.5783 22.5225Z" fill="url(#paint3_linear_0_1306)"/>
<path d="M38.3289 22.5225H34.6958C34.3325 22.5225 33.9692 22.8858 33.9692 23.2491C33.9692 23.6124 34.3325 23.9757 34.6958 23.9757H38.3289C38.6922 23.9757 39.0555 23.6124 39.0555 23.2491C39.0555 22.8858 38.6922 22.5225 38.3289 22.5225Z" fill="url(#paint4_linear_0_1306)"/>
<path d="M77.9281 6.90017C76.2932 4.72033 73.5684 3.44873 70.8435 3.44873H26.3383C23.4318 3.44873 20.8887 4.72031 19.0721 7.08181L11.4426 17.2545C10.8977 17.9811 10.8977 18.7077 11.261 19.4343C11.6243 20.1609 12.351 20.5242 13.0776 20.5242H84.4676C85.3759 20.5242 86.1024 19.9792 86.4658 19.2526C86.8291 18.526 86.6474 17.6177 86.2841 17.0728L77.9281 6.90017ZM13.4409 19.2526C13.0776 19.2526 12.8959 19.071 12.7142 18.8893C12.5326 18.7077 12.5326 18.3444 12.7142 18.1627L20.3437 7.99008C21.797 5.99189 23.9768 4.90197 26.3383 4.90197H31.7879L28.1548 19.2526H13.4409V19.2526ZM29.7898 19.2526L33.4229 4.90197H54.4947L56.3112 19.2526H29.7898ZM57.5828 19.2526L55.7663 4.90197H70.8435C71.3885 4.90197 71.9334 4.90198 72.2968 5.08363L77.7464 19.2526H57.5828ZM85.1943 18.8893C85.0126 19.071 84.8309 19.2526 84.4676 19.2526H79.3813L74.1133 5.62857C75.2032 6.17354 76.1115 6.90017 76.8381 7.80844L85.0125 18.1627C85.1942 18.3444 85.3759 18.526 85.1943 18.8893Z" fill="url(#paint5_linear_0_1306)"/>
<defs>
<linearGradient id="paint0_linear_0_1306" x1="0" y1="57.0394" x2="19.8181" y2="-31.1852" gradientUnits="userSpaceOnUse">
<stop stop-color="#5D3CF2"/>
<stop offset="1" stop-color="#FD5631"/>
</linearGradient>
<linearGradient id="paint1_linear_0_1306" x1="91.917" y1="51.0422" x2="102.163" y2="30.467" gradientUnits="userSpaceOnUse">
<stop stop-color="#5D3CF2"/>
<stop offset="1" stop-color="#FD5631"/>
</linearGradient>
<linearGradient id="paint2_linear_0_1306" x1="19.0732" y1="51.0422" x2="29.3196" y2="30.4671" gradientUnits="userSpaceOnUse">
<stop stop-color="#5D3CF2"/>
<stop offset="1" stop-color="#FD5631"/>
</linearGradient>
<linearGradient id="paint3_linear_0_1306" x1="59.2185" y1="23.9757" x2="59.5442" y2="21.6603" gradientUnits="userSpaceOnUse">
<stop stop-color="#5D3CF2"/>
<stop offset="1" stop-color="#FD5631"/>
</linearGradient>
<linearGradient id="paint4_linear_0_1306" x1="33.9692" y1="23.9757" x2="34.2949" y2="21.6603" gradientUnits="userSpaceOnUse">
<stop stop-color="#5D3CF2"/>
<stop offset="1" stop-color="#FD5631"/>
</linearGradient>
<linearGradient id="paint5_linear_0_1306" x1="11.0078" y1="20.5242" x2="14.0527" y2="-6.88135" gradientUnits="userSpaceOnUse">
<stop stop-color="#5D3CF2"/>
<stop offset="1" stop-color="#FD5631"/>
</linearGradient>
</defs>
</svg>
