<svg width="125" height="49" viewBox="0 0 125 49" fill="none" xmlns="http://www.w3.org/2000/svg">
<path d="M115.16 16.783L96.9488 16.0689C96.0561 16.0689 94.9848 15.7118 94.2706 15.3547L80.5228 6.07045C74.6309 2.14251 67.8463 0 60.8831 0H16.9616C13.7478 0 10.7126 1.42834 8.74859 4.10649L1.24982 13.9263C0.357107 14.9976 0 16.4259 0 17.8543V27.1385C0 34.6373 6.07048 40.8863 13.7478 40.8863H15.1761C17.1401 44.9928 21.2466 48.028 26.0673 48.028C30.8879 48.028 35.173 45.1713 36.9584 40.8863H89.0929C91.0568 44.9928 95.1633 48.028 99.984 48.028C104.805 48.028 109.09 45.1713 110.875 40.8863H111.232C118.731 40.8863 124.98 34.8158 124.98 27.1385C125.337 21.4251 120.873 16.9616 115.16 16.783ZM14.8191 39.458H13.9264C9.10572 39.458 4.82067 36.6013 2.8567 32.4948H14.9976C14.6405 33.566 14.462 34.8158 14.462 36.0656C14.2834 37.1369 14.462 38.3867 14.8191 39.458ZM36.2442 39.458C36.0657 39.9936 35.8871 40.3507 35.7086 40.8863C33.9231 44.2786 30.3523 46.5997 26.2458 46.5997C22.1393 46.5997 18.5685 44.2786 16.9616 40.8863C16.783 40.5292 16.6045 39.9936 16.426 39.458C16.0689 38.3867 15.7118 37.1369 15.7118 35.8871C15.7118 34.6373 15.8903 33.3875 16.426 32.3162C16.6045 31.7806 16.783 31.4235 16.9616 30.8879C18.747 27.4956 22.3179 25.1745 26.2458 25.1745C30.3523 25.1745 33.7446 27.4956 35.53 30.8879C35.7086 31.245 35.8871 31.7806 36.0657 32.3162C36.4228 33.3875 36.7798 34.6373 36.7798 35.8871C36.7798 37.1369 36.6013 38.3867 36.2442 39.458ZM88.9144 39.458H37.6725C38.0296 38.3867 38.2082 37.1369 38.2082 35.8871C38.2082 34.6373 38.0296 33.3875 37.6725 32.3162H88.9144C88.5573 33.3875 88.3787 34.6373 88.3787 35.8871C88.3787 37.1369 88.5573 38.3867 88.9144 39.458ZM110.34 39.458C110.161 39.9936 109.982 40.3507 109.804 40.8863C108.018 44.2786 104.448 46.5997 100.52 46.5997C96.4132 46.5997 92.8423 44.2786 91.0568 40.8863C90.8783 40.5292 90.6998 39.9936 90.5212 39.458C90.1642 38.3867 89.8071 37.1369 89.8071 35.8871C89.8071 34.6373 89.9856 33.3875 90.5212 32.3162C90.6998 31.7806 90.8783 31.4235 91.0568 30.8879C92.8423 27.4956 96.4131 25.1745 100.341 25.1745C104.448 25.1745 107.84 27.4956 109.625 30.8879C109.804 31.245 109.982 31.7806 110.161 32.3162C110.518 33.3875 110.875 34.6373 110.875 35.8871C110.875 37.1369 110.697 38.3867 110.34 39.458ZM111.768 39.458C112.125 38.3867 112.303 37.1369 112.303 35.8871C112.303 34.6373 112.125 33.3875 111.768 32.3162H122.659C120.695 36.4227 116.588 39.2794 111.768 39.458ZM111.232 31.0664C109.268 26.96 105.162 23.9247 100.341 23.9247C95.5204 23.9247 91.2354 26.7814 89.45 31.0664H37.1369C35.173 26.96 31.0665 23.9247 26.2458 23.9247C21.4252 23.9247 17.1401 26.7814 15.3547 31.0664H2.14254C1.78545 29.9952 1.60687 28.9239 1.60687 27.6741H5.17773C5.53482 27.6741 5.89195 27.317 5.89195 26.96C5.89195 26.6029 5.53482 26.2458 5.17773 26.2458H1.60687V21.7822H5.17773C5.53482 21.7822 5.89195 21.4251 5.89195 21.0681C5.89195 20.711 5.53482 20.3539 5.17773 20.3539H1.60687V17.8543C1.60687 16.783 1.96397 15.7118 2.67814 14.8191L10.177 4.9992C11.7838 2.85669 14.462 1.42834 17.1401 1.42834H61.0617C67.8463 1.42834 74.2738 3.39231 79.9872 7.14171L93.735 16.4259C94.8062 16.9616 95.8775 17.3187 97.1273 17.4972L115.339 18.2114C118.552 18.3899 121.231 19.9968 122.659 22.4964H115.696C115.339 22.4964 114.982 22.8535 114.982 23.2106C114.982 23.5677 115.339 23.9247 115.696 23.9247H123.373C123.73 24.996 124.087 26.0673 124.087 27.3171C124.087 28.7454 123.909 29.9952 123.373 31.245H111.232V31.0664Z" fill="url(#paint0_linear_0_1316)"/>
<path d="M59.277 4.28413L17.498 4.10559C14.9984 4.10559 12.8558 5.35539 11.4275 7.31936L7.67812 12.8542C7.32104 13.5684 7.14248 14.2825 7.49957 14.9967C7.85666 15.7109 8.57083 16.068 9.285 16.068L26.7822 16.425H26.9607H27.1393L86.4155 17.8534C86.7726 17.8534 87.1297 17.6748 87.1297 17.3178V16.7821L82.6661 13.0327C76.5957 7.4979 68.0256 4.28413 59.277 4.28413ZM26.7822 15.1752L9.64205 14.8182C9.28497 14.8182 9.10644 14.4611 9.10644 14.4611C9.10644 14.2825 8.9279 14.104 9.10644 13.7469L12.8559 8.21207C13.9271 6.60519 15.7125 5.71248 17.6765 5.71248H30.5316L26.7822 15.1752ZM28.2105 15.3538L31.9599 5.71248L50.8855 5.89102L52.6709 16.068L28.2105 15.3538ZM53.9207 15.8894L52.1353 5.71248H59.0984C67.4899 5.71248 75.7029 8.7477 82.1305 14.104L84.9871 16.6036L53.9207 15.8894Z" fill="url(#paint1_linear_0_1316)"/>
<path d="M105.162 31.0655C103.913 29.8157 102.306 29.1016 100.342 29.1016C98.5564 29.1016 96.7709 29.8157 95.5211 31.0655C95.1641 31.4226 94.807 31.9582 94.4499 32.4939C93.7357 33.5651 93.3787 34.8149 93.3787 36.0647C93.3787 37.3145 93.7357 38.5643 94.4499 39.6356C94.807 40.1712 95.1641 40.5283 95.5211 41.0639C96.7709 42.3137 98.5564 43.0279 100.342 43.0279C102.306 43.0279 103.913 42.3137 105.162 41.0639C105.52 40.7069 105.877 40.1712 106.234 39.6356C106.769 38.5643 107.305 37.4931 107.305 36.0647C107.305 34.8149 106.948 33.5651 106.234 32.4939C105.877 31.9582 105.52 31.4226 105.162 31.0655ZM104.627 39.4571C104.091 39.9927 103.556 40.5283 102.841 40.8854C102.127 41.2425 101.235 41.5996 100.342 41.5996C99.4491 41.5996 98.5564 41.421 97.8422 40.8854C97.1281 40.5283 96.5924 39.9927 96.0568 39.4571C95.3426 38.5643 94.807 37.3145 94.807 35.8862C94.807 34.4578 95.3426 33.3866 96.0568 32.3153C96.5924 31.7797 97.1281 31.2441 97.8422 30.887C98.5564 30.5299 99.4491 30.3514 100.342 30.3514C101.235 30.3514 101.949 30.5299 102.841 30.887C103.556 31.2441 104.091 31.7797 104.627 32.3153C105.52 33.208 105.877 34.4578 105.877 35.8862C105.877 37.3145 105.341 38.5643 104.627 39.4571Z" fill="url(#paint2_linear_0_1316)"/>
<path d="M67.312 20.8903H63.7411C63.3841 20.8903 63.027 21.2473 63.027 21.6044C63.027 21.9615 63.3841 22.3186 63.7411 22.3186H67.312C67.6691 22.3186 68.0261 21.9615 68.0261 21.6044C68.0261 21.2473 67.6691 20.8903 67.312 20.8903Z" fill="url(#paint3_linear_0_1316)"/>
<path d="M40.5311 20.8901H36.9603C36.6032 20.8901 36.2461 21.2472 36.2461 21.6043C36.2461 21.9614 36.6032 22.3185 36.9603 22.3185H40.5311C40.8882 22.3185 41.2453 21.9614 41.2453 21.6043C41.2453 21.2472 40.8882 20.8901 40.5311 20.8901Z" fill="url(#paint4_linear_0_1316)"/>
<path d="M31.0689 31.0655C29.8191 29.8157 28.2123 29.1016 26.2483 29.1016C24.4629 29.1016 22.6774 29.8157 21.4276 31.0655C21.0706 31.4226 20.7135 31.9582 20.3564 32.4939C19.6422 33.5651 19.2852 34.8149 19.2852 36.0647C19.2852 37.3145 19.6422 38.5643 20.3564 39.6356C20.7135 40.1712 21.0706 40.5283 21.4276 41.0639C22.6774 42.3137 24.4629 43.0279 26.2483 43.0279C28.2123 43.0279 29.8191 42.3137 31.0689 41.0639C31.426 40.7069 31.7831 40.1712 32.1402 39.6356C32.6758 38.5643 33.2115 37.4931 33.2115 36.0647C33.2115 34.8149 32.8544 33.5651 32.1402 32.4939C31.7831 31.9582 31.426 31.4226 31.0689 31.0655ZM30.3548 39.4571C29.8191 39.9927 29.2835 40.5283 28.5693 40.8854C27.8552 41.2425 26.9625 41.5996 26.0698 41.5996C25.177 41.5996 24.2843 41.421 23.5702 40.8854C22.856 40.5283 22.3204 39.9927 21.7847 39.4571C21.0706 38.5643 20.5349 37.3145 20.5349 35.8862C20.5349 34.4578 21.0706 33.3866 21.7847 32.3153C22.3204 31.7797 22.856 31.2441 23.5702 30.887C24.2843 30.5299 25.177 30.3514 26.0698 30.3514C26.9625 30.3514 27.6766 30.5299 28.5693 30.887C29.2835 31.2441 29.8191 31.7797 30.3548 32.3153C31.2475 33.208 31.6046 34.4578 31.6046 35.8862C31.7831 37.3145 31.2475 38.5643 30.3548 39.4571Z" fill="url(#paint5_linear_0_1316)"/>
<defs>
<linearGradient id="paint0_linear_0_1316" x1="0" y1="48.028" x2="14.25" y2="-27.3115" gradientUnits="userSpaceOnUse">
<stop stop-color="#5D3CF2"/>
<stop offset="1" stop-color="#FD5631"/>
</linearGradient>
<linearGradient id="paint1_linear_0_1316" x1="7.30493" y1="17.8534" x2="9.1852" y2="-4.32431" gradientUnits="userSpaceOnUse">
<stop stop-color="#5D3CF2"/>
<stop offset="1" stop-color="#FD5631"/>
</linearGradient>
<linearGradient id="paint2_linear_0_1316" x1="93.3787" y1="43.0279" x2="102.345" y2="24.8145" gradientUnits="userSpaceOnUse">
<stop stop-color="#5D3CF2"/>
<stop offset="1" stop-color="#FD5631"/>
</linearGradient>
<linearGradient id="paint3_linear_0_1316" x1="63.027" y1="22.3186" x2="63.3471" y2="20.0429" gradientUnits="userSpaceOnUse">
<stop stop-color="#5D3CF2"/>
<stop offset="1" stop-color="#FD5631"/>
</linearGradient>
<linearGradient id="paint4_linear_0_1316" x1="36.2461" y1="22.3185" x2="36.5662" y2="20.0428" gradientUnits="userSpaceOnUse">
<stop stop-color="#5D3CF2"/>
<stop offset="1" stop-color="#FD5631"/>
</linearGradient>
<linearGradient id="paint5_linear_0_1316" x1="19.2852" y1="43.0279" x2="28.2512" y2="24.8145" gradientUnits="userSpaceOnUse">
<stop stop-color="#5D3CF2"/>
<stop offset="1" stop-color="#FD5631"/>
</linearGradient>
</defs>
</svg>
